<?xml version="1.0" standalone="no"?>
<!DOCTYPE svg PUBLIC "-//W3C//DTD SVG 1.1//EN" "http://www.w3.org/Graphics/SVG/1.1/DTD/svg11.dtd" >
<svg xmlns="http://www.w3.org/2000/svg" xmlns:xlink="http://www.w3.org/1999/xlink" version="1.1">
<metadata>
Created by FontForge 20170731 at Tue Jun  8 09:20:48 2021
 By Aleksey,,,
Core Sans A 35 Light
</metadata>
<defs>
<font id="CoreSansA35Light" horiz-adv-x="825" >
  <font-face 
    font-family="Core Sans A 35 Light"
    font-weight="400"
    font-stretch="normal"
    units-per-em="2048"
    panose-1="2 11 3 3 3 3 2 2 2 4"
    ascent="1638"
    descent="-410"
    x-height="1061"
    cap-height="1434"
    bbox="-848 -524 2048 2042"
    underline-thickness="49"
    underline-position="-472"
    unicode-range="U+0008-FB04"
  />
<missing-glyph horiz-adv-x="1024" 
d="M881 0h-738v1536h738v-1536zM297 133h430v1270h-430v-1270z" />
    <glyph glyph-name="f_f" unicode="ff" horiz-adv-x="1280" 
d="M1135 1495q63 0 110 -6v-115q-53 6 -110 6q-103 0 -150 -46t-47 -158v-115h287v-111h-287v-950h-123v950h-446v-950h-123v950h-211v111h211v123q0 165 78 238t241 73q65 0 111 -6v-115q-52 6 -111 6q-103 0 -149.5 -45.5t-46.5 -158.5v-115h446v123q0 165 78.5 238
t241.5 73z" />
    <glyph glyph-name="f_i" unicode="fi" horiz-adv-x="1140" 
d="M565 1495q65 0 111 -6v-115q-52 6 -111 6q-103 0 -149.5 -45.5t-46.5 -158.5v-115h608v-1061h-123v950h-485v-950h-123v950h-211v111h211v123q0 165 78 238t241 73zM821 1391q0 38 28 66t66 28t66.5 -28t28.5 -66t-28.5 -66.5t-66.5 -28.5t-66 28.5t-28 66.5z" />
    <glyph glyph-name="f_l" unicode="fl" horiz-adv-x="1107" 
d="M246 1061v121q0 164 79 238.5t240 74.5q105 0 256 -31v31h123v-1495h-123v1358q-137 26 -254 26q-103 0 -150.5 -49.5t-47.5 -163.5v-110h286v-111h-286v-950h-123v950h-211v111h211z" />
    <glyph glyph-name="f_f_i" unicode="ffi" horiz-adv-x="1710" 
d="M1135 1495q63 0 110 -6v-115q-53 6 -110 6q-103 0 -150 -46t-47 -158v-115h608v-1061h-123v950h-485v-950h-123v950h-446v-950h-123v950h-211v111h211v123q0 165 78 238t241 73q65 0 111 -6v-115q-52 6 -111 6q-103 0 -149.5 -45.5t-46.5 -158.5v-115h446v123
q0 165 78.5 238t241.5 73zM1391 1391q0 38 28 66t66 28t66 -28t28 -66t-28 -66.5t-66 -28.5t-66 28.5t-28 66.5z" />
    <glyph glyph-name="f_f_l" unicode="ffl" horiz-adv-x="1677" 
d="M815 1061v121q0 164 79 238.5t241 74.5q105 0 256 -31v31h122v-1495h-122v1358q-136 26 -254 26q-103 0 -151 -49.5t-48 -163.5v-110h287v-111h-287v-950h-123v950h-446v-950h-123v950h-211v111h211v123q0 165 78 238t241 73q65 0 111 -6v-115q-52 6 -111 6
q-103 0 -149.5 -45.5t-46.5 -158.5v-115h446z" />
    <glyph glyph-name=".notdef" horiz-adv-x="1024" 
d="M881 0h-738v1536h738v-1536zM297 133h430v1270h-430v-1270z" />
    <glyph glyph-name=".null" horiz-adv-x="0" 
 />
    <glyph glyph-name=".null" horiz-adv-x="0" 
 />
    <glyph glyph-name=".null" horiz-adv-x="0" 
 />
    <glyph glyph-name="nonmarkingreturn" horiz-adv-x="682" 
 />
    <glyph glyph-name="CR" unicode="&#x9;" horiz-adv-x="485" 
 />
    <glyph glyph-name="CR" unicode="&#xd;" horiz-adv-x="485" 
 />
    <glyph glyph-name="space" unicode=" " horiz-adv-x="614" 
 />
    <glyph glyph-name="exclam" unicode="!" horiz-adv-x="540" 
d="M168 78q0 43 29.5 72.5t72.5 29.5t73 -29.5t30 -72.5t-30 -73t-73 -30t-72.5 30t-29.5 73zM229 346l-28 641v447h139v-447l-29 -641h-82z" />
    <glyph glyph-name="quotedbl" unicode="&#x22;" horiz-adv-x="929" 
d="M578 877l-15 557h142v-101l-25 -456h-102zM240 877l-15 557h142v-101l-27 -456h-100z" />
    <glyph glyph-name="numbersign" unicode="#" horiz-adv-x="1390" 
d="M766 0l65 385h-389l-65 -385h-131l65 385h-233v113h254l76 440h-244v113h262l68 383h131l-68 -383h389l68 383h131l-68 -383h236v-113h-254l-76 -440h244v-113h-264l-66 -385h-131zM539 938l-76 -440h389l76 440h-389z" />
    <glyph glyph-name="dollar" unicode="$" horiz-adv-x="1206" 
d="M563 -201v181q-288 25 -485 225l102 86q162 -171 383 -193v607q-225 64 -323.5 161.5t-98.5 233.5q0 156 113 255.5t309 102.5v180h99v-186q233 -30 395 -209l-99 -80q-136 139 -296 168v-528q235 -72 340.5 -168t105.5 -264q0 -173 -119 -281.5t-327 -114.5v-176h-99z
M973 365q0 117 -72.5 186t-238.5 125v-582q142 7 226.5 83t84.5 188zM276 1100q0 -88 69.5 -154t217.5 -115v508q-140 -3 -213.5 -68t-73.5 -171z" />
    <glyph glyph-name="percent" unicode="%" horiz-adv-x="1798" 
d="M299 1081q0 -120 48 -186t136 -66t136.5 66t48.5 186t-48.5 186t-136.5 66t-136 -66t-48 -186zM170 1081q0 161 84.5 264t228.5 103t229 -103t85 -264t-85 -263.5t-229 -102.5t-228.5 102.5t-84.5 263.5zM340 43l1018 1415l96 -67l-1018 -1416zM1495 352q0 120 -48 186
t-136 66t-136.5 -66t-48.5 -186t48.5 -186t136.5 -66t136 66t48 186zM1624 352q0 -161 -84.5 -263.5t-228.5 -102.5t-229 102.5t-85 263.5t85 264t229 103t228.5 -103t84.5 -264z" />
    <glyph glyph-name="ampersand" unicode="&#x26;" horiz-adv-x="1288" 
d="M1053 0l-113 135q-182 -160 -405 -160q-185 0 -305.5 104t-120.5 259q0 138 78.5 238.5t228.5 189.5l-17 20q-83 101 -122 182.5t-39 164.5q0 145 96 235t248 90q136 0 232.5 -93t96.5 -241q0 -116 -76 -211t-227 -188l338 -408q87 106 166 269l107 -51
q-83 -188 -191 -314l184 -221h-159zM547 92q167 0 315 135l-360 437q-65 -37 -107 -67t-80.5 -69.5t-56.5 -86t-18 -103.5q0 -105 81 -175.5t226 -70.5zM369 1135q0 -120 137 -285l18 -23q256 152 256 310q0 82 -57.5 144t-142.5 62q-99 0 -155 -60.5t-56 -147.5z" />
    <glyph glyph-name="quotesingle" unicode="'" horiz-adv-x="591" 
d="M240 877l-15 557h142v-101l-27 -456h-100z" />
    <glyph glyph-name="parenleft" unicode="(" horiz-adv-x="706" 
d="M231 635q0 510 301 901l93 -45q-265 -387 -265 -856t265 -856l-93 -45q-301 391 -301 901z" />
    <glyph glyph-name="parenright" unicode=")" horiz-adv-x="706" 
d="M475 635q0 -510 -301 -901l-92 45q264 385 264 856t-264 856l92 45q301 -391 301 -901z" />
    <glyph glyph-name="asterisk" unicode="*" horiz-adv-x="1091" 
d="M479 238l10 346l-294 -181l-66 111l307 166l-307 166l66 110l294 -182l-10 348h131l-10 -348l295 182l66 -110l-308 -166l308 -166l-66 -111l-295 181l10 -346h-131z" />
    <glyph glyph-name="plus" unicode="+" horiz-adv-x="1265" 
d="M565 180v441h-436v116h436v441h135v-441h437v-116h-437v-441h-135z" />
    <glyph glyph-name="comma" unicode="," horiz-adv-x="602" 
d="M262 195l144 -48l-185 -466l-104 34z" />
    <glyph glyph-name="hyphen" unicode="-" horiz-adv-x="831" 
d="M702 616h-573v127h573v-127z" />
    <glyph glyph-name="period" unicode="." horiz-adv-x="602" 
d="M199 78q0 43 29.5 72.5t72.5 29.5t72.5 -29.5t29.5 -72.5t-29.5 -73t-72.5 -30t-72.5 30t-29.5 73z" />
    <glyph glyph-name="slash" unicode="/" horiz-adv-x="991" 
d="M0 -190l883 1746l106 -63l-883 -1747z" />
    <glyph glyph-name="zero" unicode="0" horiz-adv-x="1204" 
d="M98 717q0 218 54.5 382.5t170 261.5t279.5 97t279.5 -97t170 -261.5t54.5 -382.5q0 -162 -31.5 -296.5t-93 -234.5t-158.5 -155.5t-221 -55.5t-221 55.5t-158.5 155.5t-93 234.5t-31.5 296.5zM233 717q0 -292 94.5 -455.5t274.5 -163.5t274.5 163.5t94.5 455.5t-94.5 455
t-274.5 163t-274.5 -163t-94.5 -455z" />
    <glyph glyph-name="one" unicode="1" horiz-adv-x="1204" 
d="M612 1276l-309 -213l-80 90l404 281h116v-1434h-131v1276z" />
    <glyph glyph-name="two" unicode="2" horiz-adv-x="1204" 
d="M586 1458q195 0 314.5 -106.5t119.5 -286.5q0 -123 -63.5 -251.5t-192.5 -276.5q-178 -203 -424 -418h700v-119h-893v106q284 252 492 484q124 140 185 256.5t61 224.5q0 115 -81.5 189.5t-219.5 74.5q-102 0 -199 -45.5t-176 -132.5l-96 78q207 223 473 223z" />
    <glyph glyph-name="three" unicode="3" horiz-adv-x="1204" 
d="M612 1335q-101 0 -195 -43t-169 -127l-96 80q195 213 462 213q196 0 311 -96t115 -258q0 -136 -81 -231t-201 -121q153 -36 237 -131.5t84 -243.5q0 -179 -124.5 -290.5t-346.5 -111.5q-155 0 -284 60t-218 170l97 80q164 -187 399 -187q161 0 251.5 76.5t90.5 204.5
q0 150 -108.5 231.5t-290.5 81.5h-135v117h135q159 0 259.5 76.5t100.5 208.5q0 107 -76 174t-217 67z" />
    <glyph glyph-name="four" unicode="4" horiz-adv-x="1204" 
d="M797 332h-719v112l727 990h123v-983h192v-119h-192v-332h-131v332zM797 1212l-564 -761h564v761z" />
    <glyph glyph-name="five" unicode="5" horiz-adv-x="1204" 
d="M616 98q153 0 243.5 92t90.5 226q0 153 -100.5 241t-261.5 88q-186 0 -332 -49l-18 11v727h774v-119h-643v-481q106 34 237 34q214 0 346.5 -125t132.5 -337q0 -119 -54 -216t-161.5 -156t-251.5 -59q-295 0 -473 218l99 86q85 -95 174.5 -138t197.5 -43z" />
    <glyph glyph-name="six" unicode="6" horiz-adv-x="1204" 
d="M635 1335q-346 0 -367 -565q166 145 379 145q207 0 330 -131.5t123 -343.5q0 -208 -131.5 -336.5t-337.5 -128.5q-113 0 -203 40.5t-157.5 123.5t-103.5 220t-36 321q0 203 34.5 353t101 242.5t157.5 137.5t209 45q251 0 405 -198l-98 -74q-63 78 -135.5 113.5
t-169.5 35.5zM629 793q-93 0 -190 -44.5t-173 -117.5q5 -120 27.5 -214t56.5 -153t80 -97t94.5 -53.5t104.5 -15.5q156 0 246 93.5t90 252.5q0 162 -88.5 255.5t-247.5 93.5z" />
    <glyph glyph-name="seven" unicode="7" horiz-adv-x="1204" 
d="M1063 1315l-578 -1315h-147l582 1315h-781v119h924v-119z" />
    <glyph glyph-name="eight" unicode="8" horiz-adv-x="1204" 
d="M106 385q0 122 65.5 229t180.5 174q-186 111 -186 306q0 158 119.5 261t316.5 103q199 0 316.5 -104.5t117.5 -261.5q0 -108 -55.5 -199.5t-161.5 -157.5q132 -64 204.5 -152t72.5 -218q0 -177 -138.5 -283.5t-355.5 -106.5q-222 0 -359 109t-137 301zM508 719
q-6 1 -15 4l-12 4q-113 -66 -175 -156.5t-62 -189.5q0 -132 99 -209.5t259 -77.5q158 0 257 73t99 193q0 66 -28 117t-89.5 93.5t-137.5 75.5t-195 73zM604 823q52 -18 86 -32q209 135 209 292q0 112 -80 183t-217 71q-132 0 -215.5 -69t-83.5 -174q0 -86 70.5 -150.5
t230.5 -120.5z" />
    <glyph glyph-name="nine" unicode="9" horiz-adv-x="1204" 
d="M551 -25q-232 0 -387 152l88 84q136 -113 305 -113q56 0 106.5 18t98.5 60t84.5 105.5t61 161t30.5 219.5q-77 -66 -175 -105t-204 -39q-207 0 -330 131.5t-123 343.5q0 208 131.5 336.5t337.5 128.5q113 0 203 -40t157.5 -123t103.5 -220t36 -321q0 -201 -38 -352.5
t-108.5 -243.5t-165 -137.5t-212.5 -45.5zM578 641q92 0 188.5 44.5t171.5 115.5q-4 120 -26 214t-55.5 153.5t-80 97.5t-94.5 53.5t-104 15.5q-156 0 -246 -93.5t-90 -252.5q0 -162 88.5 -255t247.5 -93z" />
    <glyph glyph-name="colon" unicode=":" horiz-adv-x="602" 
d="M199 78q0 43 29.5 72.5t72.5 29.5t72.5 -29.5t29.5 -72.5t-29.5 -73t-72.5 -30t-72.5 30t-29.5 73zM199 983q0 43 29.5 72.5t72.5 29.5t72.5 -29.5t29.5 -72.5t-29.5 -72.5t-72.5 -29.5t-72.5 29.5t-29.5 72.5z" />
    <glyph glyph-name="semicolon" unicode=";" horiz-adv-x="602" 
d="M240 195l143 -48l-184 -466l-105 34zM197 983q0 43 29.5 72.5t72.5 29.5t72.5 -29.5t29.5 -72.5t-29.5 -72.5t-72.5 -29.5t-72.5 29.5t-29.5 72.5z" />
    <glyph glyph-name="less" unicode="&#x3c;" horiz-adv-x="1265" 
d="M221 637v86l762 479l61 -106l-671 -416l671 -416l-61 -106z" />
    <glyph glyph-name="equal" unicode="=" horiz-adv-x="1265" 
d="M1137 854h-1008v117h1008v-117zM1137 389h-1008v117h1008v-117z" />
    <glyph glyph-name="greater" unicode="&#x3e;" horiz-adv-x="1265" 
d="M1044 723v-86l-761 -479l-62 106l672 416l-672 416l62 106z" />
    <glyph glyph-name="question" unicode="?" horiz-adv-x="1062" 
d="M512 1339q-184 0 -326 -163l-90 73q83 99 193.5 154t232.5 55q186 0 292 -92.5t106 -251.5q0 -117 -58 -212t-188 -181q-92 -62 -125 -125.5t-33 -167.5v-82h-131v88q0 128 43.5 215.5t149.5 157.5q119 78 162.5 147t43.5 162q0 103 -73 163t-199 60zM350 78
q0 43 30 72.5t73 29.5t72.5 -29.5t29.5 -72.5t-29.5 -73t-72.5 -30t-73 30t-30 73z" />
    <glyph glyph-name="at" unicode="@" horiz-adv-x="1959" 
d="M1495 117q-81 0 -141.5 34t-87.5 99q-63 -69 -146 -110.5t-174 -41.5q-192 0 -291.5 123.5t-99.5 333.5t99.5 333.5t291.5 123.5q170 0 303 -140v115h121v-610q0 -74 36 -116t97 -42q55 0 94.5 28.5t61.5 83t31.5 122.5t9.5 157q0 211 -91 383t-257 271.5t-375 99.5
q-156 0 -290.5 -61t-227.5 -167t-146 -254.5t-53 -318.5q0 -168 53 -316t146.5 -256t230.5 -170.5t297 -62.5q126 0 249 43t224 119l49 -84q-225 -172 -522 -172q-153 0 -286.5 46.5t-232 129.5t-169.5 195t-107 246.5t-36 281.5t35.5 281.5t106 246t168 194t229 128
t282.5 45.5q186 0 343.5 -68t262 -184t163 -270t58.5 -326q0 -102 -15.5 -186t-49.5 -155.5t-96 -111.5t-148 -40zM1249 752q-131 153 -288 153q-151 0 -218 -89.5t-67 -260.5t67 -260.5t218 -89.5q84 0 158 41t130 110v396z" />
    <glyph glyph-name="A" unicode="A" horiz-adv-x="1363" 
d="M610 1434h144l563 -1434h-146l-149 391h-680l-149 -391h-146zM682 1294l-299 -784h598z" />
    <glyph glyph-name="B" unicode="B" horiz-adv-x="1265" 
d="M170 0v1434h475q219 0 340 -102.5t121 -270.5q0 -115 -59 -197t-160 -108q140 -26 215.5 -118t75.5 -237q0 -191 -130.5 -296t-381.5 -105h-496zM301 805h361q148 0 228.5 68.5t80.5 187.5q0 125 -88.5 189.5t-255.5 64.5h-326v-510zM1042 401q0 137 -92 211t-272 74
h-377v-567h346q197 0 296 72t99 210z" />
    <glyph glyph-name="C" unicode="C" horiz-adv-x="1392" 
d="M98 717q0 216 80.5 384t229.5 262.5t344 94.5q185 0 326.5 -76t228.5 -213l-109 -67q-85 122 -192 177.5t-250 55.5q-232 0 -377.5 -166.5t-145.5 -451.5t145.5 -452t377.5 -167q142 0 249.5 56t192.5 178l109 -68q-87 -137 -228.5 -213t-326.5 -76q-194 0 -343.5 94.5
t-230 263t-80.5 384.5z" />
    <glyph glyph-name="D" unicode="D" horiz-adv-x="1378" 
d="M301 119h303q254 0 397.5 158t143.5 440q0 280 -144 439t-397 159h-303v-1196zM616 0h-446v1434h446q309 0 486.5 -193t177.5 -524q0 -334 -177 -525.5t-487 -191.5z" />
    <glyph glyph-name="E" unicode="E" horiz-adv-x="1148" 
d="M170 0v1434h872v-119h-741v-514h666v-119h-666v-563h760v-119h-891z" />
    <glyph glyph-name="F" unicode="F" horiz-adv-x="1089" 
d="M170 0v1434h872v-119h-741v-541h672v-119h-672v-655h-131z" />
    <glyph glyph-name="G" unicode="G" horiz-adv-x="1427" 
d="M98 717q0 215 80.5 383.5t227 263t333.5 94.5q372 0 559 -282l-108 -68q-83 119 -189.5 173t-257.5 54q-221 0 -365.5 -167.5t-144.5 -450.5q0 -280 149.5 -449.5t395.5 -169.5q121 0 228.5 42t167.5 118v360h-390v119h521v-528q-88 -112 -228.5 -173t-300.5 -61
q-153 0 -281 57.5t-214.5 157t-134.5 235.5t-48 292z" />
    <glyph glyph-name="H" unicode="H" horiz-adv-x="1415" 
d="M170 0v1434h131v-611h813v611h131v-1434h-131v705h-813v-705h-131z" />
    <glyph glyph-name="I" unicode="I" horiz-adv-x="491" 
d="M180 1434h131v-1434h-131v1434z" />
    <glyph glyph-name="J" unicode="J" horiz-adv-x="1132" 
d="M520 98q146 0 228.5 99.5t82.5 277.5v959h132v-959q0 -237 -117.5 -368.5t-319.5 -131.5q-153 0 -270 69.5t-190 207.5l106 63q123 -217 348 -217z" />
    <glyph glyph-name="K" unicode="K" horiz-adv-x="1236" 
d="M301 1434v-869l686 869h158l-463 -586l526 -848h-157l-453 745l-297 -376v-369h-131v1434h131z" />
    <glyph glyph-name="L" unicode="L" horiz-adv-x="1079" 
d="M170 0v1434h131v-1315h737v-119h-868z" />
    <glyph glyph-name="M" unicode="M" horiz-adv-x="1716" 
d="M815 283l-514 903v-1186h-131v1434h131l557 -975l557 975h131v-1434h-131v1186l-514 -903h-86z" />
    <glyph glyph-name="N" unicode="N" horiz-adv-x="1427" 
d="M170 0v1434h133l823 -1217v1217h131v-1434h-131l-825 1217v-1217h-131z" />
    <glyph glyph-name="O" unicode="O" horiz-adv-x="1449" 
d="M1352 717q0 -157 -43 -292.5t-122 -235.5t-198 -157t-264 -57t-264 57t-198 157t-122 235.5t-43 292.5t43 292t122 235t198 157t264 57t264 -57t198 -157t122 -235t43 -292zM233 717q0 -280 133 -449.5t359 -169.5t359 169.5t133 449.5t-133 449t-359 169t-359 -169
t-133 -449z" />
    <glyph glyph-name="P" unicode="P" horiz-adv-x="1193" 
d="M1114 995q0 -214 -137.5 -326t-392.5 -112h-283v-557h-131v1434h414q256 0 393 -112t137 -327zM979 995q0 320 -408 320h-270v-639h270q408 0 408 319z" />
    <glyph glyph-name="Q" unicode="Q" horiz-adv-x="1449" 
d="M1352 717q0 -155 -42.5 -291t-121.5 -236l233 -251l-92 -86l-233 249q-152 -127 -371 -127q-145 0 -264 57t-198 157t-122 235.5t-43 292.5t43 292t122 235t198 157t264 57t264 -57t198 -157t122 -235t43 -292zM762 471l92 86l246 -270q117 168 117 430q0 280 -133 449
t-359 169t-359 -169t-133 -449t133 -449.5t359 -169.5q169 0 289 97z" />
    <glyph glyph-name="R" unicode="R" horiz-adv-x="1255" 
d="M1126 1024q0 -306 -325 -387l411 -637h-151l-399 618q-47 -2 -146 -2h-215v-616h-131v1434h444q244 0 378 -108.5t134 -301.5zM991 1024q0 142 -98.5 216.5t-290.5 74.5h-301v-580h301q192 0 290.5 74t98.5 215z" />
    <glyph glyph-name="S" unicode="S" horiz-adv-x="1206" 
d="M633 98q156 0 248 73.5t92 190.5q0 129 -90 202t-314 136q-233 66 -330.5 161t-97.5 239q0 162 113.5 260t316.5 98q141 0 265.5 -55.5t220.5 -159.5l-99 -80q-169 172 -385 172q-146 0 -221.5 -61.5t-75.5 -165.5q0 -98 83.5 -168.5t256.5 -120.5q130 -37 217.5 -75.5
t152 -91t93.5 -121.5t29 -160q0 -177 -123.5 -286.5t-343.5 -109.5q-161 0 -306.5 60t-256.5 170l104 86q196 -193 451 -193z" />
    <glyph glyph-name="T" unicode="T" horiz-adv-x="1124" 
d="M498 0v1315h-461v119h1050v-119h-458v-1315h-131z" />
    <glyph glyph-name="U" unicode="U" horiz-adv-x="1449" 
d="M725 98q207 0 315.5 118t108.5 347v871h131v-879q0 -144 -41.5 -256t-116.5 -182t-175.5 -106t-221.5 -36t-221.5 36t-175.5 106t-116.5 182t-41.5 256v879h131v-871q0 -229 108.5 -347t315.5 -118z" />
    <glyph glyph-name="V" unicode="V" horiz-adv-x="1363" 
d="M682 139l489 1295h146l-563 -1434h-144l-563 1434h146z" />
    <glyph glyph-name="W" unicode="W" horiz-adv-x="2023" 
d="M594 154l338 1280h160l338 -1280l403 1280h143l-458 -1434h-175l-331 1268l-332 -1268h-174l-459 1434h143z" />
    <glyph glyph-name="X" unicode="X" horiz-adv-x="1208" 
d="M1018 0l-414 631l-414 -631h-153l491 745l-450 689h151l375 -572l375 572h151l-450 -689l491 -745h-153z" />
    <glyph glyph-name="Y" unicode="Y" horiz-adv-x="1208" 
d="M539 0v569l-502 865h147l420 -725l420 725h147l-501 -865v-569h-131z" />
    <glyph glyph-name="Z" unicode="Z" horiz-adv-x="1146" 
d="M68 113l831 1202h-793v119h953v-113l-832 -1202h852v-119h-1011v113z" />
    <glyph glyph-name="bracketleft" unicode="[" horiz-adv-x="815" 
d="M252 -266v1802h514v-106h-385v-1590h385v-106h-514z" />
    <glyph glyph-name="backslash" unicode="\" horiz-adv-x="991" 
d="M0 1493l106 63l883 -1746l-106 -64z" />
    <glyph glyph-name="bracketright" unicode="]" horiz-adv-x="815" 
d="M563 1536v-1802h-514v106h385v1590h-385v106h514z" />
    <glyph glyph-name="asciicircum" unicode="^" horiz-adv-x="1265" 
d="M571 1434h123l404 -619l-103 -67l-362 538l-363 -538l-102 67z" />
    <glyph glyph-name="underscore" unicode="_" horiz-adv-x="1009" 
d="M0 -332v105h1010v-105h-1010z" />
    <glyph glyph-name="grave" unicode="`" horiz-adv-x="808" 
d="M215 1432l98 81l281 -301l-74 -63z" />
    <glyph glyph-name="a" unicode="a" horiz-adv-x="1103" 
d="M86 315q0 149 111.5 244.5t296.5 95.5q192 0 346 -118v155q0 140 -71 209.5t-232 69.5q-170 0 -312 -115l-78 84q175 145 404 145q197 0 304.5 -94t107.5 -270v-721h-123v117q-149 -142 -346 -142q-185 0 -296.5 95.5t-111.5 244.5zM508 541q-135 0 -215 -59t-80 -167
q0 -107 80 -166t215 -59q189 0 332 137v193q-142 121 -332 121z" />
    <glyph glyph-name="b" unicode="b" horiz-adv-x="1179" 
d="M272 123v-123h-122v1495h122v-557q161 147 355 147q218 0 336 -147t118 -408t-118 -408t-336 -147q-193 0 -355 148zM954 530q0 214 -87 327.5t-263 113.5q-87 0 -178.5 -45.5t-153.5 -114.5v-561q62 -69 153.5 -114.5t178.5 -45.5q176 0 263 113t87 327z" />
    <glyph glyph-name="c" unicode="c" horiz-adv-x="1093" 
d="M88 530q0 246 138.5 400.5t361.5 154.5q144 0 254.5 -61.5t179.5 -173.5l-98 -59q-63 91 -141.5 135.5t-186.5 44.5q-173 0 -277 -119t-104 -322t104 -321.5t277 -118.5q108 0 186.5 44.5t141.5 135.5l98 -59q-69 -113 -179.5 -174.5t-254.5 -61.5q-223 0 -361.5 154.5
t-138.5 400.5z" />
    <glyph glyph-name="d" unicode="d" horiz-adv-x="1179" 
d="M907 0v123q-162 -148 -354 -148q-218 0 -336.5 147.5t-118.5 407.5t118.5 407.5t336.5 147.5q193 0 354 -147v557h123v-1495h-123zM225 530q0 -214 87 -327t263 -113q87 0 178.5 45.5t153.5 114.5v561q-62 69 -153.5 114.5t-178.5 45.5q-176 0 -263 -113.5t-87 -327.5z
" />
    <glyph glyph-name="e" unicode="e" horiz-adv-x="1148" 
d="M614 -25q-158 0 -279 76t-184 202t-63 279q0 240 138.5 396.5t355.5 156.5q213 0 350 -154t137 -396q0 -42 -2 -56h-848q12 -173 116.5 -281t272.5 -108q191 0 316 152l94 -68q-73 -95 -176.5 -147t-227.5 -52zM219 590h721q-7 171 -109 276t-251 105t-251.5 -105
t-109.5 -276z" />
    <glyph glyph-name="f" unicode="f" horiz-adv-x="710" 
d="M565 1495q65 0 111 -6v-115q-52 6 -111 6q-103 0 -149.5 -45.5t-46.5 -158.5v-115h286v-111h-286v-950h-123v950h-211v111h211v123q0 165 78 238t241 73z" />
    <glyph glyph-name="g" unicode="g" horiz-adv-x="1179" 
d="M1030 1061v-1041q0 -230 -114 -354.5t-326 -124.5q-278 0 -445 213l97 68q141 -170 342 -170q152 0 237.5 92t85.5 260v119q-162 -148 -354 -148q-218 0 -336.5 147.5t-118.5 407.5t118.5 407.5t336.5 147.5q193 0 354 -147v123h123zM225 530q0 -214 87 -327t263 -113
q87 0 178.5 45.5t153.5 114.5v561q-62 69 -153.5 114.5t-178.5 45.5q-176 0 -263 -113.5t-87 -327.5z" />
    <glyph glyph-name="h" unicode="h" horiz-adv-x="1177" 
d="M664 1085q175 0 273.5 -100t98.5 -289v-696h-123v666q0 154 -67.5 229.5t-208.5 75.5q-98 0 -199.5 -55t-165.5 -130v-786h-122v1495h122v-580q177 170 392 170z" />
    <glyph glyph-name="i" unicode="i" horiz-adv-x="450" 
d="M164 0v1061h123v-1061h-123zM131 1391q0 38 28 66t66 28t66 -28t28 -66t-28 -66.5t-66 -28.5t-66 28.5t-28 66.5z" />
    <glyph glyph-name="j" unicode="j" horiz-adv-x="450" 
d="M164 -141v1202h123v-1213q0 -165 -79 -236t-237 -71q-35 0 -75 4v115q46 -4 81 -4q98 0 142.5 46t44.5 157zM131 1391q0 38 28 66t66 28t66 -28t28 -66t-28 -66.5t-66 -28.5t-66 28.5t-28 66.5z" />
    <glyph glyph-name="k" unicode="k" horiz-adv-x="1034" 
d="M877 0l-369 551l-236 -268v-283h-122v1495h122v-1049l529 615h157l-370 -422l432 -639h-143z" />
    <glyph glyph-name="l" unicode="l" horiz-adv-x="450" 
d="M164 0v1495h123v-1495h-123z" />
    <glyph glyph-name="m" unicode="m" horiz-adv-x="1789" 
d="M625 1085q207 0 290 -167q79 74 180.5 120.5t211.5 46.5q170 0 256 -98t86 -287v-700h-123v668q0 154 -54.5 228.5t-189.5 74.5q-81 0 -173 -44t-159 -114q11 -61 11 -102v-711h-123v678q0 149 -55.5 221t-182.5 72q-85 0 -177.5 -46t-150.5 -120v-805h-122v1061h122
v-127q72 70 165 110.5t188 40.5z" />
    <glyph glyph-name="n" unicode="n" horiz-adv-x="1177" 
d="M664 1085q175 0 273.5 -100t98.5 -289v-696h-123v666q0 154 -67.5 229.5t-208.5 75.5q-98 0 -199.5 -55t-165.5 -130v-786h-122v1061h122v-146q177 170 392 170z" />
    <glyph glyph-name="o" unicode="o" horiz-adv-x="1179" 
d="M965 530q0 201 -102.5 321t-272.5 120t-272.5 -120t-102.5 -321t102 -320.5t273 -119.5t273 119.5t102 320.5zM1092 530q0 -243 -139 -399t-363 -156t-363 156t-139 399t139 399t363 156t363 -156t139 -399z" />
    <glyph glyph-name="p" unicode="p" horiz-adv-x="1179" 
d="M272 1061v-123q161 147 355 147q218 0 336 -147t118 -408t-118 -408t-336 -147q-193 0 -355 148v-557h-122v1495h122zM954 530q0 214 -87 327.5t-263 113.5q-87 0 -178.5 -45.5t-153.5 -114.5v-561q62 -69 153.5 -114.5t178.5 -45.5q176 0 263 113t87 327z" />
    <glyph glyph-name="q" unicode="q" horiz-adv-x="1179" 
d="M907 938v123h123v-1495h-123v557q-162 -148 -354 -148q-218 0 -336.5 147.5t-118.5 407.5t118.5 407.5t336.5 147.5q193 0 354 -147zM225 530q0 -214 87 -327t263 -113q87 0 178.5 45.5t153.5 114.5v561q-62 69 -153.5 114.5t-178.5 45.5q-176 0 -263 -113.5t-87 -327.5z
" />
    <glyph glyph-name="r" unicode="r" horiz-adv-x="727" 
d="M602 971q-98 0 -188 -52t-142 -133v-786h-122v1061h122v-143q63 79 153 123t196 44q23 0 69 -4v-114q-58 4 -88 4z" />
    <glyph glyph-name="s" unicode="s" horiz-adv-x="1001" 
d="M516 90q127 0 198.5 50.5t71.5 133.5q0 87 -71 140t-232 94q-201 51 -282.5 119.5t-81.5 187.5q0 122 95 196t265 74q108 0 206.5 -38t172.5 -109l-86 -82q-126 115 -293 115q-103 0 -168 -42t-65 -114q0 -69 62 -110t233 -89q200 -56 286 -131.5t86 -201.5
q0 -142 -103.5 -225t-289.5 -83q-131 0 -249.5 47.5t-207.5 139.5l91 86q74 -76 169 -117t193 -41z" />
    <glyph glyph-name="t" unicode="t" horiz-adv-x="710" 
d="M569 -25q-159 0 -241 73.5t-82 238.5v663h-211v111h211v317h123v-317h286v-111h-286v-655q0 -111 46.5 -158t145.5 -47q38 0 92 4v-114q-57 -5 -84 -5z" />
    <glyph glyph-name="u" unicode="u" horiz-adv-x="1167" 
d="M584 90q147 0 234 90t87 264v617h123v-627q0 -228 -119.5 -343.5t-324.5 -115.5t-325 115.5t-120 343.5v627h123v-617q0 -174 87.5 -264t234.5 -90z" />
    <glyph glyph-name="v" unicode="v" horiz-adv-x="1056" 
d="M885 1061h135l-422 -1061h-139l-422 1061h135l356 -924z" />
    <glyph glyph-name="w" unicode="w" horiz-adv-x="1593" 
d="M461 156l274 905h123l275 -905l284 905h139l-360 -1061h-127l-272 893l-273 -893h-127l-360 1061h139z" />
    <glyph glyph-name="x" unicode="x" horiz-adv-x="995" 
d="M821 0l-323 457l-324 -457h-145l397 557l-358 504h143l287 -406l286 406h144l-359 -504l398 -557h-146z" />
    <glyph glyph-name="y" unicode="y" horiz-adv-x="1036" 
d="M168 1061l364 -885l338 885h129l-571 -1495h-127l168 442l-432 1053h131z" />
    <glyph glyph-name="z" unicode="z" horiz-adv-x="954" 
d="M57 0v102l662 852h-627v107h785v-103l-662 -852h682v-106h-840z" />
    <glyph glyph-name="braceleft" unicode="{" horiz-adv-x="765" 
d="M354 -37v412q0 92 -57.5 148.5t-142.5 56.5v110q85 0 142.5 56.5t57.5 148.5v412q0 229 232 229h139v-106h-139q-54 0 -78.5 -27t-24.5 -84v-440q0 -95 -46 -158t-136 -86q90 -23 136 -86t46 -158v-440q0 -57 24.5 -84t78.5 -27h139v-106h-139q-232 0 -232 229z" />
    <glyph glyph-name="bar" unicode="|" horiz-adv-x="573" 
d="M231 -410v1985h111v-1985h-111z" />
    <glyph glyph-name="braceright" unicode="}" horiz-adv-x="765" 
d="M412 375v-412q0 -229 -232 -229h-139v106h139q54 0 78.5 27t24.5 84v440q0 95 46 158t136 86q-90 23 -136 86t-46 158v440q0 57 -24.5 84t-78.5 27h-139v106h139q232 0 232 -229v-412q0 -92 57.5 -148.5t142.5 -56.5v-110q-85 0 -142.5 -56.5t-57.5 -148.5z" />
    <glyph glyph-name="asciitilde" unicode="~" horiz-adv-x="1265" 
d="M602 621q-63 48 -113 70t-108 22q-128 0 -170 -174l-111 18q21 122 95.5 197t181.5 75q137 0 287 -116q63 -48 113 -70t108 -22q128 0 170 174l110 -19q-21 -122 -95 -197t-181 -75q-135 0 -287 117z" />
    <glyph glyph-name="uni00A0" unicode="&#xa0;" horiz-adv-x="614" 
 />
    <glyph glyph-name="exclamdown" unicode="&#xa1;" horiz-adv-x="540" 
d="M168 983q0 43 29.5 72.5t72.5 29.5t73 -29.5t30 -72.5t-30 -72.5t-73 -29.5t-72.5 29.5t-29.5 72.5zM201 74l28 641h82l29 -641v-447h-139v447z" />
    <glyph glyph-name="cent" unicode="&#xa2;" horiz-adv-x="1093" 
d="M543 -201v178q-205 17 -330 169t-125 384t125 384t330 169v179h98v-179q124 -10 221 -70.5t160 -162.5l-98 -59q-57 82 -125 125.5t-158 52.5v-877q90 7 158 51.5t125 126.5l98 -59q-62 -103 -159.5 -163.5t-221.5 -70.5v-178h-98zM215 530q0 -187 88 -303t240 -135v875
q-152 -19 -240 -135t-88 -302z" />
    <glyph glyph-name="sterling" unicode="&#xa3;" horiz-adv-x="1183" 
d="M684 1458q120 0 226 -48t180 -134l-99 -80q-126 139 -311 139q-297 0 -297 -293v-251h444v-91h-444v-194q0 -257 -139 -387h870v-119h-1026v104q164 145 164 377v219h-164v91h164v249q0 209 112 313.5t320 104.5z" />
    <glyph glyph-name="currency" unicode="&#xa4;" horiz-adv-x="1447" 
d="M406 680q0 -141 90.5 -234.5t226.5 -93.5t226.5 93.5t90.5 234.5t-90.5 234.5t-226.5 93.5t-226.5 -93.5t-90.5 -234.5zM283 680q0 146 82 260l-183 182l94 97l181 -183q118 90 266 90t266 -90l180 183l95 -97l-183 -182q82 -114 82 -260t-82 -260l183 -182l-95 -97
l-180 183q-119 -91 -266 -91t-266 91l-181 -183l-94 97l183 182q-82 114 -82 260z" />
    <glyph glyph-name="yen" unicode="&#xa5;" horiz-adv-x="1189" 
d="M528 0v336h-430v90h430v154h-430v90h379l-440 764h147l410 -732l410 732h147l-440 -764h379v-90h-431v-154h431v-90h-431v-336h-131z" />
    <glyph glyph-name="brokenbar" unicode="&#xa6;" horiz-adv-x="573" 
d="M231 451h111v-656h-111v656zM231 1409h111v-655h-111v655z" />
    <glyph glyph-name="section" unicode="&#xa7;" horiz-adv-x="944" 
d="M852 647q0 -101 -58.5 -170.5t-160.5 -101.5q106 -37 164.5 -105.5t58.5 -160.5q0 -142 -105 -228t-286 -86q-116 0 -220.5 45t-181.5 125l87 76q64 -64 146.5 -97.5t170.5 -33.5q123 0 192.5 52.5t69.5 137.5q0 80 -66 133.5t-214 88.5q-351 81 -351 317q0 98 59 169.5
t160 104.5q-221 83 -221 258q0 124 103.5 205.5t263.5 81.5q212 0 356 -141l-86 -74q-103 100 -274 100q-104 0 -170 -48t-66 -124q0 -70 69.5 -117.5t217.5 -88.5q183 -50 262.5 -125.5t79.5 -192.5zM469 864q-117 -30 -180.5 -78.5t-63.5 -136.5q0 -85 62.5 -138
t187.5 -81q111 9 180.5 66t69.5 145q0 90 -62 141.5t-194 81.5z" />
    <glyph glyph-name="dieresis" unicode="&#xa8;" horiz-adv-x="819" 
d="M121 1329q0 38 27 65t65 27t65 -27t27 -65t-27 -65t-65 -27t-65 27t-27 65zM514 1329q0 38 27 65t65 27t65 -27t27 -65t-27 -65t-65 -27t-65 27t-27 65z" />
    <glyph glyph-name="copyright" unicode="&#xa9;" horiz-adv-x="1708" 
d="M446 715q0 -197 113.5 -321t300.5 -124q227 0 348 197l-80 47q-107 -152 -268 -152q-147 0 -228 96t-81 257t81 256.5t228 95.5q161 0 268 -152l80 48q-120 196 -348 196q-187 0 -300.5 -123.5t-113.5 -320.5zM113 717q0 151 58.5 288.5t157.5 236.5t236.5 157.5
t288.5 58.5t288.5 -58.5t236.5 -157.5t157.5 -236.5t58.5 -288.5q0 -202 -99 -372.5t-269.5 -270t-372.5 -99.5t-372.5 99.5t-269.5 270t-99 372.5zM186 717q0 -137 52 -261t141 -214.5t213 -143.5t262 -53q139 0 263 53t212.5 143.5t140.5 214.5t52 261q0 136 -52 260
t-140.5 214.5t-212.5 144t-263 53.5q-184 0 -338 -90.5t-242 -245t-88 -336.5z" />
    <glyph glyph-name="ordfeminine" unicode="&#xaa;" horiz-adv-x="880" 
d="M94 913q0 107 83 176.5t212 69.5q136 0 252 -72v82q0 90 -48 138.5t-161 48.5q-124 0 -229 -84l-66 74q136 104 301 104q149 0 231.5 -69.5t82.5 -192.5v-506h-111v70q-107 -86 -252 -86q-128 0 -211.5 69.5t-83.5 177.5zM408 1065q-90 0 -146.5 -40t-56.5 -112
q0 -71 57.5 -112t145.5 -41q125 0 233 84v147q-106 74 -233 74z" />
    <glyph glyph-name="guillemotleft" unicode="&#xab;" horiz-adv-x="1128" 
d="M102 614v50l445 327l63 -84l-368 -268l368 -268l-63 -84zM516 614v50l447 327l63 -84l-369 -268l369 -268l-63 -84z" />
    <glyph glyph-name="logicalnot" unicode="&#xac;" horiz-adv-x="1265" 
d="M121 778v117h1003v-553h-135v436h-868z" />
    <glyph glyph-name="uni00AD" unicode="&#xad;" horiz-adv-x="831" 
d="M702 616h-573v127h573v-127z" />
    <glyph glyph-name="registered" unicode="&#xae;" horiz-adv-x="1708" 
d="M1171 895q0 -87 -46.5 -145.5t-133.5 -85.5l221 -375h-112l-209 358q-29 -2 -90 -2h-142v-356h-104v854h297q149 0 234 -65t85 -183zM1067 895q0 160 -223 160h-185v-322h185q223 0 223 162zM113 717q0 151 58.5 288.5t157.5 236.5t236.5 157.5t288.5 58.5t288.5 -58.5
t236.5 -157.5t157.5 -236.5t58.5 -288.5q0 -202 -99 -372.5t-269.5 -270t-372.5 -99.5t-372.5 99.5t-269.5 270t-99 372.5zM186 717q0 -137 52 -261t141 -214.5t213 -143.5t262 -53q139 0 263 53t212.5 143.5t140.5 214.5t52 261q0 136 -52 260t-140.5 214.5t-212.5 144
t-263 53.5q-184 0 -338 -90.5t-242 -245t-88 -336.5z" />
    <glyph glyph-name="macron" unicode="&#xaf;" horiz-adv-x="819" 
d="M117 1272v110h585v-110h-585z" />
    <glyph glyph-name="degree" unicode="&#xb0;" horiz-adv-x="808" 
d="M406 926q-112 0 -190.5 78t-78.5 188t78.5 188t190.5 78t190 -77.5t78 -188.5t-78 -188.5t-190 -77.5zM406 1362q-70 0 -118 -49t-48 -121t48 -121t118 -49t117.5 49t47.5 121t-47.5 121t-117.5 49z" />
    <glyph glyph-name="plusminus" unicode="&#xb1;" horiz-adv-x="1265" 
d="M1137 0h-1008v117h1008v-117zM565 236v440h-436v117h436v440h135v-440h437v-117h-437v-440h-135z" />
    <glyph glyph-name="twosuperior" unicode="&#xb2;" 
d="M391 1348q-109 0 -203 -97l-79 68q125 131 288 131q128 0 203.5 -71t75.5 -195q0 -154 -144 -324q-135 -159 -268 -272h420v-103h-580v97q188 162 334 333q123 145 123 269q0 78 -44 121t-126 43z" />
    <glyph glyph-name="threesuperior" unicode="&#xb3;" 
d="M397 1348q-123 0 -202 -97l-80 66q117 133 282 133q126 0 201.5 -68t75.5 -182q0 -80 -52.5 -140.5t-129.5 -78.5q90 -21 147 -84.5t57 -155.5q0 -118 -82 -195t-227 -77q-195 0 -305 149l84 68q40 -56 99 -85.5t122 -29.5q91 0 143 50t52 120q0 94 -67.5 140.5
t-192.5 46.5h-78v100h78q112 0 174.5 45.5t62.5 120.5q0 70 -41.5 112t-120.5 42z" />
    <glyph glyph-name="acute" unicode="&#xb4;" horiz-adv-x="819" 
d="M500 1513l98 -81l-305 -283l-74 63z" />
    <glyph glyph-name="mu" unicode="&#xb5;" horiz-adv-x="1187" 
d="M592 -25q-97 0 -181 32.5t-139 92.5v-534h-122v1495h122v-825q52 -70 139.5 -108t180.5 -38q94 0 181.5 38t139.5 108v825h123v-1061h-123v100q-57 -60 -141 -92.5t-180 -32.5z" />
    <glyph glyph-name="paragraph" unicode="&#xb6;" horiz-adv-x="1148" 
d="M92 1020q0 197 130 305.5t333 108.5h399v-1702h-112v1587h-107v-1587h-117v870h-47q-97 0 -183 27.5t-152.5 78.5t-105 131.5t-38.5 180.5z" />
    <glyph glyph-name="periodcentered" unicode="&#xb7;" horiz-adv-x="602" 
d="M199 662q0 43 29.5 72.5t72.5 29.5t72.5 -29.5t29.5 -72.5t-29.5 -73t-72.5 -30t-72.5 30t-29.5 73z" />
    <glyph glyph-name="cedilla" unicode="&#xb8;" horiz-adv-x="819" 
d="M358 -391q60 0 93.5 27t33.5 71q0 57 -49.5 88.5t-142.5 34.5l-10 14l75 156h109l-51 -104q88 -17 136 -68.5t48 -124.5q0 -79 -61.5 -134.5t-178.5 -55.5q-53 0 -102.5 18.5t-83.5 50.5l62 74q53 -47 122 -47z" />
    <glyph glyph-name="onesuperior" unicode="&#xb9;" 
d="M397 1292l-161 -121l-72 82l246 183h100v-951h-113v807z" />
    <glyph glyph-name="ordmasculine" unicode="&#xba;" horiz-adv-x="880" 
d="M440 668q-160 0 -261 110.5t-101 280.5t101 280.5t261 110.5t261.5 -110.5t101.5 -280.5t-101.5 -280.5t-261.5 -110.5zM440 1354q-112 0 -181 -80t-69 -215t69 -215t181 -80t181 80t69 215t-69 215t-181 80z" />
    <glyph glyph-name="guillemotright" unicode="&#xbb;" horiz-adv-x="1128" 
d="M1026 664v-50l-444 -327l-66 84l369 268l-369 268l66 84zM610 664v-50l-444 -327l-64 84l369 268l-369 268l64 84z" />
    <glyph glyph-name="onequarter" unicode="&#xbc;" horiz-adv-x="1984" 
d="M397 1292l-161 -121l-72 82l246 183h100v-951h-113v807zM1430 1411l-785 -1438l-92 54l784 1437zM1665 209h-459v94l465 645h109v-637h114v-102h-114v-209h-115v209zM1665 764l-324 -453h324v453z" />
    <glyph glyph-name="onehalf" unicode="&#xbd;" horiz-adv-x="1984" 
d="M397 1292l-161 -121l-72 82l246 183h100v-951h-113v807zM1430 1411l-785 -1438l-92 54l784 1437zM1550 862q-109 0 -202 -96l-80 68q125 131 288 131q128 0 203.5 -71.5t75.5 -195.5q0 -154 -143 -323q-136 -160 -269 -273h420v-102h-579v96q181 156 333 334
q123 145 123 268q0 78 -44 121t-126 43z" />
    <glyph glyph-name="threequarters" unicode="&#xbe;" horiz-adv-x="1984" 
d="M1430 1411l-785 -1438l-92 54l784 1437zM397 1348q-123 0 -202 -97l-80 66q117 133 282 133q126 0 201.5 -68t75.5 -182q0 -80 -52.5 -140.5t-129.5 -78.5q90 -21 147 -84.5t57 -155.5q0 -118 -82 -195t-227 -77q-195 0 -305 149l84 68q40 -56 99 -85.5t122 -29.5
q91 0 143 50t52 120q0 94 -67.5 140.5t-192.5 46.5h-78v100h78q112 0 174.5 45.5t62.5 120.5q0 70 -41.5 112t-120.5 42zM1665 209h-459v94l465 645h109v-637h114v-102h-114v-209h-115v209zM1665 764l-324 -453h324v453z" />
    <glyph glyph-name="questiondown" unicode="&#xbf;" horiz-adv-x="1062" 
d="M551 -279q183 0 326 164l90 -73q-83 -99 -193.5 -154t-232.5 -55q-186 0 -292 92.5t-106 251.5q0 117 58 212t188 181q92 62 125 125.5t33 167.5v82h131v-88q0 -128 -43.5 -215.5t-149.5 -157.5q-119 -78 -162.5 -147t-43.5 -162q0 -103 73 -163.5t199 -60.5zM713 983
q0 -43 -30 -72.5t-73 -29.5t-72.5 29.5t-29.5 72.5t29.5 72.5t72.5 29.5t73 -29.5t30 -72.5z" />
    <glyph glyph-name="Agrave" unicode="&#xc0;" horiz-adv-x="1363" 
d="M610 1434h144l563 -1434h-146l-149 391h-680l-149 -391h-146zM682 1294l-299 -784h598zM416 1829l98 81l281 -301l-74 -63z" />
    <glyph glyph-name="Aacute" unicode="&#xc1;" horiz-adv-x="1363" 
d="M610 1434h144l563 -1434h-146l-149 391h-680l-149 -391h-146zM682 1294l-299 -784h598zM850 1911l98 -82l-305 -283l-74 64z" />
    <glyph glyph-name="Acircumflex" unicode="&#xc2;" horiz-adv-x="1363" 
d="M610 1434h144l563 -1434h-146l-149 391h-680l-149 -391h-146zM682 1294l-299 -784h598zM637 1892h90l274 -297l-72 -61l-247 241l-248 -241l-72 61z" />
    <glyph glyph-name="Atilde" unicode="&#xc3;" horiz-adv-x="1363" 
d="M610 1434h144l563 -1434h-146l-149 391h-680l-149 -391h-146zM682 1294l-299 -784h598zM657 1683q-59 56 -112 56q-68 0 -99 -107l-94 17q23 93 73.5 141.5t121.5 48.5q87 0 160 -67q59 -56 112 -56q68 0 99 107l94 -17q-23 -93 -73.5 -141.5t-121.5 -48.5q-87 0 -160 67
z" />
    <glyph glyph-name="Adieresis" unicode="&#xc4;" horiz-adv-x="1363" 
d="M610 1434h144l563 -1434h-146l-149 391h-680l-149 -391h-146zM682 1294l-299 -784h598zM393 1726q0 38 27 65.5t65 27.5t65.5 -27.5t27.5 -65.5t-27.5 -65t-65.5 -27t-65 27t-27 65zM786 1726q0 38 27.5 65.5t65.5 27.5t65 -27.5t27 -65.5t-27 -65t-65 -27t-65.5 27
t-27.5 65z" />
    <glyph glyph-name="Aring" unicode="&#xc5;" horiz-adv-x="1363" 
d="M610 1434h144l563 -1434h-146l-149 391h-680l-149 -391h-146zM682 1294l-299 -784h598zM577 1726q0 -44 30.5 -75t74.5 -31t74 31t30 75q0 45 -30 76t-74 31t-74.5 -31.5t-30.5 -75.5zM479 1726q0 83 59 141t144 58t143.5 -58t58.5 -141t-58.5 -141t-143.5 -58t-144 58
t-59 141z" />
    <glyph glyph-name="AE" unicode="&#xc6;" horiz-adv-x="1759" 
d="M1671 0h-778v391h-490l-206 -391h-150l772 1434h834v-119h-629v-514h553v-119h-553v-563h647v-119zM893 1309l-426 -799h426v799z" />
    <glyph glyph-name="Ccedilla" unicode="&#xc7;" horiz-adv-x="1392" 
d="M729 -391q60 0 93.5 27t33.5 71q0 57 -49.5 88.5t-142.5 34.5l-11 14l64 133q-185 8 -326 104t-217 261t-76 375q0 216 80.5 384t229.5 262.5t344 94.5q185 0 326.5 -76t228.5 -213l-109 -67q-85 122 -192 177.5t-250 55.5q-232 0 -377.5 -166.5t-145.5 -451.5
t145.5 -452t377.5 -167q142 0 249.5 56t192.5 178l109 -68q-78 -122 -200.5 -195.5t-279.5 -88.5l-41 -84q88 -17 136.5 -68.5t48.5 -124.5q0 -79 -61.5 -134.5t-178.5 -55.5q-53 0 -102.5 18.5t-83.5 50.5l61 74q53 -47 123 -47z" />
    <glyph glyph-name="Egrave" unicode="&#xc8;" horiz-adv-x="1148" 
d="M170 0v1434h872v-119h-741v-514h666v-119h-666v-563h760v-119h-891zM377 1829l98 81l281 -301l-74 -63z" />
    <glyph glyph-name="Eacute" unicode="&#xc9;" horiz-adv-x="1148" 
d="M170 0v1434h872v-119h-741v-514h666v-119h-666v-563h760v-119h-891zM754 1910l98 -81l-305 -283l-74 63z" />
    <glyph glyph-name="Ecircumflex" unicode="&#xca;" horiz-adv-x="1148" 
d="M170 0v1434h872v-119h-741v-514h666v-119h-666v-563h760v-119h-891zM569 1892h90l275 -297l-72 -61l-248 242l-247 -242l-72 61z" />
    <glyph glyph-name="Edieresis" unicode="&#xcb;" horiz-adv-x="1148" 
d="M170 0v1434h872v-119h-741v-514h666v-119h-666v-563h760v-119h-891zM326 1726q0 38 27 65t65 27t65 -27t27 -65t-27 -65t-65 -27t-65 27t-27 65zM719 1726q0 38 27 65t65 27t65 -27t27 -65t-27 -65t-65 -27t-65 27t-27 65z" />
    <glyph glyph-name="Igrave" unicode="&#xcc;" horiz-adv-x="491" 
d="M180 1434h131v-1434h-131v1434zM-78 1829l98 82l281 -301l-74 -64z" />
    <glyph glyph-name="Iacute" unicode="&#xcd;" horiz-adv-x="491" 
d="M180 1434h131v-1434h-131v1434zM471 1910l98 -81l-305 -283l-74 63z" />
    <glyph glyph-name="Icircumflex" unicode="&#xce;" horiz-adv-x="491" 
d="M180 1434h131v-1434h-131v1434zM201 1892h90l274 -297l-72 -61l-247 241l-248 -241l-72 61z" />
    <glyph glyph-name="Idieresis" unicode="&#xcf;" horiz-adv-x="491" 
d="M180 1434h131v-1434h-131v1434zM-43 1726q0 38 27 65.5t65 27.5t65 -27.5t27 -65.5t-27 -65t-65 -27t-65 27t-27 65zM350 1726q0 38 27 65.5t65 27.5t65.5 -27.5t27.5 -65.5t-27.5 -65t-65.5 -27t-65 27t-27 65z" />
    <glyph glyph-name="Eth" unicode="&#xd0;" horiz-adv-x="1392" 
d="M631 0h-447v662h-164v108h164v664h447q309 0 486 -193t177 -524q0 -334 -176.5 -525.5t-486.5 -191.5zM315 119h303q254 0 397.5 158t143.5 440q0 280 -144 439t-397 159h-303v-545h361v-108h-361v-543z" />
    <glyph glyph-name="Ntilde" unicode="&#xd1;" horiz-adv-x="1427" 
d="M170 0v1434h133l823 -1217v1217h131v-1434h-131l-825 1217v-1217h-131zM688 1683q-59 56 -113 56q-67 0 -98 -107l-94 17q23 93 73.5 141.5t121.5 48.5q86 0 159 -67q59 -56 113 -56q67 0 98 107l94 -17q-23 -93 -73 -141.5t-121 -48.5q-87 0 -160 67z" />
    <glyph glyph-name="Ograve" unicode="&#xd2;" horiz-adv-x="1449" 
d="M1352 717q0 -157 -43 -292.5t-122 -235.5t-198 -157t-264 -57t-264 57t-198 157t-122 235.5t-43 292.5t43 292t122 235t198 157t264 57t264 -57t198 -157t122 -235t43 -292zM233 717q0 -280 133 -449.5t359 -169.5t359 169.5t133 449.5t-133 449t-359 169t-359 -169
t-133 -449zM485 1829l98 81l281 -301l-74 -63z" />
    <glyph glyph-name="Oacute" unicode="&#xd3;" horiz-adv-x="1449" 
d="M1352 717q0 -157 -43 -292.5t-122 -235.5t-198 -157t-264 -57t-264 57t-198 157t-122 235.5t-43 292.5t43 292t122 235t198 157t264 57t264 -57t198 -157t122 -235t43 -292zM233 717q0 -280 133 -449.5t359 -169.5t359 169.5t133 449.5t-133 449t-359 169t-359 -169
t-133 -449zM865 1910l98 -81l-305 -283l-74 63z" />
    <glyph glyph-name="Ocircumflex" unicode="&#xd4;" horiz-adv-x="1449" 
d="M1352 717q0 -157 -43 -292.5t-122 -235.5t-198 -157t-264 -57t-264 57t-198 157t-122 235.5t-43 292.5t43 292t122 235t198 157t264 57t264 -57t198 -157t122 -235t43 -292zM233 717q0 -280 133 -449.5t359 -169.5t359 169.5t133 449.5t-133 449t-359 169t-359 -169
t-133 -449zM680 1892h90l274 -297l-72 -61l-247 241l-248 -241l-72 61z" />
    <glyph glyph-name="Otilde" unicode="&#xd5;" horiz-adv-x="1449" 
d="M1352 717q0 -157 -43 -292.5t-122 -235.5t-198 -157t-264 -57t-264 57t-198 157t-122 235.5t-43 292.5t43 292t122 235t198 157t264 57t264 -57t198 -157t122 -235t43 -292zM233 717q0 -280 133 -449.5t359 -169.5t359 169.5t133 449.5t-133 449t-359 169t-359 -169
t-133 -449zM700 1683q-58 55 -113 55q-68 0 -98 -106l-94 16q23 93 73 142t121 49q86 0 160 -68q58 -55 113 -55q68 0 98 106l94 -16q-23 -93 -73 -141.5t-121 -48.5q-87 0 -160 67z" />
    <glyph glyph-name="Odieresis" unicode="&#xd6;" horiz-adv-x="1449" 
d="M1352 717q0 -157 -43 -292.5t-122 -235.5t-198 -157t-264 -57t-264 57t-198 157t-122 235.5t-43 292.5t43 292t122 235t198 157t264 57t264 -57t198 -157t122 -235t43 -292zM233 717q0 -280 133 -449.5t359 -169.5t359 169.5t133 449.5t-133 449t-359 169t-359 -169
t-133 -449zM436 1726q0 38 27 65.5t65 27.5t65.5 -27.5t27.5 -65.5t-27.5 -65t-65.5 -27t-65 27t-27 65zM829 1726q0 38 27.5 65.5t65.5 27.5t65 -27.5t27 -65.5t-27 -65t-65 -27t-65.5 27t-27.5 65z" />
    <glyph glyph-name="multiply" unicode="&#xd7;" horiz-adv-x="1265" 
d="M725 680l336 -334l-90 -92l-338 336l-338 -336l-90 92l336 334l-336 336l90 92l338 -336l338 336l90 -92z" />
    <glyph glyph-name="Oslash" unicode="&#xd8;" horiz-adv-x="1449" 
d="M145 -14l131 186q-178 205 -178 545q0 157 43 292t122 235t198 157t264 57q216 0 371 -123l123 174l88 -59l-133 -190q86 -100 132 -240t46 -303q0 -157 -43 -292.5t-122 -235.5t-198 -157t-264 -57q-218 0 -371 125l-123 -174zM1217 717q0 265 -121 434l-670 -948
q124 -105 299 -105q226 0 359 169.5t133 449.5zM233 717q0 -270 121 -434l668 948q-122 104 -297 104q-226 0 -359 -169t-133 -449z" />
    <glyph glyph-name="Ugrave" unicode="&#xd9;" horiz-adv-x="1449" 
d="M725 98q207 0 315.5 118t108.5 347v871h131v-879q0 -144 -41.5 -256t-116.5 -182t-175.5 -106t-221.5 -36t-221.5 36t-175.5 106t-116.5 182t-41.5 256v879h131v-871q0 -229 108.5 -347t315.5 -118zM424 1829l98 81l281 -301l-74 -63z" />
    <glyph glyph-name="Uacute" unicode="&#xda;" horiz-adv-x="1449" 
d="M725 98q207 0 315.5 118t108.5 347v871h131v-879q0 -144 -41.5 -256t-116.5 -182t-175.5 -106t-221.5 -36t-221.5 36t-175.5 106t-116.5 182t-41.5 256v879h131v-871q0 -229 108.5 -347t315.5 -118zM928 1910l98 -81l-305 -283l-74 63z" />
    <glyph glyph-name="Ucircumflex" unicode="&#xdb;" horiz-adv-x="1449" 
d="M725 98q207 0 315.5 118t108.5 347v871h131v-879q0 -144 -41.5 -256t-116.5 -182t-175.5 -106t-221.5 -36t-221.5 36t-175.5 106t-116.5 182t-41.5 256v879h131v-871q0 -229 108.5 -347t315.5 -118zM680 1892h90l274 -297l-72 -61l-247 241l-248 -241l-72 61z" />
    <glyph glyph-name="Udieresis" unicode="&#xdc;" horiz-adv-x="1449" 
d="M725 98q-207 0 -315.5 118t-108.5 347v871h-131v-879q0 -144 41.5 -256t116.5 -182t175.5 -106t221.5 -36t221.5 36t175.5 106t116.5 182t41.5 256v879h-131v-871q0 -229 -108.5 -347t-315.5 -118zM436 1726q0 38 27 65.5t65 27.5t65.5 -27.5t27.5 -65.5t-27.5 -65
t-65.5 -27t-65 27t-27 65zM829 1726q0 38 27.5 65.5t65.5 27.5t65 -27.5t27 -65.5t-27 -65t-65 -27t-65.5 27t-27.5 65z" />
    <glyph glyph-name="Yacute" unicode="&#xdd;" horiz-adv-x="1208" 
d="M539 0v569l-502 865h147l420 -725l420 725h147l-501 -865v-569h-131zM815 1910l98 -81l-305 -283l-74 63z" />
    <glyph glyph-name="Thorn" unicode="&#xde;" horiz-adv-x="1193" 
d="M170 1434h131v-269h283q256 0 393 -111.5t137 -326.5q0 -214 -137.5 -326t-392.5 -112h-283v-289h-131v1434zM301 1047v-639h270q408 0 408 319q0 320 -408 320h-270z" />
    <glyph glyph-name="germandbls" unicode="&#xdf;" horiz-adv-x="1155" 
d="M416 41l57 115q86 -58 184 -58q140 0 216.5 76t76.5 211q0 155 -116 240.5t-302 87.5v118q144 0 217.5 71t73.5 194q0 106 -69.5 172.5t-190.5 66.5q-79 0 -134.5 -28.5t-85.5 -82.5t-43 -121t-13 -155v-948h-131v981q0 232 104 354.5t307 122.5q170 0 280.5 -104
t110.5 -256q0 -242 -231 -322q160 -30 259 -129t99 -262q0 -195 -110 -302.5t-305 -107.5q-65 0 -134.5 18t-119.5 48z" />
    <glyph glyph-name="agrave" unicode="&#xe0;" horiz-adv-x="1103" 
d="M86 315q0 149 111.5 244.5t296.5 95.5q192 0 346 -118v155q0 140 -71 209.5t-232 69.5q-170 0 -312 -115l-78 84q175 145 404 145q197 0 304.5 -94t107.5 -270v-721h-123v117q-149 -142 -346 -142q-185 0 -296.5 95.5t-111.5 244.5zM508 541q-135 0 -215 -59t-80 -167
q0 -107 80 -166t215 -59q189 0 332 137v193q-142 121 -332 121zM301 1473l98 81l281 -301l-74 -63z" />
    <glyph glyph-name="aacute" unicode="&#xe1;" horiz-adv-x="1103" 
d="M86 315q0 149 111.5 244.5t296.5 95.5q192 0 346 -118v155q0 140 -71 209.5t-232 69.5q-170 0 -312 -115l-78 84q175 145 404 145q197 0 304.5 -94t107.5 -270v-721h-123v117q-149 -142 -346 -142q-185 0 -296.5 95.5t-111.5 244.5zM508 541q-135 0 -215 -59t-80 -167
q0 -107 80 -166t215 -59q189 0 332 137v193q-142 121 -332 121zM713 1554l98 -81l-305 -283l-74 63z" />
    <glyph glyph-name="acircumflex" unicode="&#xe2;" horiz-adv-x="1103" 
d="M86 315q0 149 111.5 244.5t296.5 95.5q192 0 346 -118v155q0 140 -71 209.5t-232 69.5q-170 0 -312 -115l-78 84q175 145 404 145q197 0 304.5 -94t107.5 -270v-721h-123v117q-149 -142 -346 -142q-185 0 -296.5 95.5t-111.5 244.5zM508 541q-135 0 -215 -59t-80 -167
q0 -107 80 -166t215 -59q189 0 332 137v193q-142 121 -332 121zM515 1536h90l274 -297l-72 -61l-247 241l-248 -241l-72 61z" />
    <glyph glyph-name="atilde" unicode="&#xe3;" horiz-adv-x="1103" 
d="M86 315q0 149 111.5 244.5t296.5 95.5q192 0 346 -118v155q0 140 -71 209.5t-232 69.5q-170 0 -312 -115l-78 84q175 145 404 145q197 0 304.5 -94t107.5 -270v-721h-123v117q-149 -142 -346 -142q-185 0 -296.5 95.5t-111.5 244.5zM508 541q-135 0 -215 -59t-80 -167
q0 -107 80 -166t215 -59q189 0 332 137v193q-142 121 -332 121zM530 1327q-58 55 -112 55q-69 0 -99 -106l-94 16q23 93 73.5 142t121.5 49q86 0 160 -68q58 -55 112 -55q69 0 99 106l94 -16q-23 -93 -73.5 -141.5t-121.5 -48.5q-87 0 -160 67z" />
    <glyph glyph-name="adieresis" unicode="&#xe4;" horiz-adv-x="1103" 
d="M86 315q0 149 111.5 244.5t296.5 95.5q192 0 346 -118v155q0 140 -71 209.5t-232 69.5q-170 0 -312 -115l-78 84q175 145 404 145q197 0 304.5 -94t107.5 -270v-721h-123v117q-149 -142 -346 -142q-185 0 -296.5 95.5t-111.5 244.5zM508 541q-135 0 -215 -59t-80 -167
q0 -107 80 -166t215 -59q189 0 332 137v193q-142 121 -332 121zM287 1370q0 38 27 65t65 27t65 -27t27 -65t-27 -65t-65 -27t-65 27t-27 65zM680 1370q0 38 27 65t65 27t65 -27t27 -65t-27 -65t-65 -27t-65 27t-27 65z" />
    <glyph glyph-name="aring" unicode="&#xe5;" horiz-adv-x="1103" 
d="M86 315q0 149 111.5 244.5t296.5 95.5q192 0 346 -118v155q0 140 -71 209.5t-232 69.5q-170 0 -312 -115l-78 84q175 145 404 145q197 0 304.5 -94t107.5 -270v-721h-123v117q-149 -142 -346 -142q-185 0 -296.5 95.5t-111.5 244.5zM508 541q-135 0 -215 -59t-80 -167
q0 -107 80 -166t215 -59q189 0 332 137v193q-142 121 -332 121zM463 1370q0 -44 30.5 -75t74.5 -31t74 31t30 75q0 45 -30 76t-74 31t-74.5 -31.5t-30.5 -75.5zM365 1370q0 83 59 141t144 58t143.5 -58t58.5 -141t-58.5 -141t-143.5 -58t-144 58t-59 141z" />
    <glyph glyph-name="ae" unicode="&#xe6;" horiz-adv-x="1900" 
d="M1366 -25q-143 0 -262.5 65.5t-188.5 190.5q-56 -122 -168.5 -189t-252.5 -67q-185 0 -296.5 95.5t-111.5 244.5t111.5 244.5t296.5 95.5q192 0 346 -118v155q0 140 -71 209.5t-232 69.5q-170 0 -312 -115l-78 84q175 145 404 145q151 0 252.5 -57.5t134.5 -169.5
q55 104 159.5 165.5t235.5 61.5q213 0 350.5 -154t137.5 -396q0 -42 -2 -56h-848q12 -173 116.5 -281t272.5 -108q190 0 315 152l94 -68q-73 -95 -176 -147t-227 -52zM840 383v35q-136 123 -332 123q-135 0 -215 -59t-80 -167q0 -106 79 -165.5t206 -59.5q135 0 238.5 86.5
t103.5 206.5zM971 590h721q-7 171 -109.5 276t-251.5 105t-251 -105t-109 -276z" />
    <glyph glyph-name="ccedilla" unicode="&#xe7;" horiz-adv-x="1093" 
d="M563 -391q60 0 93.5 27t33.5 71q0 57 -49.5 88.5t-142.5 34.5l-11 14l64 133q-209 12 -336 164.5t-127 388.5q0 246 138.5 400.5t361.5 154.5q144 0 254.5 -61.5t179.5 -173.5l-98 -59q-63 91 -141.5 135.5t-186.5 44.5q-173 0 -277 -119t-104 -322t104 -321.5
t277 -118.5q108 0 186.5 44.5t141.5 135.5l98 -59q-59 -98 -151 -157t-209 -72l-41 -86q88 -17 136 -68.5t48 -124.5q0 -79 -61.5 -134.5t-178.5 -55.5q-53 0 -102.5 18.5t-83.5 50.5l61 74q53 -47 123 -47z" />
    <glyph glyph-name="egrave" unicode="&#xe8;" horiz-adv-x="1148" 
d="M614 -25q-158 0 -279 76t-184 202t-63 279q0 240 138.5 396.5t355.5 156.5q213 0 350 -154t137 -396q0 -42 -2 -56h-848q12 -173 116.5 -281t272.5 -108q191 0 316 152l94 -68q-73 -95 -176.5 -147t-227.5 -52zM219 590h721q-7 171 -109 276t-251 105t-251.5 -105
t-109.5 -276zM348 1473l98 81l281 -301l-74 -63z" />
    <glyph glyph-name="eacute" unicode="&#xe9;" horiz-adv-x="1148" 
d="M614 -25q-158 0 -279 76t-184 202t-63 279q0 240 138.5 396.5t355.5 156.5q213 0 350 -154t137 -396q0 -42 -2 -56h-848q12 -173 116.5 -281t272.5 -108q191 0 316 152l94 -68q-73 -95 -176.5 -147t-227.5 -52zM219 590h721q-7 171 -109 276t-251 105t-251.5 -105
t-109.5 -276zM740 1554l98 -81l-305 -283l-74 63z" />
    <glyph glyph-name="ecircumflex" unicode="&#xea;" horiz-adv-x="1148" 
d="M614 -25q-158 0 -279 76t-184 202t-63 279q0 240 138.5 396.5t355.5 156.5q213 0 350 -154t137 -396q0 -42 -2 -56h-848q12 -173 116.5 -281t272.5 -108q191 0 316 152l94 -68q-73 -95 -176.5 -147t-227.5 -52zM219 590h721q-7 171 -109 276t-251 105t-251.5 -105
t-109.5 -276zM537 1536h90l274 -297l-72 -61l-247 241l-248 -241l-72 61z" />
    <glyph glyph-name="edieresis" unicode="&#xeb;" horiz-adv-x="1148" 
d="M614 -25q-158 0 -279 76t-184 202t-63 279q0 240 138.5 396.5t355.5 156.5q213 0 350 -154t137 -396q0 -42 -2 -56h-848q12 -173 116.5 -281t272.5 -108q191 0 316 152l94 -68q-73 -95 -176.5 -147t-227.5 -52zM219 590h721q-7 171 -109 276t-251 105t-251.5 -105
t-109.5 -276zM297 1370q0 38 27 65t65 27t65 -27t27 -65t-27 -65t-65 -27t-65 27t-27 65zM690 1370q0 38 27 65t65 27t65 -27t27 -65t-27 -65t-65 -27t-65 27t-27 65z" />
    <glyph glyph-name="igrave" unicode="&#xec;" horiz-adv-x="450" 
d="M164 0v1061h123v-1061h-123zM-96 1473l98 81l281 -301l-74 -63z" />
    <glyph glyph-name="iacute" unicode="&#xed;" horiz-adv-x="450" 
d="M164 0v1061h123v-1061h-123zM449 1554l98 -81l-305 -283l-74 63z" />
    <glyph glyph-name="icircumflex" unicode="&#xee;" horiz-adv-x="450" 
d="M164 0v1061h123v-1061h-123zM181 1536h90l274 -297l-72 -61l-247 241l-248 -241l-72 61z" />
    <glyph glyph-name="idieresis" unicode="&#xef;" horiz-adv-x="450" 
d="M164 0v1061h123v-1061h-123zM-63 1370q0 38 27 65t65 27t65 -27t27 -65t-27 -65t-65 -27t-65 27t-27 65zM330 1370q0 38 27 65t65 27t65 -27t27 -65t-27 -65t-65 -27t-65 27t-27 65z" />
    <glyph glyph-name="eth" unicode="&#xf0;" horiz-adv-x="1142" 
d="M874 872q-39 207 -176 334l-340 -102l-32 96l274 84q-106 64 -242 96l9 115q232 -57 372 -170l326 100l33 -96l-273 -84q197 -215 197 -581q0 -323 -124 -506t-361 -183q-195 0 -319 139t-124 382q0 246 121 383t328 137q94 0 181.5 -39.5t149.5 -104.5zM543 901
q-148 0 -235 -107t-87 -298q0 -185 85 -295.5t231 -110.5q171 0 264.5 143t93.5 433q0 39 -2 59q-138 176 -350 176z" />
    <glyph glyph-name="ntilde" unicode="&#xf1;" horiz-adv-x="1177" 
d="M664 1085q175 0 273.5 -100t98.5 -289v-696h-123v666q0 154 -67.5 229.5t-208.5 75.5q-98 0 -199.5 -55t-165.5 -130v-786h-122v1061h122v-146q177 170 392 170zM565 1327q-58 55 -112 55q-69 0 -99 -106l-94 16q23 93 73.5 142t121.5 49q85 0 159 -68q58 -55 113 -55
q68 0 98 106l95 -16q-23 -93 -73.5 -141.5t-121.5 -48.5q-87 0 -160 67z" />
    <glyph glyph-name="ograve" unicode="&#xf2;" horiz-adv-x="1179" 
d="M965 530q0 201 -102.5 321t-272.5 120t-272.5 -120t-102.5 -321t102 -320.5t273 -119.5t273 119.5t102 320.5zM1092 530q0 -243 -139 -399t-363 -156t-363 156t-139 399t139 399t363 156t363 -156t139 -399zM346 1473l98 81l281 -301l-74 -63z" />
    <glyph glyph-name="oacute" unicode="&#xf3;" horiz-adv-x="1179" 
d="M965 530q0 201 -102.5 321t-272.5 120t-272.5 -120t-102.5 -321t102 -320.5t273 -119.5t273 119.5t102 320.5zM1092 530q0 -243 -139 -399t-363 -156t-363 156t-139 399t139 399t363 156t363 -156t139 -399zM733 1554l98 -81l-305 -283l-74 63z" />
    <glyph glyph-name="ocircumflex" unicode="&#xf4;" horiz-adv-x="1179" 
d="M965 530q0 201 -102.5 321t-272.5 120t-272.5 -120t-102.5 -321t102 -320.5t273 -119.5t273 119.5t102 320.5zM1092 530q0 -243 -139 -399t-363 -156t-363 156t-139 399t139 399t363 156t363 -156t139 -399zM545 1536h90l274 -297l-72 -61l-247 241l-248 -241l-72 61z
" />
    <glyph glyph-name="otilde" unicode="&#xf5;" horiz-adv-x="1179" 
d="M965 530q0 201 -102.5 321t-272.5 120t-272.5 -120t-102.5 -321t102 -320.5t273 -119.5t273 119.5t102 320.5zM1092 530q0 -243 -139 -399t-363 -156t-363 156t-139 399t139 399t363 156t363 -156t139 -399zM565 1327q-58 55 -113 55q-68 0 -98 -106l-94 16q23 93 73 142
t121 49q86 0 160 -68q58 -55 113 -55q68 0 98 106l94 -16q-23 -93 -73 -141.5t-121 -48.5q-87 0 -160 67z" />
    <glyph glyph-name="odieresis" unicode="&#xf6;" horiz-adv-x="1179" 
d="M965 530q0 -201 -102 -320.5t-273 -119.5t-273 119.5t-102 320.5t102.5 321t272.5 120t272.5 -120t102.5 -321zM1092 530q0 243 -139 399t-363 156t-363 -156t-139 -399t139 -399t363 -156t363 156t139 399zM301 1370q0 38 27 65t65 27t65 -27t27 -65t-27 -65t-65 -27
t-65 27t-27 65zM694 1370q0 38 27 65t65 27t65.5 -27t27.5 -65t-27.5 -65t-65.5 -27t-65 27t-27 65z" />
    <glyph glyph-name="divide" unicode="&#xf7;" horiz-adv-x="1265" 
d="M530 1087q0 43 30 73t73 30t72.5 -30t29.5 -73t-29.5 -72.5t-72.5 -29.5t-73 29.5t-30 72.5zM129 621h1008v116h-1008v-116zM530 270q0 -43 30 -72.5t73 -29.5t72.5 29.5t29.5 72.5t-29.5 73t-72.5 30t-73 -30t-30 -73z" />
    <glyph glyph-name="oslash" unicode="&#xf8;" horiz-adv-x="1179" 
d="M862 1006l101 141l86 -60l-107 -149q71 -74 110.5 -179.5t39.5 -228.5q0 -243 -139 -399t-363 -156q-157 0 -273 78l-98 -139l-86 59l105 148q-72 75 -111 180t-39 229q0 243 139 399t363 156q154 0 272 -79zM590 971q-170 0 -272.5 -120t-102.5 -321q0 -192 92 -311
l488 690q-91 62 -205 62zM965 530q0 190 -93 310l-487 -690q85 -60 205 -60q171 0 273 119.5t102 320.5z" />
    <glyph glyph-name="ugrave" unicode="&#xf9;" horiz-adv-x="1167" 
d="M584 90q147 0 234 90t87 264v617h123v-627q0 -228 -119.5 -343.5t-324.5 -115.5t-325 115.5t-120 343.5v627h123v-617q0 -174 87.5 -264t234.5 -90zM311 1473l98 81l281 -301l-74 -63z" />
    <glyph glyph-name="uacute" unicode="&#xfa;" horiz-adv-x="1167" 
d="M584 90q147 0 234 90t87 264v617h123v-627q0 -228 -119.5 -343.5t-324.5 -115.5t-325 115.5t-120 343.5v627h123v-617q0 -174 87.5 -264t234.5 -90zM758 1554l98 -81l-305 -283l-74 63z" />
    <glyph glyph-name="ucircumflex" unicode="&#xfb;" horiz-adv-x="1167" 
d="M584 90q147 0 234 90t87 264v617h123v-627q0 -228 -119.5 -343.5t-324.5 -115.5t-325 115.5t-120 343.5v627h123v-617q0 -174 87.5 -264t234.5 -90zM539 1536h90l274 -297l-72 -61l-247 241l-248 -241l-72 61z" />
    <glyph glyph-name="udieresis" unicode="&#xfc;" horiz-adv-x="1167" 
d="M584 90q-147 0 -234.5 90t-87.5 264v617h-123v-627q0 -228 120 -343.5t325 -115.5t324.5 115.5t119.5 343.5v627h-123v-617q0 -174 -87 -264t-234 -90zM295 1370q0 38 27 65t65 27t65 -27t27 -65t-27 -65t-65 -27t-65 27t-27 65zM688 1370q0 38 27 65t65 27t65 -27
t27 -65t-27 -65t-65 -27t-65 27t-27 65z" />
    <glyph glyph-name="yacute" unicode="&#xfd;" horiz-adv-x="1036" 
d="M168 1061l364 -885l338 885h129l-571 -1495h-127l168 442l-432 1053h131zM690 1554l98 -81l-305 -283l-74 63z" />
    <glyph glyph-name="thorn" unicode="&#xfe;" horiz-adv-x="1179" 
d="M272 1495v-557q70 67 163 107t192 40q218 0 336 -147t118 -408t-118 -408t-336 -147q-99 0 -191.5 40.5t-163.5 107.5v-557h-122v1929h122zM954 530q0 214 -87 327.5t-263 113.5q-89 0 -180.5 -42t-151.5 -110v-577q60 -68 151.5 -110t180.5 -42q176 0 263 113t87 327z
" />
    <glyph glyph-name="ydieresis" unicode="&#xff;" horiz-adv-x="1036" 
d="M168 1061l364 -885l338 885h129l-571 -1495h-127l168 442l-432 1053h131zM230 1370q0 38 27 65t65 27t65 -27t27 -65t-27 -65t-65 -27t-65 27t-27 65zM623 1370q0 38 27 65t65 27t65 -27t27 -65t-27 -65t-65 -27t-65 27t-27 65z" />
    <glyph glyph-name="Amacron" unicode="&#x100;" horiz-adv-x="1363" 
d="M610 1434h144l563 -1434h-146l-149 391h-680l-149 -391h-146zM682 1294l-299 -784h598zM391 1671v111h586v-111h-586z" />
    <glyph glyph-name="amacron" unicode="&#x101;" horiz-adv-x="1103" 
d="M86 315q0 149 111.5 244.5t296.5 95.5q192 0 346 -118v155q0 140 -71 209.5t-232 69.5q-170 0 -312 -115l-78 84q175 145 404 145q197 0 304.5 -94t107.5 -270v-721h-123v117q-149 -142 -346 -142q-185 0 -296.5 95.5t-111.5 244.5zM508 541q-135 0 -215 -59t-80 -167
q0 -107 80 -166t215 -59q189 0 332 137v193q-142 121 -332 121zM254 1315v110h586v-110h-586z" />
    <glyph glyph-name="Abreve" unicode="&#x102;" horiz-adv-x="1363" 
d="M610 1434h144l563 -1434h-146l-149 391h-680l-149 -391h-146zM682 1294l-299 -784h598zM682 1679q77 0 134 49t85 138l92 -25q-33 -123 -113 -192.5t-198 -69.5t-198 69.5t-113 192.5l92 25q28 -89 85 -138t134 -49z" />
    <glyph glyph-name="abreve" unicode="&#x103;" horiz-adv-x="1103" 
d="M86 315q0 149 111.5 244.5t296.5 95.5q192 0 346 -118v155q0 140 -71 209.5t-232 69.5q-170 0 -312 -115l-78 84q175 145 404 145q197 0 304.5 -94t107.5 -270v-721h-123v117q-149 -142 -346 -142q-185 0 -296.5 95.5t-111.5 244.5zM508 541q-135 0 -215 -59t-80 -167
q0 -107 80 -166t215 -59q189 0 332 137v193q-142 121 -332 121zM561 1327q77 0 134 49t85 137l92 -24q-33 -123 -113 -192.5t-198 -69.5t-198 69.5t-113 192.5l92 24q28 -88 85 -137t134 -49z" />
    <glyph glyph-name="Aogonek" unicode="&#x104;" horiz-adv-x="1363" 
d="M1202 0h-31l-149 391h-680l-149 -391h-146l563 1434h144l563 -1434q-141 -107 -141 -225q0 -56 33 -89.5t85 -33.5q68 0 117 49l59 -74q-86 -76 -192 -76q-98 0 -157.5 60.5t-59.5 146.5q0 66 37.5 130.5t103.5 111.5zM682 1294l-299 -786h598z" />
    <glyph glyph-name="aogonek" unicode="&#x105;" horiz-adv-x="1103" 
d="M848 0h-8v117q-149 -142 -346 -142q-185 0 -296.5 95.5t-111.5 244.5t111.5 244.5t296.5 95.5q192 0 346 -118v155q0 140 -71 209.5t-232 69.5q-170 0 -312 -115l-78 84q175 145 404 145q197 0 304.5 -94t107.5 -270v-721q-142 -108 -142 -225q0 -56 33.5 -89.5
t85.5 -33.5q68 0 117 49l59 -74q-86 -76 -192 -76q-98 0 -157.5 60.5t-59.5 146.5q0 66 37.5 130.5t103.5 111.5zM508 541q-135 0 -215 -59t-80 -167q0 -107 80 -166t215 -59q189 0 332 137v193q-142 121 -332 121z" />
    <glyph glyph-name="Cacute" unicode="&#x106;" horiz-adv-x="1392" 
d="M98 717q0 216 80.5 384t229.5 262.5t344 94.5q185 0 326.5 -76t228.5 -213l-109 -67q-85 122 -192 177.5t-250 55.5q-232 0 -377.5 -166.5t-145.5 -451.5t145.5 -452t377.5 -167q142 0 249.5 56t192.5 178l109 -68q-87 -137 -228.5 -213t-326.5 -76q-194 0 -343.5 94.5
t-230 263t-80.5 384.5zM910 1910l98 -81l-305 -283l-74 63z" />
    <glyph glyph-name="cacute" unicode="&#x107;" horiz-adv-x="1093" 
d="M88 530q0 246 138.5 400.5t361.5 154.5q144 0 254.5 -61.5t179.5 -173.5l-98 -59q-63 91 -141.5 135.5t-186.5 44.5q-173 0 -277 -119t-104 -322t104 -321.5t277 -118.5q108 0 186.5 44.5t141.5 135.5l98 -59q-69 -113 -179.5 -174.5t-254.5 -61.5q-223 0 -361.5 154.5
t-138.5 400.5zM709 1554l98 -81l-305 -283l-74 63z" />
    <glyph glyph-name="Ccircumflex" unicode="&#x108;" horiz-adv-x="1392" 
d="M98 717q0 216 80.5 384t229.5 262.5t344 94.5q185 0 326.5 -76t228.5 -213l-109 -67q-85 122 -192 177.5t-250 55.5q-232 0 -377.5 -166.5t-145.5 -451.5t145.5 -452t377.5 -167q142 0 249.5 56t192.5 178l109 -68q-87 -137 -228.5 -213t-326.5 -76q-194 0 -343.5 94.5
t-230 263t-80.5 384.5zM721 1892h90l274 -297l-72 -61l-247 241l-248 -241l-72 61z" />
    <glyph glyph-name="ccircumflex" unicode="&#x109;" horiz-adv-x="1093" 
d="M88 530q0 246 138.5 400.5t361.5 154.5q144 0 254.5 -61.5t179.5 -173.5l-98 -59q-63 91 -141.5 135.5t-186.5 44.5q-173 0 -277 -119t-104 -322t104 -321.5t277 -118.5q108 0 186.5 44.5t141.5 135.5l98 -59q-69 -113 -179.5 -174.5t-254.5 -61.5q-223 0 -361.5 154.5
t-138.5 400.5zM541 1536h90l274 -297l-72 -61l-247 241l-248 -241l-72 61z" />
    <glyph glyph-name="Cdotaccent" unicode="&#x10a;" horiz-adv-x="1392" 
d="M98 717q0 216 80.5 384t229.5 262.5t344 94.5q185 0 326.5 -76t228.5 -213l-109 -67q-85 122 -192 177.5t-250 55.5q-232 0 -377.5 -166.5t-145.5 -451.5t145.5 -452t377.5 -167q142 0 249.5 56t192.5 178l109 -68q-87 -137 -228.5 -213t-326.5 -76q-194 0 -343.5 94.5
t-230 263t-80.5 384.5zM651 1726q0 37 27.5 65t64.5 28t65 -28t28 -65t-28 -64.5t-65 -27.5t-64.5 27.5t-27.5 64.5z" />
    <glyph glyph-name="cdotaccent" unicode="&#x10b;" horiz-adv-x="1093" 
d="M88 530q0 246 138.5 400.5t361.5 154.5q144 0 254.5 -61.5t179.5 -173.5l-98 -59q-63 91 -141.5 135.5t-186.5 44.5q-173 0 -277 -119t-104 -322t104 -321.5t277 -118.5q108 0 186.5 44.5t141.5 135.5l98 -59q-69 -113 -179.5 -174.5t-254.5 -61.5q-223 0 -361.5 154.5
t-138.5 400.5zM489 1370q0 37 28 64.5t65 27.5t64.5 -27.5t27.5 -64.5t-27.5 -64.5t-64.5 -27.5t-65 27.5t-28 64.5z" />
    <glyph glyph-name="Ccaron" unicode="&#x10c;" horiz-adv-x="1392" 
d="M98 717q0 216 80.5 384t229.5 262.5t344 94.5q185 0 326.5 -76t228.5 -213l-109 -67q-85 122 -192 177.5t-250 55.5q-232 0 -377.5 -166.5t-145.5 -451.5t145.5 -452t377.5 -167q142 0 249.5 56t192.5 178l109 -68q-87 -137 -228.5 -213t-326.5 -76q-194 0 -343.5 94.5
t-230 263t-80.5 384.5zM801 1561h-90l-275 297l72 61l248 -242l248 242l71 -61z" />
    <glyph glyph-name="ccaron" unicode="&#x10d;" horiz-adv-x="1093" 
d="M88 530q0 246 138.5 400.5t361.5 154.5q144 0 254.5 -61.5t179.5 -173.5l-98 -59q-63 91 -141.5 135.5t-186.5 44.5q-173 0 -277 -119t-104 -322t104 -321.5t277 -118.5q108 0 186.5 44.5t141.5 135.5l98 -59q-69 -113 -179.5 -174.5t-254.5 -61.5q-223 0 -361.5 154.5
t-138.5 400.5zM645 1204h-90l-274 297l71 62l248 -242l248 242l72 -62z" />
    <glyph glyph-name="Dcaron" unicode="&#x10e;" horiz-adv-x="1378" 
d="M301 119h303q254 0 397.5 158t143.5 440q0 280 -144 439t-397 159h-303v-1196zM616 0h-446v1434h446q309 0 486.5 -193t177.5 -524q0 -334 -177 -525.5t-487 -191.5zM639 1560h-90l-275 297l72 62l248 -242l247 242l72 -62z" />
    <glyph glyph-name="dcaron" unicode="&#x10f;" horiz-adv-x="1366" 
d="M907 123v-123h123v1495h-123v-557q-161 147 -354 147q-218 0 -336.5 -147.5t-118.5 -407.5t118.5 -407.5t336.5 -147.5q192 0 354 148zM225 530q0 214 87 327.5t263 113.5q87 0 178.5 -45.5t153.5 -114.5v-561q-62 -69 -153.5 -114.5t-178.5 -45.5q-176 0 -263 113
t-87 327zM1266 1513l120 -38l-178 -463l-90 24z" />
    <glyph glyph-name="Dcroat" unicode="&#x110;" horiz-adv-x="1392" 
d="M631 0h-447v662h-164v108h164v664h447q309 0 486 -193t177 -524q0 -334 -176.5 -525.5t-486.5 -191.5zM315 119h303q254 0 397.5 158t143.5 440q0 280 -144 439t-397 159h-303v-545h361v-108h-361v-543z" />
    <glyph glyph-name="dcroat" unicode="&#x111;" horiz-adv-x="1179" 
d="M907 0v123q-162 -148 -354 -148q-218 0 -336.5 147.5t-118.5 407.5t118.5 407.5t336.5 147.5q193 0 354 -147v293h-428v104h428v160h123v-160h133v-104h-133v-1231h-123zM225 530q0 -214 87 -327t263 -113q87 0 178.5 45.5t153.5 114.5v561q-62 69 -153.5 114.5
t-178.5 45.5q-176 0 -263 -113.5t-87 -327.5z" />
    <glyph glyph-name="Emacron" unicode="&#x112;" horiz-adv-x="1148" 
d="M170 0v1434h872v-119h-741v-514h666v-119h-666v-563h760v-119h-891zM319 1671v111h586v-111h-586z" />
    <glyph glyph-name="emacron" unicode="&#x113;" horiz-adv-x="1148" 
d="M614 -25q-158 0 -279 76t-184 202t-63 279q0 240 138.5 396.5t355.5 156.5q213 0 350 -154t137 -396q0 -42 -2 -56h-848q12 -173 116.5 -281t272.5 -108q191 0 316 152l94 -68q-73 -95 -176.5 -147t-227.5 -52zM219 590h721q-7 171 -109 276t-251 105t-251.5 -105
t-109.5 -276zM285 1315v110h585v-110h-585z" />
    <glyph glyph-name="Ebreve" unicode="&#x114;" horiz-adv-x="1148" 
d="M170 0v1434h872v-119h-741v-514h666v-119h-666v-563h760v-119h-891zM610 1679q77 0 134 49t85 138l93 -25q-33 -123 -113.5 -192.5t-198.5 -69.5t-198 69.5t-113 192.5l92 25q28 -89 85 -138t134 -49z" />
    <glyph glyph-name="ebreve" unicode="&#x115;" horiz-adv-x="1148" 
d="M614 -25q-158 0 -279 76t-184 202t-63 279q0 240 138.5 396.5t355.5 156.5q213 0 350 -154t137 -396q0 -42 -2 -56h-848q12 -173 116.5 -281t272.5 -108q191 0 316 152l94 -68q-73 -95 -176.5 -147t-227.5 -52zM219 590h721q-7 171 -109 276t-251 105t-251.5 -105
t-109.5 -276zM573 1327q78 0 135 49t85 137l92 -24q-33 -123 -113.5 -192.5t-198.5 -69.5t-198 69.5t-113 192.5l92 24q28 -88 85 -137t134 -49z" />
    <glyph glyph-name="Edotaccent" unicode="&#x116;" horiz-adv-x="1148" 
d="M170 0v1434h872v-119h-741v-514h666v-119h-666v-563h760v-119h-891zM524 1726q0 37 27.5 65t64.5 28t65 -28t28 -65t-28 -64.5t-65 -27.5t-64.5 27.5t-27.5 64.5z" />
    <glyph glyph-name="edotaccent" unicode="&#x117;" horiz-adv-x="1148" 
d="M614 -25q-158 0 -279 76t-184 202t-63 279q0 240 138.5 396.5t355.5 156.5q213 0 350 -154t137 -396q0 -42 -2 -56h-848q12 -173 116.5 -281t272.5 -108q191 0 316 152l94 -68q-73 -95 -176.5 -147t-227.5 -52zM219 590h721q-7 171 -109 276t-251 105t-251.5 -105
t-109.5 -276zM483 1370q0 37 27.5 64.5t64.5 27.5t65 -27.5t28 -64.5t-28 -64.5t-65 -27.5t-64.5 27.5t-27.5 64.5z" />
    <glyph glyph-name="Eogonek" unicode="&#x118;" horiz-adv-x="1148" 
d="M170 0v1434h872v-119h-741v-514h666v-119h-666v-563h760v-119h-125q-141 -107 -141 -225q0 -56 33 -89.5t85 -33.5q68 0 117 49l60 -74q-86 -76 -193 -76q-98 0 -157.5 60.5t-59.5 146.5q0 66 37.5 130.5t103.5 111.5h-651z" />
    <glyph glyph-name="eogonek" unicode="&#x119;" horiz-adv-x="1148" 
d="M1018 174q-127 -162 -318 -192q-116 -96 -116 -207q0 -56 33 -89.5t85 -33.5q68 0 117 49l60 -74q-86 -76 -193 -76q-98 0 -157.5 60.5t-59.5 146.5q0 122 111 219q-222 12 -357 170t-135 385q0 240 138.5 396.5t355.5 156.5q213 0 350 -154t137 -396q0 -42 -2 -56h-848
q12 -173 116.5 -281t272.5 -108q191 0 316 152zM219 590h721q-7 171 -109 276t-251 105t-251.5 -105t-109.5 -276z" />
    <glyph glyph-name="Ecaron" unicode="&#x11a;" horiz-adv-x="1148" 
d="M170 0v1434h872v-119h-741v-514h666v-119h-666v-563h760v-119h-891zM660 1560h-90l-275 297l72 62l248 -242l247 242l72 -62z" />
    <glyph glyph-name="ecaron" unicode="&#x11b;" horiz-adv-x="1148" 
d="M614 -25q-158 0 -279 76t-184 202t-63 279q0 240 138.5 396.5t355.5 156.5q213 0 350 -154t137 -396q0 -42 -2 -56h-848q12 -173 116.5 -281t272.5 -108q191 0 316 152l94 -68q-73 -95 -176.5 -147t-227.5 -52zM219 590h721q-7 171 -109 276t-251 105t-251.5 -105
t-109.5 -276zM627 1204h-90l-275 297l72 62l248 -242l247 242l72 -62z" />
    <glyph glyph-name="Gcircumflex" unicode="&#x11c;" horiz-adv-x="1427" 
d="M98 717q0 215 80.5 383.5t227 263t333.5 94.5q372 0 559 -282l-108 -68q-83 119 -189.5 173t-257.5 54q-221 0 -365.5 -167.5t-144.5 -450.5q0 -280 149.5 -449.5t395.5 -169.5q121 0 228.5 42t167.5 118v360h-390v119h521v-528q-88 -112 -228.5 -173t-300.5 -61
q-153 0 -281 57.5t-214.5 157t-134.5 235.5t-48 292zM690 1892h90l275 -297l-72 -61l-248 242l-248 -242l-71 61z" />
    <glyph glyph-name="gcircumflex" unicode="&#x11d;" horiz-adv-x="1179" 
d="M1030 1061v-1041q0 -230 -114 -354.5t-326 -124.5q-278 0 -445 213l97 68q141 -170 342 -170q152 0 237.5 92t85.5 260v119q-162 -148 -354 -148q-218 0 -336.5 147.5t-118.5 407.5t118.5 407.5t336.5 147.5q193 0 354 -147v123h123zM225 530q0 -214 87 -327t263 -113
q87 0 178.5 45.5t153.5 114.5v561q-62 69 -153.5 114.5t-178.5 45.5q-176 0 -263 -113.5t-87 -327.5zM535 1536h90l274 -297l-72 -61l-247 241l-248 -241l-72 61z" />
    <glyph glyph-name="Gbreve" unicode="&#x11e;" horiz-adv-x="1427" 
d="M98 717q0 215 80.5 383.5t227 263t333.5 94.5q372 0 559 -282l-108 -68q-83 119 -189.5 173t-257.5 54q-221 0 -365.5 -167.5t-144.5 -450.5q0 -280 149.5 -449.5t395.5 -169.5q121 0 228.5 42t167.5 118v360h-390v119h521v-528q-88 -112 -228.5 -173t-300.5 -61
q-153 0 -281 57.5t-214.5 157t-134.5 235.5t-48 292zM740 1679q77 0 134 49t85 138l92 -25q-33 -123 -113 -192.5t-198 -69.5t-198.5 69.5t-113.5 192.5l92 25q28 -88 85.5 -137.5t134.5 -49.5z" />
    <glyph glyph-name="gbreve" unicode="&#x11f;" horiz-adv-x="1179" 
d="M1030 1061v-1041q0 -230 -114 -354.5t-326 -124.5q-278 0 -445 213l97 68q141 -170 342 -170q152 0 237.5 92t85.5 260v119q-162 -148 -354 -148q-218 0 -336.5 147.5t-118.5 407.5t118.5 407.5t336.5 147.5q193 0 354 -147v123h123zM225 530q0 -214 87 -327t263 -113
q87 0 178.5 45.5t153.5 114.5v561q-62 69 -153.5 114.5t-178.5 45.5q-176 0 -263 -113.5t-87 -327.5zM584 1327q77 0 134 49t85 138l92 -25q-33 -123 -113 -192.5t-198 -69.5t-198.5 69.5t-113.5 192.5l92 25q28 -88 85.5 -137.5t134.5 -49.5z" />
    <glyph glyph-name="Gdotaccent" unicode="&#x120;" horiz-adv-x="1427" 
d="M98 717q0 215 80.5 383.5t227 263t333.5 94.5q372 0 559 -282l-108 -68q-83 119 -189.5 173t-257.5 54q-221 0 -365.5 -167.5t-144.5 -450.5q0 -280 149.5 -449.5t395.5 -169.5q121 0 228.5 42t167.5 118v360h-390v119h521v-528q-88 -112 -228.5 -173t-300.5 -61
q-153 0 -281 57.5t-214.5 157t-134.5 235.5t-48 292zM647 1726q0 37 27.5 65t64.5 28t64.5 -28t27.5 -65t-27.5 -64.5t-64.5 -27.5t-64.5 27.5t-27.5 64.5z" />
    <glyph glyph-name="gdotaccent" unicode="&#x121;" horiz-adv-x="1179" 
d="M1030 1061v-1041q0 -230 -114 -354.5t-326 -124.5q-278 0 -445 213l97 68q141 -170 342 -170q152 0 237.5 92t85.5 260v119q-162 -148 -354 -148q-218 0 -336.5 147.5t-118.5 407.5t118.5 407.5t336.5 147.5q193 0 354 -147v123h123zM225 530q0 -214 87 -327t263 -113
q87 0 178.5 45.5t153.5 114.5v561q-62 69 -153.5 114.5t-178.5 45.5q-176 0 -263 -113.5t-87 -327.5zM485 1370q0 37 28 64.5t65 27.5t64.5 -27.5t27.5 -64.5t-27.5 -64.5t-64.5 -27.5t-65 27.5t-28 64.5z" />
    <glyph glyph-name="Gcommaaccent" unicode="&#x122;" horiz-adv-x="1427" 
d="M98 717q0 215 80.5 383.5t227 263t333.5 94.5q372 0 559 -282l-108 -68q-83 119 -189.5 173t-257.5 54q-221 0 -365.5 -167.5t-144.5 -450.5q0 -280 149.5 -449.5t395.5 -169.5q121 0 228.5 42t167.5 118v360h-390v119h521v-528q-88 -112 -228.5 -173t-300.5 -61
q-153 0 -281 57.5t-214.5 157t-134.5 235.5t-48 292zM645 -494l123 396l113 -39l-146 -387z" />
    <glyph glyph-name="gcommaaccent" unicode="&#x123;" horiz-adv-x="1179" 
d="M1030 1061v-1041q0 -230 -114 -354.5t-326 -124.5q-278 0 -445 213l97 68q141 -170 342 -170q152 0 237.5 92t85.5 260v119q-162 -148 -354 -148q-218 0 -336.5 147.5t-118.5 407.5t118.5 407.5t336.5 147.5q193 0 354 -147v123h123zM225 530q0 -214 87 -327t263 -113
q87 0 178.5 45.5t153.5 114.5v561q-62 69 -153.5 114.5t-178.5 45.5q-176 0 -263 -113.5t-87 -327.5zM725 1591l-123 -395l-113 39l146 387z" />
    <glyph glyph-name="Hcircumflex" unicode="&#x124;" horiz-adv-x="1415" 
d="M170 0v1434h131v-611h813v611h131v-1434h-131v705h-813v-705h-131zM662 1892h90l274 -297l-72 -61l-247 241l-248 -241l-72 61z" />
    <glyph glyph-name="hcircumflex" unicode="&#x125;" horiz-adv-x="1177" 
d="M664 1085q175 0 273.5 -100t98.5 -289v-696h-123v666q0 154 -67.5 229.5t-208.5 75.5q-98 0 -199.5 -55t-165.5 -130v-786h-122v1495h122v-580q177 170 392 170zM164 1892h90l274 -297l-72 -61l-247 241l-248 -241l-72 61z" />
    <glyph glyph-name="Hbar" unicode="&#x126;" horiz-adv-x="1415" 
d="M170 0v1110h-129v109h129v215h131v-215h813v215h131v-215h129v-109h-129v-1110h-131v705h-813v-705h-131zM301 823h813v287h-813v-287z" />
    <glyph glyph-name="hbar" unicode="&#x127;" horiz-adv-x="1179" 
d="M666 1085q175 0 273.5 -100t98.5 -289v-696h-123v666q0 154 -67.5 229.5t-208.5 75.5q-98 0 -199.5 -55t-165.5 -130v-786h-122v1233h-136v102h136v160h122v-160h426v-102h-426v-318q177 170 392 170z" />
    <glyph glyph-name="Itilde" unicode="&#x128;" horiz-adv-x="491" 
d="M180 1434h131v-1434h-131v1434zM221 1683q-59 56 -112 56q-68 0 -99 -107l-94 17q23 93 73.5 141.5t121.5 48.5q86 0 159 -67q59 -56 113 -56q67 0 98 107l94 -17q-23 -93 -73 -141.5t-121 -48.5q-87 0 -160 67z" />
    <glyph glyph-name="itilde" unicode="&#x129;" horiz-adv-x="450" 
d="M164 0v1061h123v-1061h-123zM201 1327q-58 55 -113 55q-68 0 -98 -106l-94 16q23 93 73 142t121 49q86 0 160 -68q58 -55 113 -55q68 0 98 106l94 -16q-23 -93 -73 -141.5t-121 -48.5q-87 0 -160 67z" />
    <glyph glyph-name="Imacron" unicode="&#x12a;" horiz-adv-x="491" 
d="M180 1434h131v-1434h-131v1434zM-45 1671v110h585v-110h-585z" />
    <glyph glyph-name="imacron" unicode="&#x12b;" horiz-adv-x="450" 
d="M164 0v1061h123v-1061h-123zM-68 1315v110h586v-110h-586z" />
    <glyph glyph-name="Ibreve" unicode="&#x12c;" horiz-adv-x="491" 
d="M180 1434h131v-1434h-131v1434zM246 1679q77 0 134 49t85 138l92 -25q-33 -123 -113 -192.5t-198 -69.5t-198.5 69.5t-113.5 192.5l93 25q28 -89 85 -138t134 -49z" />
    <glyph glyph-name="ibreve" unicode="&#x12d;" horiz-adv-x="450" 
d="M164 0v1061h123v-1061h-123zM225 1327q77 0 134 49t85 137l93 -24q-33 -123 -113.5 -192.5t-198.5 -69.5t-198 69.5t-113 192.5l92 24q28 -88 85 -137t134 -49z" />
    <glyph glyph-name="Iogonek" unicode="&#x12e;" horiz-adv-x="491" 
d="M197 0h-17v1434h131v-1434q-141 -107 -141 -225q0 -56 33.5 -89.5t85.5 -33.5q68 0 117 49l59 -74q-86 -76 -193 -76q-98 0 -157.5 60.5t-59.5 146.5q0 66 38 130.5t104 111.5z" />
    <glyph glyph-name="iogonek" unicode="&#x12f;" horiz-adv-x="450" 
d="M164 0v1061h123v-1061q-142 -108 -142 -225q0 -56 33.5 -89.5t85.5 -33.5q68 0 117 49l59 -74q-86 -76 -192 -76q-98 0 -157.5 60.5t-59.5 146.5q0 66 37.5 130.5t103.5 111.5h-8zM131 1391q0 38 28 66t66 28t66 -28t28 -66t-28 -66.5t-66 -28.5t-66 28.5t-28 66.5z" />
    <glyph glyph-name="Idotaccent" unicode="&#x130;" horiz-adv-x="491" 
d="M180 1434h131v-1434h-131v1434zM153 1726q0 37 28 64.5t65 27.5t64.5 -27.5t27.5 -64.5t-27.5 -64.5t-64.5 -27.5t-65 27.5t-28 64.5z" />
    <glyph glyph-name="dotlessi" unicode="&#x131;" horiz-adv-x="450" 
d="M164 0v1061h123v-1061h-123z" />
    <glyph glyph-name="IJ" unicode="&#x132;" horiz-adv-x="1624" 
d="M180 1434h131v-1434h-131v1434zM1012 98q146 0 228.5 99.5t82.5 277.5v959h131v-959q0 -237 -117 -368.5t-319 -131.5q-153 0 -270.5 69.5t-190.5 207.5l107 63q123 -217 348 -217z" />
    <glyph glyph-name="ij" unicode="&#x133;" horiz-adv-x="901" 
d="M164 0v1061h123v-1061h-123zM131 1391q0 38 28 66t66 28t66 -28t28 -66t-28 -66.5t-66 -28.5t-66 28.5t-28 66.5zM614 -141v1202h123v-1213q0 -165 -78.5 -236t-236.5 -71q-36 0 -76 4v115q46 -4 82 -4q98 0 142 46t44 157zM582 1391q0 38 28 66t66 28t66 -28t28 -66
t-28 -66.5t-66 -28.5t-66 28.5t-28 66.5z" />
    <glyph glyph-name="Jcircumflex" unicode="&#x134;" horiz-adv-x="1132" 
d="M520 98q146 0 228.5 99.5t82.5 277.5v959h132v-959q0 -237 -117.5 -368.5t-319.5 -131.5q-153 0 -270 69.5t-190 207.5l106 63q123 -217 348 -217zM852 1892h90l274 -297l-72 -61l-247 241l-248 -241l-72 61z" />
    <glyph glyph-name="jcircumflex" unicode="&#x135;" horiz-adv-x="450" 
d="M164 -141v1202h123v-1213q0 -165 -79 -236t-237 -71q-35 0 -75 4v115q46 -4 81 -4q98 0 142.5 46t44.5 157zM180 1536h90l275 -297l-72 -61l-248 241l-248 -241l-71 61z" />
    <glyph glyph-name="Kcommaaccent" unicode="&#x136;" horiz-adv-x="1236" 
d="M301 1434v-869l686 869h158l-463 -586l526 -848h-157l-453 745l-297 -376v-369h-131v1434h131zM518 -494l123 396l113 -39l-146 -387z" />
    <glyph glyph-name="kcommaaccent" unicode="&#x137;" horiz-adv-x="1034" 
d="M877 0l-369 551l-236 -268v-283h-122v1495h122v-1049l529 615h157l-370 -422l432 -639h-143zM412 -494l123 396l112 -39l-145 -387z" />
    <glyph glyph-name="kgreenlandic" unicode="&#x138;" horiz-adv-x="1034" 
d="M877 0l-369 551l-236 -268v-283h-122v1061h122v-615l529 615h157l-370 -422l432 -639h-143z" />
    <glyph glyph-name="Lacute" unicode="&#x139;" horiz-adv-x="1079" 
d="M170 0v1434h131v-1315h737v-119h-868zM457 1910l98 -81l-305 -283l-74 63z" />
    <glyph glyph-name="lacute" unicode="&#x13a;" horiz-adv-x="450" 
d="M164 0v1495h123v-1495h-123zM449 1910l98 -81l-305 -283l-74 63z" />
    <glyph glyph-name="Lcommaaccent" unicode="&#x13b;" horiz-adv-x="1079" 
d="M170 0v1434h131v-1315h737v-119h-868zM465 -494l123 396l112 -39l-145 -387z" />
    <glyph glyph-name="lcommaaccent" unicode="&#x13c;" horiz-adv-x="450" 
d="M164 0v1495h123v-1495h-123zM57 -494l123 396l113 -39l-146 -387z" />
    <glyph glyph-name="Lcaron" unicode="&#x13d;" horiz-adv-x="1079" 
d="M170 0v1434h131v-1315h737v-119h-868zM811 1513l121 -38l-178 -463l-90 24z" />
    <glyph glyph-name="lcaron" unicode="&#x13e;" horiz-adv-x="622" 
d="M164 0v1495h123v-1495h-123zM522 1513l121 -38l-178 -463l-90 24z" />
    <glyph glyph-name="Ldot" unicode="&#x13f;" horiz-adv-x="1079" 
d="M170 0v1434h131v-1315h737v-119h-868zM643 776q0 37 28 64.5t65 27.5t64.5 -27.5t27.5 -64.5t-27.5 -64.5t-64.5 -27.5t-65 27.5t-28 64.5z" />
    <glyph glyph-name="ldot" unicode="&#x140;" horiz-adv-x="806" 
d="M164 0v1495h123v-1495h-123zM551 776q0 37 27.5 64.5t64.5 27.5t64.5 -27.5t27.5 -64.5t-27.5 -64.5t-64.5 -27.5t-64.5 27.5t-27.5 64.5z" />
    <glyph glyph-name="Lslash" unicode="&#x141;" horiz-adv-x="1107" 
d="M-20 551l223 149v734h131v-648l565 379l57 -96l-622 -416v-534h737v-119h-868v565l-166 -110z" />
    <glyph glyph-name="lslash" unicode="&#x142;" horiz-adv-x="735" 
d="M-20 590l327 227v678h123v-592l262 182l64 -90l-326 -227v-768h-123v684l-268 -186z" />
    <glyph glyph-name="Nacute" unicode="&#x143;" horiz-adv-x="1427" 
d="M170 0v1434h133l823 -1217v1217h131v-1434h-131l-825 1217v-1217h-131zM928 1910l98 -81l-305 -283l-74 63z" />
    <glyph glyph-name="nacute" unicode="&#x144;" horiz-adv-x="1177" 
d="M664 1085q175 0 273.5 -100t98.5 -289v-696h-123v666q0 154 -67.5 229.5t-208.5 75.5q-98 0 -199.5 -55t-165.5 -130v-786h-122v1061h122v-146q177 170 392 170zM758 1554l98 -81l-305 -283l-74 63z" />
    <glyph glyph-name="Ncommaaccent" unicode="&#x145;" horiz-adv-x="1427" 
d="M170 0v1434h133l823 -1217v1217h131v-1434h-131l-825 1217v-1217h-131zM600 -494l123 396l113 -39l-146 -387z" />
    <glyph glyph-name="ncommaaccent" unicode="&#x146;" horiz-adv-x="1177" 
d="M664 1085q175 0 273.5 -100t98.5 -289v-696h-123v666q0 154 -67.5 229.5t-208.5 75.5q-98 0 -199.5 -55t-165.5 -130v-786h-122v1061h122v-146q177 170 392 170zM446 -494l123 396l113 -39l-145 -387z" />
    <glyph glyph-name="Ncaron" unicode="&#x147;" horiz-adv-x="1427" 
d="M170 0v1434h133l823 -1217v1217h131v-1434h-131l-825 1217v-1217h-131zM758 1561h-90l-275 297l72 61l248 -242l248 242l71 -61z" />
    <glyph glyph-name="ncaron" unicode="&#x148;" horiz-adv-x="1177" 
d="M664 1085q175 0 273.5 -100t98.5 -289v-696h-123v666q0 154 -67.5 229.5t-208.5 75.5q-98 0 -199.5 -55t-165.5 -130v-786h-122v1061h122v-146q177 170 392 170zM635 1204h-90l-275 297l72 62l248 -242l248 242l71 -62z" />
    <glyph glyph-name="napostrophe" unicode="&#x149;" horiz-adv-x="1255" 
d="M741 1085q175 0 274 -100t99 -289v-696h-123v666q0 154 -67.5 229.5t-208.5 75.5q-98 0 -199.5 -55t-165.5 -130v-786h-123v1061h123v-146q177 170 391 170zM127 1513l121 -38l-178 -463l-90 24z" />
    <glyph glyph-name="Eng" unicode="&#x14a;" horiz-adv-x="1427" 
d="M170 0v1434h133l823 -1217v1217h131v-1586q0 -165 -79.5 -236t-237.5 -71q-36 0 -76 4v121q47 -6 84 -6q96 0 137 43.5t41 155.5v141l-825 1217v-1217h-131z" />
    <glyph glyph-name="eng" unicode="&#x14b;" horiz-adv-x="1177" 
d="M664 1085q175 0 273.5 -100t98.5 -289v-848q0 -163 -80.5 -235t-238.5 -72q-38 0 -74 4v117q43 -6 82 -6q98 0 143 46t45 157v807q0 154 -67.5 229.5t-208.5 75.5q-98 0 -199.5 -55t-165.5 -130v-786h-122v1061h122v-146q177 170 392 170z" />
    <glyph glyph-name="Omacron" unicode="&#x14c;" horiz-adv-x="1449" 
d="M1352 717q0 -157 -43 -292.5t-122 -235.5t-198 -157t-264 -57t-264 57t-198 157t-122 235.5t-43 292.5t43 292t122 235t198 157t264 57t264 -57t198 -157t122 -235t43 -292zM233 717q0 -280 133 -449.5t359 -169.5t359 169.5t133 449.5t-133 449t-359 169t-359 -169
t-133 -449zM432 1671v110h585v-110h-585z" />
    <glyph glyph-name="omacron" unicode="&#x14d;" horiz-adv-x="1179" 
d="M965 530q0 201 -102.5 321t-272.5 120t-272.5 -120t-102.5 -321t102 -320.5t273 -119.5t273 119.5t102 320.5zM1092 530q0 -243 -139 -399t-363 -156t-363 156t-139 399t139 399t363 156t363 -156t139 -399zM299 1315v110h585v-110h-585z" />
    <glyph glyph-name="Obreve" unicode="&#x14e;" horiz-adv-x="1449" 
d="M1352 717q0 -157 -43 -292.5t-122 -235.5t-198 -157t-264 -57t-264 57t-198 157t-122 235.5t-43 292.5t43 292t122 235t198 157t264 57t264 -57t198 -157t122 -235t43 -292zM233 717q0 -280 133 -449.5t359 -169.5t359 169.5t133 449.5t-133 449t-359 169t-359 -169
t-133 -449zM725 1679q77 0 134 49t85 138l92 -25q-33 -123 -113 -192.5t-198 -69.5t-198 69.5t-113 192.5l92 25q28 -89 85 -138t134 -49z" />
    <glyph glyph-name="obreve" unicode="&#x14f;" horiz-adv-x="1179" 
d="M965 530q0 -201 -102 -320.5t-273 -119.5t-273 119.5t-102 320.5t102.5 321t272.5 120t272.5 -120t102.5 -321zM1092 530q0 243 -139 399t-363 156t-363 -156t-139 -399t139 -399t363 -156t363 156t139 399zM590 1327q77 0 134 49t85 137l92 -24q-33 -123 -113 -192.5
t-198 -69.5t-198 69.5t-113 192.5l92 24q28 -88 85 -137t134 -49z" />
    <glyph glyph-name="Ohungarumlaut" unicode="&#x150;" horiz-adv-x="1449" 
d="M1352 717q0 -157 -43 -292.5t-122 -235.5t-198 -157t-264 -57t-264 57t-198 157t-122 235.5t-43 292.5t43 292t122 235t198 157t264 57t264 -57t198 -157t122 -235t43 -292zM233 717q0 -280 133 -449.5t359 -169.5t359 169.5t133 449.5t-133 449t-359 169t-359 -169
t-133 -449zM719 1896l96 -77l-256 -285l-84 59zM1059 1896l98 -77l-301 -285l-82 59z" />
    <glyph glyph-name="ohungarumlaut" unicode="&#x151;" horiz-adv-x="1179" 
d="M965 530q0 -201 -102 -320.5t-273 -119.5t-273 119.5t-102 320.5t102.5 321t272.5 120t272.5 -120t102.5 -321zM1092 530q0 243 -139 399t-363 156t-363 -156t-139 -399t139 -399t363 -156t363 156t139 399zM549 1540l96 -78l-256 -284l-84 59zM889 1540l98 -78
l-301 -284l-82 59z" />
    <glyph glyph-name="OE" unicode="&#x152;" horiz-adv-x="1697" 
d="M1610 0h-830q-309 0 -495.5 193.5t-186.5 523.5q0 328 186.5 522.5t495.5 194.5h811v-119h-628v-514h553v-119h-553v-563h647v-119zM831 119v1196h-51q-245 0 -396 -156.5t-151 -441.5q0 -144 41 -258.5t114 -188.5t172.5 -112.5t219.5 -38.5h51z" />
    <glyph glyph-name="oe" unicode="&#x153;" horiz-adv-x="2033" 
d="M1491 -25q-158 0 -276.5 74t-184.5 207q-60 -135 -174 -208t-266 -73q-224 0 -363 156t-139 399t139 399t363 156q150 0 263 -71.5t175 -204.5q62 132 173 204t257 72q213 0 350.5 -154t137.5 -396q0 -42 -2 -56h-848q12 -173 116.5 -281t272.5 -108q190 0 315 152
l94 -68q-73 -95 -176 -147t-227 -52zM965 530q0 204 -103.5 322.5t-271.5 118.5q-170 0 -272.5 -120t-102.5 -321t102 -320.5t273 -119.5t273 119t102 321zM1096 590h721q-7 171 -109.5 276t-251.5 105t-251 -105t-109 -276z" />
    <glyph glyph-name="Racute" unicode="&#x154;" horiz-adv-x="1255" 
d="M1126 1024q0 -306 -325 -387l411 -637h-151l-399 618q-47 -2 -146 -2h-215v-616h-131v1434h444q244 0 378 -108.5t134 -301.5zM991 1024q0 142 -98.5 216.5t-290.5 74.5h-301v-580h301q192 0 290.5 74t98.5 215zM680 1910l98 -81l-305 -283l-74 63z" />
    <glyph glyph-name="racute" unicode="&#x155;" horiz-adv-x="727" 
d="M602 971q-98 0 -188 -52t-142 -133v-786h-122v1061h122v-143q63 79 153 123t196 44q23 0 69 -4v-114q-58 4 -88 4zM523 1554l98 -81l-305 -283l-74 63z" />
    <glyph glyph-name="Rcommaaccent" unicode="&#x156;" horiz-adv-x="1255" 
d="M1126 1024q0 -306 -325 -387l411 -637h-151l-399 618q-47 -2 -146 -2h-215v-616h-131v1434h444q244 0 378 -108.5t134 -301.5zM991 1024q0 142 -98.5 216.5t-290.5 74.5h-301v-580h301q192 0 290.5 74t98.5 215zM528 -494l123 396l113 -39l-146 -387z" />
    <glyph glyph-name="rcommaaccent" unicode="&#x157;" horiz-adv-x="727" 
d="M602 971q-98 0 -188 -52t-142 -133v-786h-122v1061h122v-143q63 79 153 123t196 44q23 0 69 -4v-114q-58 4 -88 4zM43 -494l123 396l113 -39l-146 -387z" />
    <glyph glyph-name="Rcaron" unicode="&#x158;" horiz-adv-x="1255" 
d="M1126 1024q0 -306 -325 -387l411 -637h-151l-399 618q-47 -2 -146 -2h-215v-616h-131v1434h444q244 0 378 -108.5t134 -301.5zM991 1024q0 142 -98.5 216.5t-290.5 74.5h-301v-580h301q192 0 290.5 74t98.5 215zM612 1561h-90l-274 297l71 61l248 -242l248 242l72 -61z
" />
    <glyph glyph-name="rcaron" unicode="&#x159;" horiz-adv-x="727" 
d="M602 971q-98 0 -188 -52t-142 -133v-786h-122v1061h122v-143q63 79 153 123t196 44q23 0 69 -4v-114q-58 4 -88 4zM434 1204h-90l-274 297l71 62l248 -242l248 242l72 -62z" />
    <glyph glyph-name="Sacute" unicode="&#x15a;" horiz-adv-x="1206" 
d="M633 98q156 0 248 73.5t92 190.5q0 129 -90 202t-314 136q-233 66 -330.5 161t-97.5 239q0 162 113.5 260t316.5 98q141 0 265.5 -55.5t220.5 -159.5l-99 -80q-169 172 -385 172q-146 0 -221.5 -61.5t-75.5 -165.5q0 -98 83.5 -168.5t256.5 -120.5q130 -37 217.5 -75.5
t152 -91t93.5 -121.5t29 -160q0 -177 -123.5 -286.5t-343.5 -109.5q-161 0 -306.5 60t-256.5 170l104 86q196 -193 451 -193zM758 1910l98 -81l-305 -283l-74 63z" />
    <glyph glyph-name="sacute" unicode="&#x15b;" horiz-adv-x="1001" 
d="M516 90q127 0 198.5 50.5t71.5 133.5q0 87 -71 140t-232 94q-201 51 -282.5 119.5t-81.5 187.5q0 122 95 196t265 74q108 0 206.5 -38t172.5 -109l-86 -82q-126 115 -293 115q-103 0 -168 -42t-65 -114q0 -69 62 -110t233 -89q200 -56 286 -131.5t86 -201.5
q0 -142 -103.5 -225t-289.5 -83q-131 0 -249.5 47.5t-207.5 139.5l91 86q74 -76 169 -117t193 -41zM637 1554l98 -81l-305 -283l-74 63z" />
    <glyph glyph-name="Scircumflex" unicode="&#x15c;" horiz-adv-x="1206" 
d="M633 98q156 0 248 73.5t92 190.5q0 129 -90 202t-314 136q-233 66 -330.5 161t-97.5 239q0 162 113.5 260t316.5 98q141 0 265.5 -55.5t220.5 -159.5l-99 -80q-169 172 -385 172q-146 0 -221.5 -61.5t-75.5 -165.5q0 -98 83.5 -168.5t256.5 -120.5q130 -37 217.5 -75.5
t152 -91t93.5 -121.5t29 -160q0 -177 -123.5 -286.5t-343.5 -109.5q-161 0 -306.5 60t-256.5 170l104 86q196 -193 451 -193zM564 1892h90l274 -297l-72 -61l-247 241l-248 -241l-72 61z" />
    <glyph glyph-name="scircumflex" unicode="&#x15d;" horiz-adv-x="1001" 
d="M516 90q127 0 198.5 50.5t71.5 133.5q0 87 -71 140t-232 94q-201 51 -282.5 119.5t-81.5 187.5q0 122 95 196t265 74q108 0 206.5 -38t172.5 -109l-86 -82q-126 115 -293 115q-103 0 -168 -42t-65 -114q0 -69 62 -110t233 -89q200 -56 286 -131.5t86 -201.5
q0 -142 -103.5 -225t-289.5 -83q-131 0 -249.5 47.5t-207.5 139.5l91 86q74 -76 169 -117t193 -41zM437 1536h90l274 -297l-72 -61l-247 241l-248 -241l-72 61z" />
    <glyph glyph-name="Scedilla" unicode="&#x15e;" horiz-adv-x="1206" 
d="M582 -391q60 0 93.5 27t33.5 71q0 57 -50 88.5t-143 34.5l-10 14l65 136q-293 25 -493 225l104 86q196 -193 451 -193q156 0 248 73.5t92 190.5q0 129 -90 202t-314 136q-233 66 -330.5 161t-97.5 239q0 162 113.5 260t316.5 98q141 0 265.5 -55.5t220.5 -159.5l-99 -80
q-169 172 -385 172q-146 0 -221.5 -61.5t-75.5 -165.5q0 -98 83.5 -168.5t256.5 -120.5q130 -37 217.5 -75.5t152 -91t93.5 -121.5t29 -160q0 -169 -113.5 -277t-316.5 -117l-39 -81q88 -17 136 -68.5t48 -124.5q0 -79 -61 -134.5t-178 -55.5q-53 0 -103 18.5t-84 50.5
l62 74q53 -47 123 -47z" />
    <glyph glyph-name="scedilla" unicode="&#x15f;" horiz-adv-x="1001" 
d="M477 -391q60 0 93.5 27t33.5 71q0 57 -49.5 88.5t-142.5 34.5l-11 14l64 133q-242 19 -402 185l91 86q74 -76 169 -117t193 -41q127 0 198.5 50.5t71.5 133.5q0 87 -71 140t-232 94q-201 51 -282.5 119.5t-81.5 187.5q0 122 95 196t265 74q108 0 206.5 -38t172.5 -109
l-86 -82q-126 115 -293 115q-103 0 -168 -42t-65 -114q0 -69 62 -110t233 -89q200 -56 286 -131.5t86 -201.5q0 -132 -88.5 -213t-251.5 -93l-38 -81q88 -17 136 -68.5t48 -124.5q0 -79 -61.5 -134.5t-178.5 -55.5q-53 0 -102.5 18.5t-83.5 50.5l61 74q53 -47 123 -47z" />
    <glyph glyph-name="Scaron" unicode="&#x160;" horiz-adv-x="1206" 
d="M633 98q156 0 248 73.5t92 190.5q0 129 -90 202t-314 136q-233 66 -330.5 161t-97.5 239q0 162 113.5 260t316.5 98q141 0 265.5 -55.5t220.5 -159.5l-99 -80q-169 172 -385 172q-146 0 -221.5 -61.5t-75.5 -165.5q0 -98 83.5 -168.5t256.5 -120.5q130 -37 217.5 -75.5
t152 -91t93.5 -121.5t29 -160q0 -177 -123.5 -286.5t-343.5 -109.5q-161 0 -306.5 60t-256.5 170l104 86q196 -193 451 -193zM645 1561h-90l-274 297l71 61l248 -242l248 242l72 -61z" />
    <glyph glyph-name="scaron" unicode="&#x161;" horiz-adv-x="1001" 
d="M516 90q127 0 198.5 50.5t71.5 133.5q0 87 -71 140t-232 94q-201 51 -282.5 119.5t-81.5 187.5q0 122 95 196t265 74q108 0 206.5 -38t172.5 -109l-86 -82q-126 115 -293 115q-103 0 -168 -42t-65 -114q0 -69 62 -110t233 -89q200 -56 286 -131.5t86 -201.5
q0 -142 -103.5 -225t-289.5 -83q-131 0 -249.5 47.5t-207.5 139.5l91 86q74 -76 169 -117t193 -41zM537 1204h-91l-274 297l72 62l248 -242l247 242l72 -62z" />
    <glyph glyph-name="Tcommaaccent" unicode="&#x162;" horiz-adv-x="1124" 
d="M498 0v1315h-461v119h1050v-119h-458v-1315h-13l-51 -104q88 -17 136.5 -68.5t48.5 -124.5q0 -79 -61.5 -134.5t-178.5 -55.5q-53 0 -102.5 18.5t-83.5 50.5l61 74q53 -47 123 -47q60 0 93.5 27t33.5 71q0 57 -50 88.5t-143 34.5l-10 14l76 156h-10z" />
    <glyph glyph-name="tcommaaccent" unicode="&#x163;" horiz-adv-x="710" 
d="M373 -391q60 0 93.5 27t33.5 71q0 57 -50 88.5t-143 34.5l-10 14l82 168q-133 70 -133 275v663h-211v111h211v317h123v-317h286v-111h-286v-655q0 -111 46.5 -158t145.5 -47q38 0 92 4v-114q-57 -5 -84 -5q-31 0 -96 9l-43 -88q88 -17 136 -68.5t48 -124.5
q0 -79 -61 -134.5t-178 -55.5q-53 0 -103 18.5t-84 50.5l62 74q53 -47 123 -47z" />
    <glyph glyph-name="Tcaron" unicode="&#x164;" horiz-adv-x="1124" 
d="M498 0v1315h-461v119h1050v-119h-458v-1315h-131zM607 1560h-90l-275 297l72 62l248 -242l247 242l72 -62z" />
    <glyph glyph-name="tcaron" unicode="&#x165;" horiz-adv-x="956" 
d="M569 -25q-159 0 -241 73.5t-82 238.5v663h-211v111h211v317h123v-317h286v-111h-286v-655q0 -111 46.5 -158t145.5 -47q38 0 92 4v-114q-57 -5 -84 -5zM856 1513l121 -38l-178 -463l-90 24z" />
    <glyph glyph-name="Tbar" unicode="&#x166;" horiz-adv-x="1124" 
d="M172 772h326v543h-461v119h1050v-119h-458v-543h325v-108h-325v-664h-131v664h-326v108z" />
    <glyph glyph-name="tbar" unicode="&#x167;" horiz-adv-x="710" 
d="M70 657h176v293h-211v111h211v317h123v-317h286v-111h-286v-293h249v-102h-249v-260q0 -111 46.5 -158t145.5 -47q38 0 92 4v-114q-57 -5 -84 -5q-159 0 -241 73.5t-82 238.5v268h-176v102z" />
    <glyph glyph-name="Utilde" unicode="&#x168;" horiz-adv-x="1449" 
d="M725 98q207 0 315.5 118t108.5 347v871h131v-879q0 -144 -41.5 -256t-116.5 -182t-175.5 -106t-221.5 -36t-221.5 36t-175.5 106t-116.5 182t-41.5 256v879h131v-871q0 -229 108.5 -347t315.5 -118zM700 1683q-58 55 -113 55q-68 0 -98 -106l-94 16q23 93 73 142t121 49
q86 0 160 -68q58 -55 113 -55q68 0 98 106l94 -16q-23 -93 -73 -141.5t-121 -48.5q-87 0 -160 67z" />
    <glyph glyph-name="utilde" unicode="&#x169;" horiz-adv-x="1167" 
d="M584 90q-147 0 -234.5 90t-87.5 264v617h-123v-627q0 -228 120 -343.5t325 -115.5t324.5 115.5t119.5 343.5v627h-123v-617q0 -174 -87 -264t-234 -90zM559 1327q-58 55 -113 55q-68 0 -98 -106l-94 16q23 93 73.5 142t121.5 49q85 0 159 -68q58 -55 113 -55q68 0 98 106
l94 -16q-23 -93 -73 -141.5t-121 -48.5q-87 0 -160 67z" />
    <glyph glyph-name="Umacron" unicode="&#x16a;" horiz-adv-x="1449" 
d="M725 98q207 0 315.5 118t108.5 347v871h131v-879q0 -144 -41.5 -256t-116.5 -182t-175.5 -106t-221.5 -36t-221.5 36t-175.5 106t-116.5 182t-41.5 256v879h131v-871q0 -229 108.5 -347t315.5 -118zM432 1671v110h585v-110h-585z" />
    <glyph glyph-name="umacron" unicode="&#x16b;" horiz-adv-x="1167" 
d="M584 90q147 0 234 90t87 264v617h123v-627q0 -228 -119.5 -343.5t-324.5 -115.5t-325 115.5t-120 343.5v627h123v-617q0 -174 87.5 -264t234.5 -90zM291 1315v110h585v-110h-585z" />
    <glyph glyph-name="Ubreve" unicode="&#x16c;" horiz-adv-x="1449" 
d="M725 98q-207 0 -315.5 118t-108.5 347v871h-131v-879q0 -144 41.5 -256t116.5 -182t175.5 -106t221.5 -36t221.5 36t175.5 106t116.5 182t41.5 256v879h-131v-871q0 -229 -108.5 -347t-315.5 -118zM725 1679q77 0 134 49t85 138l92 -25q-33 -123 -113 -192.5t-198 -69.5
t-198 69.5t-113 192.5l92 25q28 -89 85 -138t134 -49z" />
    <glyph glyph-name="ubreve" unicode="&#x16d;" horiz-adv-x="1167" 
d="M584 90q-147 0 -234.5 90t-87.5 264v617h-123v-627q0 -228 120 -343.5t325 -115.5t324.5 115.5t119.5 343.5v627h-123v-617q0 -174 -87 -264t-234 -90zM584 1327q77 0 134 49t85 137l92 -24q-33 -123 -113 -192.5t-198 -69.5t-198.5 69.5t-113.5 192.5l93 24
q28 -88 85 -137t134 -49z" />
    <glyph glyph-name="Uring" unicode="&#x16e;" horiz-adv-x="1449" 
d="M725 98q-207 0 -315.5 118t-108.5 347v871h-131v-879q0 -144 41.5 -256t116.5 -182t175.5 -106t221.5 -36t221.5 36t175.5 106t116.5 182t41.5 256v879h-131v-871q0 -229 -108.5 -347t-315.5 -118zM621 1726q0 -44 30 -75t74 -31t74 31t30 75q0 45 -30 76t-74 31t-74 -31
t-30 -76zM522 1726q0 83 59 141t144 58t144 -58t59 -141t-59 -140.5t-144 -57.5t-144 57.5t-59 140.5z" />
    <glyph glyph-name="uring" unicode="&#x16f;" horiz-adv-x="1167" 
d="M584 90q147 0 234 90t87 264v617h123v-627q0 -228 -119.5 -343.5t-324.5 -115.5t-325 115.5t-120 343.5v627h123v-617q0 -174 87.5 -264t234.5 -90zM479 1370q0 -44 30.5 -75t74.5 -31t74 31t30 75q0 45 -30 76t-74 31t-74.5 -31.5t-30.5 -75.5zM381 1370q0 83 59 141
t144 58t143.5 -58t58.5 -141t-58.5 -141t-143.5 -58t-144 58t-59 141z" />
    <glyph glyph-name="Uhungarumlaut" unicode="&#x170;" horiz-adv-x="1449" 
d="M725 98q-207 0 -315.5 118t-108.5 347v871h-131v-879q0 -144 41.5 -256t116.5 -182t175.5 -106t221.5 -36t221.5 36t175.5 106t116.5 182t41.5 256v879h-131v-871q0 -229 -108.5 -347t-315.5 -118zM737 1896l97 -77l-256 -285l-84 59zM1077 1896l99 -77l-302 -285l-81 59
z" />
    <glyph glyph-name="uhungarumlaut" unicode="&#x171;" horiz-adv-x="1167" 
d="M584 90q-147 0 -234.5 90t-87.5 264v617h-123v-627q0 -228 120 -343.5t325 -115.5t324.5 115.5t119.5 343.5v627h-123v-617q0 -174 -87 -264t-234 -90zM561 1540l96 -78l-256 -284l-84 59zM901 1540l98 -78l-301 -284l-82 59z" />
    <glyph glyph-name="Uogonek" unicode="&#x172;" horiz-adv-x="1449" 
d="M725 98q207 0 315.5 118t108.5 347v871h131v-879q0 -261 -129.5 -406.5t-347.5 -168.5q-115 -95 -115 -205q0 -56 33.5 -89.5t85.5 -33.5q68 0 117 49l59 -74q-86 -76 -192 -76q-98 0 -158 60.5t-60 146.5q0 122 111 219q-234 11 -374 158t-140 420v879h131v-871
q0 -229 108.5 -347t315.5 -118z" />
    <glyph glyph-name="uogonek" unicode="&#x173;" horiz-adv-x="1167" 
d="M582 90q147 0 235 90t88 264v617h123v-627q0 -195 -89 -308t-247 -140q-121 -100 -121 -211q0 -56 33.5 -89.5t85.5 -33.5q68 0 117 49l59 -74q-86 -76 -192 -76q-98 0 -157.5 60.5t-59.5 146.5q0 123 108 217q-198 5 -312 120.5t-114 338.5v627h123v-617q0 -174 87 -264
t233 -90z" />
    <glyph glyph-name="Wcircumflex" unicode="&#x174;" horiz-adv-x="2023" 
d="M594 154l338 1280h160l338 -1280l403 1280h143l-458 -1434h-175l-331 1268l-332 -1268h-174l-459 1434h143zM967 1892h90l274 -297l-72 -61l-247 241l-248 -241l-72 61z" />
    <glyph glyph-name="wcircumflex" unicode="&#x175;" horiz-adv-x="1593" 
d="M461 156l274 905h123l275 -905l284 905h139l-360 -1061h-127l-272 893l-273 -893h-127l-360 1061h139zM752 1536h90l274 -297l-72 -61l-247 241l-248 -241l-72 61z" />
    <glyph glyph-name="Ycircumflex" unicode="&#x176;" horiz-adv-x="1208" 
d="M539 0v569l-502 865h147l420 -725l420 725h147l-501 -865v-569h-131zM559 1892h90l275 -297l-72 -61l-248 242l-248 -242l-71 61z" />
    <glyph glyph-name="ycircumflex" unicode="&#x177;" horiz-adv-x="1036" 
d="M168 1061l364 -885l338 885h129l-571 -1495h-127l168 442l-432 1053h131zM473 1536h90l275 -297l-72 -61l-248 241l-248 -241l-71 61z" />
    <glyph glyph-name="Ydieresis" unicode="&#x178;" horiz-adv-x="1208" 
d="M539 0v569l-502 865h147l420 -725l420 725h147l-501 -865v-569h-131zM316 1726q0 38 27 65t65 27t65 -27t27 -65t-27 -65t-65 -27t-65 27t-27 65zM709 1726q0 38 27 65t65 27t65 -27t27 -65t-27 -65t-65 -27t-65 27t-27 65z" />
    <glyph glyph-name="Zacute" unicode="&#x179;" horiz-adv-x="1146" 
d="M68 113l831 1202h-793v119h953v-113l-832 -1202h852v-119h-1011v113zM731 1910l98 -81l-305 -283l-74 63z" />
    <glyph glyph-name="zacute" unicode="&#x17a;" horiz-adv-x="954" 
d="M57 0v102l662 852h-627v107h785v-103l-662 -852h682v-106h-840zM633 1554l98 -81l-305 -283l-74 63z" />
    <glyph glyph-name="Zdotaccent" unicode="&#x17b;" horiz-adv-x="1146" 
d="M68 113l831 1202h-793v119h953v-113l-832 -1202h852v-119h-1011v113zM473 1726q0 37 28 64.5t65 27.5t64.5 -27.5t27.5 -64.5t-27.5 -64.5t-64.5 -27.5t-65 27.5t-28 64.5z" />
    <glyph glyph-name="zdotaccent" unicode="&#x17c;" horiz-adv-x="954" 
d="M57 0v102l662 852h-627v107h785v-103l-662 -852h682v-106h-840zM376 1370q0 37 28 64.5t65 27.5t64.5 -27.5t27.5 -64.5t-27.5 -64.5t-64.5 -27.5t-65 27.5t-28 64.5z" />
    <glyph glyph-name="Zcaron" unicode="&#x17d;" horiz-adv-x="1146" 
d="M68 113l831 1202h-793v119h953v-113l-832 -1202h852v-119h-1011v113zM621 1561h-91l-274 297l72 61l247 -242l248 242l72 -61z" />
    <glyph glyph-name="zcaron" unicode="&#x17e;" horiz-adv-x="954" 
d="M57 0v102l662 852h-627v107h785v-103l-662 -852h682v-106h-840zM524 1204h-90l-274 297l71 62l248 -242l248 242l72 -62z" />
    <glyph glyph-name="longs" unicode="&#x17f;" horiz-adv-x="710" 
d="M565 1495q65 0 111 -6v-115q-52 6 -111 6q-103 0 -149.5 -45.5t-46.5 -158.5v-1176h-123v950h-211v111h211v123q0 165 78 238t241 73z" />
    <glyph glyph-name="uni0191" unicode="&#x191;" horiz-adv-x="1089" 
d="M170 1434h872v-119h-741v-541h672v-119h-672v-807q0 -164 -81 -235.5t-240 -71.5q-36 0 -76 4v121q44 -6 82 -6q98 0 141 44t43 155v1575z" />
    <glyph glyph-name="florin" unicode="&#x192;" horiz-adv-x="710" 
d="M565 1495q65 0 111 -6v-115q-52 6 -111 6q-103 0 -149.5 -45.5t-46.5 -158.5v-115h286v-111h-286v-1075q0 -165 -78.5 -238t-241.5 -73q-64 0 -110 6v115q61 -7 110 -7q103 0 150 46t47 159v1067h-211v111h211v123q0 165 78 238t241 73z" />
    <glyph glyph-name="Aringacute" unicode="&#x1fa;" horiz-adv-x="1363" 
d="M479 1520q0 83 59 140.5t144 57.5t144 -57.5t59 -140.5q0 -54 -26.5 -98.5t-72.5 -71.5l531 -1350h-146l-149 391h-680l-149 -391h-146l531 1348q-45 27 -72 72.5t-27 99.5zM682 1294l-299 -786h598zM578 1520q0 -45 30 -76t74 -31t74 31t30 76q0 44 -30 75t-74 31
t-74 -31t-30 -75zM831 2042l76 -92l-291 -183l-57 70z" />
    <glyph glyph-name="aringacute" unicode="&#x1fb;" horiz-adv-x="1103" 
d="M463 1370q0 -44 30 -75t74 -31t74.5 31t30.5 75t-30.5 75.5t-74.5 31.5t-74 -31t-30 -76zM365 1370q0 83 58.5 141t143.5 58t144 -58t59 -141t-59 -141t-144 -58t-143.5 58t-58.5 141zM717 1892l76 -92l-291 -182l-58 70zM86 315q0 149 111.5 244.5t296.5 95.5
q192 0 346 -118v155q0 140 -71 209.5t-232 69.5q-170 0 -312 -115l-78 84q175 145 404 145q197 0 304.5 -94t107.5 -270v-721h-123v117q-149 -142 -346 -142q-185 0 -296.5 95.5t-111.5 244.5zM508 541q-135 0 -215 -59t-80 -167q0 -107 80 -166t215 -59q189 0 332 137v193
q-142 121 -332 121z" />
    <glyph glyph-name="AEacute" unicode="&#x1fc;" horiz-adv-x="1759" 
d="M1671 0h-778v391h-490l-206 -391h-150l772 1434h834v-119h-629v-514h553v-119h-553v-563h647v-119zM893 1309l-426 -799h426v799zM1252 1910l98 -81l-305 -283l-74 63z" />
    <glyph glyph-name="aeacute" unicode="&#x1fd;" horiz-adv-x="1900" 
d="M1366 -25q-143 0 -262.5 65.5t-188.5 190.5q-56 -122 -168.5 -189t-252.5 -67q-185 0 -296.5 95.5t-111.5 244.5t111.5 244.5t296.5 95.5q192 0 346 -118v155q0 140 -71 209.5t-232 69.5q-170 0 -312 -115l-78 84q175 145 404 145q151 0 252.5 -57.5t134.5 -169.5
q55 104 159.5 165.5t235.5 61.5q213 0 350.5 -154t137.5 -396q0 -42 -2 -56h-848q12 -173 116.5 -281t272.5 -108q190 0 315 152l94 -68q-73 -95 -176 -147t-227 -52zM840 383v35q-136 123 -332 123q-135 0 -215 -59t-80 -167q0 -106 79 -165.5t206 -59.5q135 0 238.5 86.5
t103.5 206.5zM971 590h721q-7 171 -109.5 276t-251.5 105t-251 -105t-109 -276zM1125 1554l98 -81l-305 -283l-74 63z" />
    <glyph glyph-name="Oslashacute" unicode="&#x1fe;" horiz-adv-x="1449" 
d="M145 -14l131 186q-178 205 -178 545q0 157 43 292t122 235t198 157t264 57q216 0 371 -123l123 174l88 -59l-133 -190q86 -100 132 -240t46 -303q0 -157 -43 -292.5t-122 -235.5t-198 -157t-264 -57q-218 0 -371 125l-123 -174zM1217 717q0 265 -121 434l-670 -948
q124 -105 299 -105q226 0 359 169.5t133 449.5zM233 717q0 -270 121 -434l668 948q-122 104 -297 104q-226 0 -359 -169t-133 -449zM865 1910l98 -81l-305 -283l-74 63z" />
    <glyph glyph-name="oslashacute" unicode="&#x1ff;" horiz-adv-x="1177" 
d="M963 1147l-101 -141q-118 79 -272 79q-224 0 -363 -156t-139 -399q0 -124 39 -229t111 -180l-105 -148l86 -59l98 139q116 -78 273 -78q224 0 363 156t139 399q0 123 -39.5 228.5t-110.5 179.5l107 149zM590 971q114 0 205 -62l-488 -690q-92 119 -92 311
q0 201 102.5 321t272.5 120zM965 530q0 -201 -102 -320.5t-273 -119.5q-120 0 -205 60l487 690q93 -120 93 -310zM733 1554l98 -81l-305 -283l-73 63z" />
    <glyph glyph-name="Scommaaccent" unicode="&#x218;" horiz-adv-x="1206" 
d="M633 98q156 0 248 73.5t92 190.5q0 129 -90 202t-314 136q-233 66 -330.5 161t-97.5 239q0 162 113.5 260t316.5 98q141 0 265.5 -55.5t220.5 -159.5l-99 -80q-169 172 -385 172q-146 0 -221.5 -61.5t-75.5 -165.5q0 -98 83.5 -168.5t256.5 -120.5q130 -37 217.5 -75.5
t152 -91t93.5 -121.5t29 -160q0 -177 -123.5 -286.5t-343.5 -109.5q-161 0 -306.5 60t-256.5 170l104 86q196 -193 451 -193zM465 -494l123 396l112 -39l-145 -387z" />
    <glyph glyph-name="scommaaccent" unicode="&#x219;" horiz-adv-x="1001" 
d="M516 90q127 0 198.5 50.5t71.5 133.5q0 87 -71 140t-232 94q-201 51 -282.5 119.5t-81.5 187.5q0 122 95 196t265 74q108 0 206.5 -38t172.5 -109l-86 -82q-126 115 -293 115q-103 0 -168 -42t-65 -114q0 -69 62 -110t233 -89q200 -56 286 -131.5t86 -201.5
q0 -142 -103.5 -225t-289.5 -83q-131 0 -249.5 47.5t-207.5 139.5l91 86q74 -76 169 -117t193 -41zM383 -494l123 396l112 -39l-145 -387z" />
    <glyph glyph-name="uni021A" unicode="&#x21a;" horiz-adv-x="1124" 
d="M498 0v1315h-461v119h1050v-119h-458v-1315h-131zM385 -494l123 396l113 -39l-146 -387z" />
    <glyph glyph-name="uni021B" unicode="&#x21b;" horiz-adv-x="710" 
d="M569 -25q-159 0 -241 73.5t-82 238.5v663h-211v111h211v317h123v-317h286v-111h-286v-655q0 -111 46.5 -158t145.5 -47q38 0 92 4v-114q-57 -5 -84 -5zM289 -494l123 396l112 -39l-145 -387z" />
    <glyph glyph-name="dotlessj" unicode="&#x237;" horiz-adv-x="450" 
d="M164 -141v1202h123v-1213q0 -165 -79 -236t-237 -71q-35 0 -75 4v115q46 -4 81 -4q98 0 142.5 46t44.5 157z" />
    <glyph glyph-name="apostrophe" unicode="&#x2bc;" horiz-adv-x="819" 
d="M422 1530l121 -39l-178 -463l-91 25z" />
    <glyph glyph-name="circumflex" unicode="&#x2c6;" horiz-adv-x="819" 
d="M365 1495h90l274 -297l-72 -61l-247 241l-248 -241l-72 61z" />
    <glyph glyph-name="caron" unicode="&#x2c7;" horiz-adv-x="819" 
d="M455 1163h-90l-275 297l72 62l248 -242l247 242l72 -62z" />
    <glyph glyph-name="uni02C9" unicode="&#x2c9;" horiz-adv-x="0" 
d="M117 1272v110h585v-110h-585z" />
    <glyph glyph-name="breve" unicode="&#x2d8;" horiz-adv-x="819" 
d="M410 1286q77 0 134 49t85 138l92 -25q-33 -123 -113 -192.5t-198 -69.5t-198.5 69.5t-113.5 192.5l92 25q28 -88 85.5 -137.5t134.5 -49.5z" />
    <glyph glyph-name="dotaccent" unicode="&#x2d9;" horiz-adv-x="819" 
d="M317 1329q0 37 28 64.5t65 27.5t64.5 -27.5t27.5 -64.5t-27.5 -64.5t-64.5 -27.5t-65 27.5t-28 64.5z" />
    <glyph glyph-name="ring" unicode="&#x2da;" horiz-adv-x="819" 
d="M305 1329q0 -44 30.5 -75t74.5 -31t74 31t30 75q0 45 -30 76t-74 31t-74.5 -31.5t-30.5 -75.5zM207 1329q0 83 59 141t144 58t143.5 -58t58.5 -141t-58.5 -141t-143.5 -58t-144 58t-59 141z" />
    <glyph glyph-name="ogonek" unicode="&#x2db;" horiz-adv-x="819" 
d="M395 0h115q-141 -107 -141 -225q0 -56 33 -89.5t85 -33.5q68 0 117 49l60 -74q-86 -76 -193 -76q-98 0 -157.5 60.5t-59.5 146.5q0 66 37.5 130.5t103.5 111.5z" />
    <glyph glyph-name="tilde" unicode="&#x2dc;" horiz-adv-x="819" 
d="M385 1288q-58 55 -113 55q-68 0 -98 -106l-94 16q23 93 73 142t121 49q86 0 160 -68q58 -55 113 -55q68 0 98 106l94 -16q-23 -93 -73 -141.5t-121 -48.5q-87 0 -160 67z" />
    <glyph glyph-name="hungarumlaut" unicode="&#x2dd;" horiz-adv-x="819" 
d="M311 1499l97 -78l-256 -284l-84 59zM651 1499l99 -78l-301 -284l-82 59z" />
    <glyph glyph-name="gravecomb" unicode="&#x300;" horiz-adv-x="0" 
d="M-768 1432l98 81l281 -301l-74 -63z" />
    <glyph glyph-name="acutecomb" unicode="&#x301;" horiz-adv-x="0" 
d="M-375 1513l99 -81l-306 -283l-73 63z" />
    <glyph glyph-name="uni0302" unicode="&#x302;" horiz-adv-x="0" 
d="M-563 1495h90l274 -297l-71 -61l-248 241l-248 -241l-72 61z" />
    <glyph glyph-name="tildecomb" unicode="&#x303;" horiz-adv-x="0" 
d="M-543 1288q-58 55 -112 55q-69 0 -99 -106l-94 16q23 93 73.5 142t121.5 49q85 0 159 -68q58 -55 113 -55q68 0 98 106l95 -16q-23 -93 -73.5 -141.5t-121.5 -48.5q-87 0 -160 67z" />
    <glyph glyph-name="uni0304" unicode="&#x304;" horiz-adv-x="0" 
d="M-807 1274v110h586v-110h-586z" />
    <glyph glyph-name="uni0306" unicode="&#x306;" horiz-adv-x="0" 
d="M-518 1286q77 0 134 49t85 138l92 -25q-33 -123 -113 -192.5t-198 -69.5t-198 69.5t-113 192.5l92 25q28 -89 85 -138t134 -49z" />
    <glyph glyph-name="uni0307" unicode="&#x307;" horiz-adv-x="0" 
d="M-610 1329q0 37 27.5 64.5t64.5 27.5t64.5 -27.5t27.5 -64.5t-27.5 -64.5t-64.5 -27.5t-64.5 27.5t-27.5 64.5z" />
    <glyph glyph-name="uni0308" unicode="&#x308;" horiz-adv-x="0" 
d="M-807 1329q0 38 27 65t65 27t65 -27t27 -65t-27 -65t-65 -27t-65 27t-27 65zM-414 1329q0 38 27 65t65 27t65.5 -27t27.5 -65t-27.5 -65t-65.5 -27t-65 27t-27 65z" />
    <glyph glyph-name="uni030A" unicode="&#x30a;" horiz-adv-x="0" 
d="M-623 1329q0 -44 30.5 -75t74.5 -31t74 31t30 75q0 45 -30 76t-74 31t-74.5 -31.5t-30.5 -75.5zM-721 1329q0 83 59 141t144 58t144 -58t59 -141t-59 -141t-144 -58t-144 58t-59 141z" />
    <glyph glyph-name="uni030C" unicode="&#x30c;" horiz-adv-x="0" 
d="M-473 1163h-90l-275 297l72 62l248 -242l248 242l71 -62z" />
    <glyph glyph-name="uni0327" unicode="&#x327;" horiz-adv-x="0" 
d="M-563 -391q60 0 93.5 27t33.5 71q0 57 -50 88.5t-143 34.5l-10 14l76 156h108l-51 -104q88 -17 136 -68.5t48 -124.5q0 -79 -61 -134.5t-178 -55.5q-53 0 -103 18.5t-84 50.5l62 74q53 -47 123 -47z" />
    <glyph glyph-name="uni03A9" unicode="&#x3a9;" horiz-adv-x="1449" 
d="M725 1339q-114 0 -208 -46t-155.5 -125.5t-95 -185t-33.5 -224.5q0 -394 365 -641v-117h-477v119h303q-149 108 -237.5 269.5t-88.5 369.5q0 197 72.5 354.5t216.5 251.5t338 94t338 -94t216.5 -251.5t72.5 -354.5q0 -208 -88.5 -369.5t-237.5 -269.5h303v-119h-477v117
q365 247 365 641q0 119 -33.5 224.5t-95 185t-155.5 125.5t-208 46z" />
    <glyph glyph-name="uni0400" unicode="&#x400;" horiz-adv-x="1148" 
d="M170 0v1434h872v-119h-741v-514h666v-119h-666v-563h760v-119h-891zM373 1829l98 81l281 -301l-74 -63z" />
    <glyph glyph-name="afii10023" unicode="&#x401;" horiz-adv-x="1148" 
d="M170 0v1434h872v-119h-741v-514h666v-119h-666v-563h760v-119h-891zM326 1726q0 38 27 65t65 27t65 -27t27 -65t-27 -65t-65 -27t-65 27t-27 65zM719 1726q0 38 27 65t65 27t65 -27t27 -65t-27 -65t-65 -27t-65 27t-27 65z" />
    <glyph glyph-name="afii10051" unicode="&#x402;" horiz-adv-x="1525" 
d="M1294 473q0 158 -83.5 256t-243.5 98q-93 0 -182.5 -34.5t-155.5 -87.5v-705h-131v1315h-461v119h1050v-119h-458v-498q70 56 162 90.5t186 34.5q207 0 330 -128t123 -331q0 -210 -115.5 -346.5t-315.5 -136.5h-43v119h35q145 0 224 102t79 252z" />
    <glyph glyph-name="afii10052" unicode="&#x403;" horiz-adv-x="1075" 
d="M756 1911l98 -82l-305 -283l-74 64zM170 0v1434h868v-119h-737v-1315h-131z" />
    <glyph glyph-name="afii10053" unicode="&#x404;" horiz-adv-x="1392" 
d="M98 717q0 216 80.5 384t229.5 262.5t344 94.5q185 0 326.5 -76t228.5 -213l-109 -67q-85 122 -192 177.5t-250 55.5q-220 0 -362.5 -150.5t-157.5 -410.5h714v-117h-714q15 -260 157.5 -409.5t362.5 -149.5q142 0 249.5 56t192.5 178l109 -68q-87 -137 -228.5 -213
t-326.5 -76q-194 0 -343.5 94.5t-230 263t-80.5 384.5z" />
    <glyph glyph-name="afii10054" unicode="&#x405;" horiz-adv-x="1206" 
d="M633 98q156 0 248 73.5t92 190.5q0 129 -90 202t-314 136q-233 66 -330.5 161t-97.5 239q0 162 113.5 260t316.5 98q141 0 265.5 -55.5t220.5 -159.5l-99 -80q-169 172 -385 172q-146 0 -221.5 -61.5t-75.5 -165.5q0 -98 83.5 -168.5t256.5 -120.5q130 -37 217.5 -75.5
t152 -91t93.5 -121.5t29 -160q0 -177 -123.5 -286.5t-343.5 -109.5q-161 0 -306.5 60t-256.5 170l104 86q196 -193 451 -193z" />
    <glyph glyph-name="afii10055" unicode="&#x406;" horiz-adv-x="491" 
d="M180 1434h131v-1434h-131v1434z" />
    <glyph glyph-name="afii10056" unicode="&#x407;" horiz-adv-x="491" 
d="M180 1434h131v-1434h-131v1434zM-43 1726q0 38 27 65t65 27t65 -27t27 -65t-27 -65t-65 -27t-65 27t-27 65zM350 1726q0 38 27 65t65 27t65 -27t27 -65t-27 -65t-65 -27t-65 27t-27 65z" />
    <glyph glyph-name="afii10057" unicode="&#x408;" horiz-adv-x="1132" 
d="M520 98q146 0 228.5 99.5t82.5 277.5v959h132v-959q0 -237 -117.5 -368.5t-319.5 -131.5q-153 0 -270 69.5t-190 207.5l106 63q123 -217 348 -217z" />
    <glyph glyph-name="afii10058" unicode="&#x409;" horiz-adv-x="2101" 
d="M1239 1434v-607h309q222 0 346.5 -111t124.5 -302t-124.5 -302.5t-346.5 -111.5h-440v1315h-651v-1020q0 -165 -82 -242.5t-244 -77.5q-46 0 -90 7v114q52 -6 98 -6q99 0 143 51t44 162v1131h913zM1884 414q0 141 -88 218t-266 77h-291v-590h291q178 0 266 77t88 218z
" />
    <glyph glyph-name="afii10059" unicode="&#x40a;" horiz-adv-x="2064" 
d="M1071 1434h131v-607h309q222 0 346.5 -111t124.5 -302t-124.5 -302.5t-346.5 -111.5h-440v711h-768v-711h-133v1434h133v-607h768v607zM1847 414q0 141 -88 218t-266 77h-291v-590h291q178 0 266 77t88 218z" />
    <glyph glyph-name="afii10060" unicode="&#x40b;" horiz-adv-x="1570" 
d="M967 827q-202 0 -338 -114v-713h-131v1315h-461v119h1050v-119h-458v-490q157 117 348 117q217 0 335 -121t118 -348v-473h-132v465q0 182 -81 272t-250 90z" />
    <glyph glyph-name="afii10061" unicode="&#x40c;" horiz-adv-x="1236" 
d="M301 1434v-869l686 869h158l-463 -586l526 -848h-157l-453 745l-297 -376v-369h-131v1434h131zM805 1910l98 -81l-305 -283l-74 63z" />
    <glyph glyph-name="uni040D" unicode="&#x40d;" horiz-adv-x="1427" 
d="M1257 1434v-1434h-131v1217l-825 -1217h-131v1434h131v-1217l823 1217h133zM455 1829l98 82l281 -301l-74 -64z" />
    <glyph glyph-name="afii10062" unicode="&#x40e;" horiz-adv-x="1206" 
d="M623 582l403 852h143l-682 -1434h-141l209 442l-518 992h143zM594 1679q77 0 134 49t85 138l92 -25q-33 -123 -113 -192.5t-198 -69.5t-198 69.5t-113 192.5l92 25q28 -89 85 -138t134 -49z" />
    <glyph glyph-name="afii10145" unicode="&#x40f;" horiz-adv-x="1413" 
d="M170 0v1434h131v-1317h811v1317h131v-1434h-471v-246h-131v246h-471z" />
    <glyph glyph-name="afii10017" unicode="&#x410;" horiz-adv-x="1363" 
d="M610 1434h144l563 -1434h-146l-149 391h-680l-149 -391h-146zM682 1294l-299 -784h598z" />
    <glyph glyph-name="afii10018" unicode="&#x411;" horiz-adv-x="1163" 
d="M170 1434h793v-117h-662v-490h309q222 0 346.5 -111t124.5 -302t-124.5 -302.5t-346.5 -111.5h-440v1434zM946 414q0 141 -88 218t-266 77h-291v-590h291q178 0 266 77t88 218z" />
    <glyph glyph-name="afii10019" unicode="&#x412;" horiz-adv-x="1265" 
d="M170 0v1434h475q219 0 340 -102.5t121 -270.5q0 -115 -59 -197t-160 -108q140 -26 215.5 -118t75.5 -237q0 -191 -130.5 -296t-381.5 -105h-496zM301 805h361q148 0 228.5 68.5t80.5 187.5q0 125 -88.5 189.5t-255.5 64.5h-326v-510zM1042 401q0 137 -92 211t-272 74
h-377v-567h346q197 0 296 72t99 210z" />
    <glyph glyph-name="afii10020" unicode="&#x413;" horiz-adv-x="1075" 
d="M170 0v1434h868v-119h-737v-1315h-131z" />
    <glyph glyph-name="afii10021" unicode="&#x414;" horiz-adv-x="1263" 
d="M1214 119v-365h-131v246h-905v-246h-131v365h117q141 365 141 964v351h756v-1315h153zM303 119h627v1196h-494v-248q0 -550 -133 -948z" />
    <glyph glyph-name="afii10022" unicode="&#x415;" horiz-adv-x="1148" 
d="M170 0v1434h872v-119h-741v-514h666v-119h-666v-563h760v-119h-891z" />
    <glyph glyph-name="afii10024" unicode="&#x416;" horiz-adv-x="1835" 
d="M852 590v844h131v-844l604 844h156l-432 -592l497 -842h-159l-418 731l-248 -340v-391h-131v391l-248 340l-418 -731h-159l497 842l-432 592h156z" />
    <glyph glyph-name="afii10025" unicode="&#x417;" horiz-adv-x="1138" 
d="M565 1335q-101 0 -195 -43t-169 -127l-97 80q195 213 463 213q196 0 311 -96t115 -258q0 -136 -81 -231t-201 -121q153 -36 237 -131.5t84 -243.5q0 -179 -124.5 -290.5t-346.5 -111.5q-155 0 -284 60t-218 170l97 80q164 -187 399 -187q161 0 251.5 76.5t90.5 204.5
q0 150 -108.5 231.5t-290.5 81.5h-136v117h136q159 0 259.5 76.5t100.5 208.5q0 107 -76 174t-217 67z" />
    <glyph glyph-name="afii10026" unicode="&#x418;" horiz-adv-x="1427" 
d="M1257 1434v-1434h-131v1217l-825 -1217h-131v1434h131v-1217l823 1217h133z" />
    <glyph glyph-name="afii10027" unicode="&#x419;" horiz-adv-x="1427" 
d="M1257 0v1434h-133l-823 -1217v1217h-131v-1434h131l825 1217v-1217h131zM727 1679q77 0 134 49t85 138l92 -25q-33 -123 -113 -192.5t-198 -69.5t-198 69.5t-113 192.5l92 25q28 -89 85 -138t134 -49z" />
    <glyph glyph-name="afii10028" unicode="&#x41a;" horiz-adv-x="1236" 
d="M301 1434v-869l686 869h158l-463 -586l526 -848h-157l-453 745l-297 -376v-369h-131v1434h131z" />
    <glyph glyph-name="afii10029" unicode="&#x41b;" horiz-adv-x="1452" 
d="M1282 0h-131v1315h-694v-1020q0 -164 -81 -242t-243 -78q-29 0 -92 5v116q52 -6 98 -6q100 0 143.5 51.5t43.5 163.5v1129h956v-1434z" />
    <glyph glyph-name="afii10030" unicode="&#x41c;" horiz-adv-x="1716" 
d="M815 283l-514 903v-1186h-131v1434h131l557 -975l557 975h131v-1434h-131v1186l-514 -903h-86z" />
    <glyph glyph-name="afii10031" unicode="&#x41d;" horiz-adv-x="1415" 
d="M170 0v1434h131v-611h813v611h131v-1434h-131v705h-813v-705h-131z" />
    <glyph glyph-name="afii10032" unicode="&#x41e;" horiz-adv-x="1449" 
d="M1352 717q0 -157 -43 -292.5t-122 -235.5t-198 -157t-264 -57t-264 57t-198 157t-122 235.5t-43 292.5t43 292t122 235t198 157t264 57t264 -57t198 -157t122 -235t43 -292zM233 717q0 -280 133 -449.5t359 -169.5t359 169.5t133 449.5t-133 449t-359 169t-359 -169
t-133 -449z" />
    <glyph glyph-name="afii10033" unicode="&#x41f;" horiz-adv-x="1413" 
d="M170 0v1434h1073v-1434h-131v1315h-811v-1315h-131z" />
    <glyph glyph-name="afii10034" unicode="&#x420;" horiz-adv-x="1193" 
d="M1114 995q0 -214 -137.5 -326t-392.5 -112h-283v-557h-131v1434h414q256 0 393 -112t137 -327zM979 995q0 320 -408 320h-270v-639h270q408 0 408 319z" />
    <glyph glyph-name="afii10035" unicode="&#x421;" horiz-adv-x="1392" 
d="M98 717q0 216 80.5 384t229.5 262.5t344 94.5q185 0 326.5 -76t228.5 -213l-109 -67q-85 122 -192 177.5t-250 55.5q-232 0 -377.5 -166.5t-145.5 -451.5t145.5 -452t377.5 -167q142 0 249.5 56t192.5 178l109 -68q-87 -137 -228.5 -213t-326.5 -76q-194 0 -343.5 94.5
t-230 263t-80.5 384.5z" />
    <glyph glyph-name="afii10036" unicode="&#x422;" horiz-adv-x="1124" 
d="M498 0v1315h-461v119h1050v-119h-458v-1315h-131z" />
    <glyph glyph-name="afii10037" unicode="&#x423;" horiz-adv-x="1206" 
d="M623 582l403 852h143l-682 -1434h-141l209 442l-518 992h143z" />
    <glyph glyph-name="afii10038" unicode="&#x424;" horiz-adv-x="1449" 
d="M229 717q0 -176 116.5 -277.5t313.5 -107.5v768q-197 -6 -313.5 -107.5t-116.5 -275.5zM1221 717q0 174 -116.5 275.5t-313.5 107.5v-768q197 6 313.5 107.5t116.5 277.5zM659 0v213q-255 9 -410 144t-155 360q0 223 154.5 357t410.5 145v215h132v-215
q256 -11 410.5 -145t154.5 -357q0 -225 -155 -360t-410 -144v-213h-132z" />
    <glyph glyph-name="afii10039" unicode="&#x425;" horiz-adv-x="1208" 
d="M1018 0l-414 631l-414 -631h-153l491 745l-450 689h151l375 -572l375 572h151l-450 -689l491 -745h-153z" />
    <glyph glyph-name="afii10040" unicode="&#x426;" horiz-adv-x="1445" 
d="M1243 119h156v-365h-131v246h-1098v1434h131v-1315h811v1315h131v-1315z" />
    <glyph glyph-name="afii10041" unicode="&#x427;" horiz-adv-x="1236" 
d="M936 1434h131v-1434h-131v612q-157 -110 -344 -110q-218 0 -335.5 120.5t-117.5 346.5v465h131v-455q0 -365 334 -365q194 0 332 113v707z" />
    <glyph glyph-name="afii10042" unicode="&#x428;" horiz-adv-x="1679" 
d="M170 0v1434h131v-1315h473v1315h131v-1315h473v1315h131v-1434h-1339z" />
    <glyph glyph-name="afii10043" unicode="&#x429;" horiz-adv-x="1714" 
d="M170 0v1434h131v-1315h473v1315h131v-1315h473v1315h131v-1315h154v-365h-131v246h-1362z" />
    <glyph glyph-name="afii10044" unicode="&#x42a;" horiz-adv-x="1368" 
d="M41 1434h465v-607h309q222 0 346.5 -111t124.5 -302t-124.5 -302.5t-346.5 -111.5h-440v1317h-334v117zM1151 414q0 141 -88 218t-266 77h-291v-590h291q178 0 266 77t88 218z" />
    <glyph glyph-name="afii10045" unicode="&#x42b;" horiz-adv-x="1576" 
d="M1276 1434h131v-1434h-131v1434zM170 1434h131v-607h309q222 0 346.5 -111t124.5 -302t-124.5 -302.5t-346.5 -111.5h-440v1434zM946 414q0 141 -88 218t-266 77h-291v-590h291q178 0 266 77t88 218z" />
    <glyph glyph-name="afii10046" unicode="&#x42c;" horiz-adv-x="1163" 
d="M170 1434h131v-607h309q222 0 346.5 -111t124.5 -302t-124.5 -302.5t-346.5 -111.5h-440v1434zM946 414q0 141 -88 218t-266 77h-291v-590h291q178 0 266 77t88 218z" />
    <glyph glyph-name="afii10047" unicode="&#x42d;" horiz-adv-x="1392" 
d="M1294 717q0 -216 -80 -384t-229.5 -263t-343.5 -95q-185 0 -326.5 76t-228.5 213l109 68q85 -122 192.5 -178t249.5 -56q220 0 362.5 149.5t157.5 409.5h-715v117h715q-15 260 -157.5 410.5t-362.5 150.5q-143 0 -250 -55.5t-192 -177.5l-109 67q87 137 228.5 213
t326.5 76q195 0 344 -94.5t229 -262.5t80 -384z" />
    <glyph glyph-name="afii10048" unicode="&#x42e;" horiz-adv-x="1673" 
d="M170 1434h133v-660h232q7 201 68 353.5t177 241.5t273 89q166 0 285.5 -96.5t178 -262.5t58.5 -382t-58.5 -382t-178 -263t-285.5 -97q-157 0 -273 88.5t-177 240.5t-68 353h-232v-657h-133v1434zM670 717q0 -291 99.5 -457t283.5 -166q185 0 285 166t100 457t-100 456.5
t-285 165.5q-184 0 -283.5 -165.5t-99.5 -456.5z" />
    <glyph glyph-name="afii10049" unicode="&#x42f;" horiz-adv-x="1255" 
d="M129 1024q0 193 134 301.5t378 108.5h444v-1434h-131v616h-215q-98 0 -145 2l-399 -618h-152l412 637q-160 40 -243 137.5t-83 249.5zM264 1024q0 -141 98.5 -215t290.5 -74h301v580h-301q-192 0 -290.5 -74.5t-98.5 -216.5z" />
    <glyph glyph-name="afii10065" unicode="&#x430;" horiz-adv-x="1103" 
d="M86 315q0 149 111.5 244.5t296.5 95.5q192 0 346 -118v155q0 140 -71 209.5t-232 69.5q-170 0 -312 -115l-78 84q175 145 404 145q197 0 304.5 -94t107.5 -270v-721h-123v117q-149 -142 -346 -142q-185 0 -296.5 95.5t-111.5 244.5zM508 541q-135 0 -215 -59t-80 -167
q0 -107 80 -166t215 -59q189 0 332 137v193q-142 121 -332 121z" />
    <glyph glyph-name="afii10066" unicode="&#x431;" horiz-adv-x="1124" 
d="M1012 1520l-13 -115q-325 -22 -518 -152t-229 -374q62 65 150.5 101t185.5 36q208 0 328 -137t120 -383q0 -243 -124 -382t-318 -139q-239 0 -362 182.5t-123 506.5q0 194 46.5 338.5t151 255.5t280 176t425.5 86zM588 901q-100 0 -192 -42t-158 -122q-2 -23 -2 -71
q0 -152 26 -264.5t75 -180t112.5 -99.5t144.5 -32q146 0 230.5 110.5t84.5 295.5q0 192 -85.5 298.5t-235.5 106.5z" />
    <glyph glyph-name="afii10067" unicode="&#x432;" horiz-adv-x="1044" 
d="M530 0h-380v1061h368q192 0 286.5 -72.5t94.5 -202.5q0 -172 -162 -227q100 -23 158.5 -89.5t58.5 -170.5q0 -136 -104 -217.5t-320 -81.5zM772 780q0 89 -62 129.5t-194 40.5h-244v-342h254q246 0 246 172zM827 301q0 197 -280 197h-275v-387h269q139 0 212.5 50
t73.5 140z" />
    <glyph glyph-name="afii10068" unicode="&#x433;" horiz-adv-x="894" 
d="M862 950h-586v-950h-126v1061h712v-111z" />
    <glyph glyph-name="afii10069" unicode="&#x434;" horiz-adv-x="1144" 
d="M1096 109v-334h-123v225h-803v-225h-123v334h125q117 291 117 686v266h653v-952h154zM301 109h518v841h-407v-170q0 -373 -111 -671z" />
    <glyph glyph-name="afii10070" unicode="&#x435;" horiz-adv-x="1148" 
d="M614 -25q-158 0 -279 76t-184 202t-63 279q0 240 138.5 396.5t355.5 156.5q213 0 350 -154t137 -396q0 -42 -2 -56h-848q12 -173 116.5 -281t272.5 -108q191 0 316 152l94 -68q-73 -95 -176.5 -147t-227.5 -52zM219 590h721q-7 171 -109 276t-251 105t-251.5 -105
t-109.5 -276z" />
    <glyph glyph-name="afii10072" unicode="&#x436;" horiz-adv-x="1533" 
d="M14 0l408 639l-346 422h151l478 -596v596h124v-596l478 596h151l-346 -424l408 -637h-138l-348 543l-205 -248v-295h-124v295l-205 248l-348 -543h-138z" />
    <glyph glyph-name="afii10073" unicode="&#x437;" horiz-adv-x="980" 
d="M477 86q130 0 206.5 55.5t76.5 143.5q0 70 -50 120.5t-129 74.5t-175 24h-113v110h110q141 0 229.5 52t88.5 141q0 77 -69 122.5t-179 45.5q-164 0 -295 -113l-86 78q157 145 375 145q166 0 273.5 -73t107.5 -199q0 -94 -59.5 -160t-165.5 -96q124 -27 194 -97.5
t70 -174.5q0 -137 -113.5 -223.5t-302.5 -86.5q-257 0 -434 156l84 86q155 -131 356 -131z" />
    <glyph glyph-name="afii10074" unicode="&#x438;" horiz-adv-x="1210" 
d="M1061 0h-127v868l-658 -868h-126v1061h126v-868l658 868h127v-1061z" />
    <glyph glyph-name="afii10075" unicode="&#x439;" horiz-adv-x="1210" 
d="M1061 0h-127v868l-658 -868h-126v1061h126v-868l658 868h127v-1061zM604 1327q77 0 134 49t85 137l92 -24q-33 -123 -113 -192.5t-198 -69.5t-198 69.5t-113 192.5l92 24q28 -88 85 -137t134 -49z" />
    <glyph glyph-name="afii10076" unicode="&#x43a;" horiz-adv-x="1034" 
d="M877 0l-369 551l-236 -268v-283h-122v1061h122v-615l529 615h157l-370 -422l432 -639h-143z" />
    <glyph glyph-name="afii10077" unicode="&#x43b;" horiz-adv-x="1191" 
d="M33 -20v116q53 -6 92 -6q92 0 132 50t40 161v760h745v-1061h-122v950h-500v-659q0 -165 -74.5 -240.5t-230.5 -75.5q-25 0 -82 5z" />
    <glyph glyph-name="afii10078" unicode="&#x43c;" horiz-adv-x="1409" 
d="M664 240l-388 596v-836h-126v1061h120l435 -678l434 678h121v-1061h-127v836l-388 -596h-81z" />
    <glyph glyph-name="afii10079" unicode="&#x43d;" horiz-adv-x="1173" 
d="M272 633h629v428h123v-1061h-123v522h-629v-522h-122v1061h122v-428z" />
    <glyph glyph-name="afii10080" unicode="&#x43e;" horiz-adv-x="1179" 
d="M965 530q0 201 -102.5 321t-272.5 120t-272.5 -120t-102.5 -321t102 -320.5t273 -119.5t273 119.5t102 320.5zM1092 530q0 -243 -139 -399t-363 -156t-363 156t-139 399t139 399t363 156t363 -156t139 -399z" />
    <glyph glyph-name="afii10081" unicode="&#x43f;" horiz-adv-x="1138" 
d="M150 0v1061h839v-1061h-123v950h-594v-950h-122z" />
    <glyph glyph-name="afii10082" unicode="&#x440;" horiz-adv-x="1179" 
d="M272 1061v-123q161 147 355 147q218 0 336 -147t118 -408t-118 -408t-336 -147q-193 0 -355 148v-557h-122v1495h122zM954 530q0 214 -87 327.5t-263 113.5q-87 0 -178.5 -45.5t-153.5 -114.5v-561q62 -69 153.5 -114.5t178.5 -45.5q176 0 263 113t87 327z" />
    <glyph glyph-name="afii10083" unicode="&#x441;" horiz-adv-x="1093" 
d="M88 530q0 246 138.5 400.5t361.5 154.5q144 0 254.5 -61.5t179.5 -173.5l-98 -59q-63 91 -141.5 135.5t-186.5 44.5q-173 0 -277 -119t-104 -322t104 -321.5t277 -118.5q108 0 186.5 44.5t141.5 135.5l98 -59q-69 -113 -179.5 -174.5t-254.5 -61.5q-223 0 -361.5 154.5
t-138.5 400.5z" />
    <glyph glyph-name="afii10084" unicode="&#x442;" horiz-adv-x="989" 
d="M434 0v950h-401v111h923v-111h-399v-950h-123z" />
    <glyph glyph-name="afii10085" unicode="&#x443;" horiz-adv-x="1036" 
d="M168 1061l364 -885l338 885h129l-571 -1495h-127l168 442l-432 1053h131z" />
    <glyph glyph-name="afii10086" unicode="&#x444;" horiz-adv-x="1818" 
d="M848 -434v549q-130 -140 -318 -140q-206 0 -319 147.5t-113 407.5t113 407.5t319 147.5q189 0 318 -139v549h123v-549q129 139 317 139q206 0 319 -147.5t113 -407.5t-113 -407.5t-319 -147.5q-187 0 -317 140v-549h-123zM848 238v585q-54 68 -133 110t-166 42
q-159 0 -241.5 -116t-82.5 -329t82.5 -328.5t241.5 -115.5q87 0 166 42t133 110zM1270 975q-87 0 -166 -42t-133 -110v-585q54 -68 133 -110t166 -42q159 0 241 115.5t82 328.5q0 214 -82 329.5t-241 115.5z" />
    <glyph glyph-name="afii10087" unicode="&#x445;" horiz-adv-x="995" 
d="M821 0l-323 457l-324 -457h-145l397 557l-358 504h143l287 -406l286 406h144l-359 -504l398 -557h-146z" />
    <glyph glyph-name="afii10088" unicode="&#x446;" horiz-adv-x="1196" 
d="M989 111h152v-336h-123v225h-868v1061h122v-950h594v950h123v-950z" />
    <glyph glyph-name="afii10089" unicode="&#x447;" horiz-adv-x="1114" 
d="M522 492q87 0 175 37.5t145 95.5v436h123v-1061h-123v506q-65 -57 -155.5 -91t-180.5 -34q-187 0 -290 98t-103 295v287h123v-273q0 -156 71 -226t215 -70z" />
    <glyph glyph-name="afii10090" unicode="&#x448;" horiz-adv-x="1423" 
d="M774 111h379v950h123v-1061h-1126v1061h122v-950h379v950h123v-950z" />
    <glyph glyph-name="afii10091" unicode="&#x449;" horiz-adv-x="1482" 
d="M774 111h379v950h123v-950h151v-336h-122v225h-1155v1061h122v-950h379v950h123v-950z" />
    <glyph glyph-name="afii10092" unicode="&#x44a;" horiz-adv-x="1140" 
d="M436 647h219q205 0 311.5 -85.5t106.5 -237.5t-106.5 -238t-311.5 -86h-342v950h-301v111h424v-414zM643 537h-207v-426h207q160 0 231.5 54.5t71.5 158.5t-71.5 158.5t-231.5 54.5z" />
    <glyph glyph-name="afii10093" unicode="&#x44b;" horiz-adv-x="1370" 
d="M1221 0h-123v1061h123v-1061zM492 647h-220v414h-122v-1061h342q205 0 311 85.5t106 238.5q0 152 -106 237.5t-311 85.5zM272 537h207q160 0 231.5 -54.5t71.5 -158.5t-71.5 -158.5t-231.5 -54.5h-207v426z" />
    <glyph glyph-name="afii10094" unicode="&#x44c;" horiz-adv-x="976" 
d="M272 647h220q205 0 311 -85.5t106 -237.5q0 -153 -106 -238.5t-311 -85.5h-342v1061h122v-414zM479 537h-207v-426h207q160 0 231.5 54.5t71.5 158.5t-71.5 158.5t-231.5 54.5z" />
    <glyph glyph-name="afii10095" unicode="&#x44d;" horiz-adv-x="1093" 
d="M1006 530q0 -246 -138.5 -400.5t-361.5 -154.5q-144 0 -254.5 61.5t-179.5 174.5l98 59q63 -91 141.5 -135.5t186.5 -44.5q161 0 263.5 103t115.5 282h-506v111h506q-13 179 -115.5 282t-263.5 103q-108 0 -186.5 -44.5t-141.5 -135.5l-98 59q69 112 179.5 173.5
t254.5 61.5q223 0 361.5 -154.5t138.5 -400.5z" />
    <glyph glyph-name="afii10096" unicode="&#x44e;" horiz-adv-x="1456" 
d="M272 475v-475h-122v1061h122v-475h197q14 223 134.5 361t314.5 138q206 0 328 -154.5t122 -400.5t-122 -400.5t-328 -154.5q-194 0 -314.5 138.5t-134.5 361.5h-197zM594 530q0 -200 88.5 -320t235.5 -120t235 119.5t88 320.5t-88.5 321t-234.5 120q-147 0 -235.5 -120
t-88.5 -321z" />
    <glyph glyph-name="afii10097" unicode="&#x44f;" horiz-adv-x="1079" 
d="M477 453l-293 -453h-149l309 473q-115 27 -175 102t-60 181q0 141 100.5 223t298.5 82h420v-1061h-123v453h-328zM518 563h287v387h-287q-143 0 -212.5 -52.5t-69.5 -141.5t69.5 -141t212.5 -52z" />
    <glyph glyph-name="uni0450" unicode="&#x450;" horiz-adv-x="1148" 
d="M614 -25q-158 0 -279 76t-184 202t-63 279q0 240 138.5 396.5t355.5 156.5q213 0 350 -154t137 -396q0 -42 -2 -56h-848q12 -173 116.5 -281t272.5 -108q191 0 316 152l94 -68q-73 -95 -176.5 -147t-227.5 -52zM219 590h721q-7 171 -109 276t-251 105t-251.5 -105
t-109.5 -276zM352 1473l98 81l281 -301l-74 -63z" />
    <glyph glyph-name="afii10071" unicode="&#x451;" horiz-adv-x="1148" 
d="M614 -25q-158 0 -279 76t-184 202t-63 279q0 240 138.5 396.5t355.5 156.5q213 0 350 -154t137 -396q0 -42 -2 -56h-848q12 -173 116.5 -281t272.5 -108q191 0 316 152l94 -68q-73 -95 -176.5 -147t-227.5 -52zM219 590h721q-7 171 -109 276t-251 105t-251.5 -105
t-109.5 -276zM297 1370q0 38 27 65t65 27t65 -27t27 -65t-27 -65t-65 -27t-65 27t-27 65zM690 1370q0 38 27 65t65 27t65 -27t27 -65t-27 -65t-65 -27t-65 27t-27 65z" />
    <glyph glyph-name="afii10099" unicode="&#x452;" horiz-adv-x="1179" 
d="M666 1085q175 0 273.5 -100t98.5 -289v-848q0 -165 -79.5 -236t-237.5 -71q-36 0 -76 4v117q43 -6 84 -6q97 0 141.5 46t44.5 157v807q0 154 -67.5 229.5t-208.5 75.5q-98 0 -199.5 -55t-165.5 -130v-786h-122v1233h-136v102h136v160h122v-160h426v-102h-426v-318
q177 170 392 170z" />
    <glyph glyph-name="afii10100" unicode="&#x453;" horiz-adv-x="894" 
d="M862 950h-586v-950h-126v1061h712v-111zM641 1554l98 -81l-305 -283l-74 63z" />
    <glyph glyph-name="afii10101" unicode="&#x454;" horiz-adv-x="1093" 
d="M88 530q0 246 138.5 400.5t361.5 154.5q144 0 254.5 -61.5t179.5 -173.5l-98 -59q-63 91 -141.5 135.5t-186.5 44.5q-161 0 -263.5 -103t-115.5 -282h506v-111h-506q13 -179 115.5 -282t263.5 -103q108 0 186.5 44.5t141.5 135.5l98 -59q-69 -113 -179.5 -174.5
t-254.5 -61.5q-223 0 -361.5 154.5t-138.5 400.5z" />
    <glyph glyph-name="afii10102" unicode="&#x455;" horiz-adv-x="1001" 
d="M516 90q127 0 198.5 50.5t71.5 133.5q0 87 -71 140t-232 94q-201 51 -282.5 119.5t-81.5 187.5q0 122 95 196t265 74q108 0 206.5 -38t172.5 -109l-86 -82q-126 115 -293 115q-103 0 -168 -42t-65 -114q0 -69 62 -110t233 -89q200 -56 286 -131.5t86 -201.5
q0 -142 -103.5 -225t-289.5 -83q-131 0 -249.5 47.5t-207.5 139.5l91 86q74 -76 169 -117t193 -41z" />
    <glyph glyph-name="afii10103" unicode="&#x456;" horiz-adv-x="450" 
d="M164 0v1061h123v-1061h-123zM131 1391q0 38 28 66t66 28t66 -28t28 -66t-28 -66.5t-66 -28.5t-66 28.5t-28 66.5z" />
    <glyph glyph-name="afii10104" unicode="&#x457;" horiz-adv-x="450" 
d="M164 0v1061h123v-1061h-123zM-63 1370q0 38 27 65t65 27t65 -27t27 -65t-27 -65t-65 -27t-65 27t-27 65zM330 1370q0 38 27 65t65 27t65 -27t27 -65t-27 -65t-65 -27t-65 27t-27 65z" />
    <glyph glyph-name="afii10105" unicode="&#x458;" horiz-adv-x="450" 
d="M164 -141v1202h123v-1213q0 -165 -79 -236t-237 -71q-35 0 -75 4v115q46 -4 81 -4q98 0 142.5 46t44.5 157zM131 1391q0 38 28 66t66 28t66 -28t28 -66t-28 -66.5t-66 -28.5t-66 28.5t-28 66.5z" />
    <glyph glyph-name="afii10106" unicode="&#x459;" horiz-adv-x="1714" 
d="M1010 647h219q205 0 311.5 -85.5t106.5 -237.5t-106.5 -238t-311.5 -86h-342v950h-463v-659q0 -165 -76.5 -240.5t-232.5 -75.5q-25 0 -82 5v112q53 -6 92 -6q91 0 131.5 51.5t40.5 163.5v760h713v-414zM1217 537h-207v-426h207q160 0 231.5 54.5t71.5 158.5t-71.5 158.5
t-231.5 54.5z" />
    <glyph glyph-name="afii10107" unicode="&#x45a;" horiz-adv-x="1654" 
d="M950 647h219q205 0 311.5 -85.5t106.5 -237.5t-106.5 -238t-311.5 -86h-342v537h-551v-537h-126v1061h126v-414h551v414h123v-414zM1157 537h-207v-426h207q160 0 231.5 54.5t71.5 158.5t-71.5 158.5t-231.5 54.5z" />
    <glyph glyph-name="afii10108" unicode="&#x45b;" horiz-adv-x="1179" 
d="M666 1085q175 0 273.5 -100t98.5 -289v-696h-123v666q0 154 -67.5 229.5t-208.5 75.5q-98 0 -199.5 -55t-165.5 -130v-786h-122v1233h-136v102h136v160h122v-160h426v-102h-426v-318q177 170 392 170z" />
    <glyph glyph-name="afii10109" unicode="&#x45c;" horiz-adv-x="1034" 
d="M877 0l-369 551l-236 -268v-283h-122v1061h122v-615l529 615h157l-370 -422l432 -639h-143zM686 1554l98 -81l-305 -283l-73 63z" />
    <glyph glyph-name="uni045D" unicode="&#x45d;" horiz-adv-x="1210" 
d="M1061 0h-127v868l-658 -868h-126v1061h126v-868l658 868h127v-1061zM342 1473l98 81l281 -301l-74 -63z" />
    <glyph glyph-name="afii10110" unicode="&#x45e;" horiz-adv-x="1036" 
d="M168 1061l364 -885l338 885h129l-571 -1495h-127l168 442l-432 1053h131zM519 1327q77 0 134 49t85 138l92 -25q-33 -123 -113 -192.5t-198 -69.5t-198.5 69.5t-113.5 192.5l92 25q28 -88 85.5 -137.5t134.5 -49.5z" />
    <glyph glyph-name="afii10193" unicode="&#x45f;" horiz-adv-x="1138" 
d="M150 0v1061h122v-952h594v952h123v-1061h-356v-225h-127v225h-356z" />
    <glyph glyph-name="afii10050" unicode="&#x490;" horiz-adv-x="1079" 
d="M170 0v1434h737v252h131v-371h-737v-1315h-131z" />
    <glyph glyph-name="afii10098" unicode="&#x491;" horiz-adv-x="894" 
d="M739 1331h123v-381h-590v-950h-122v1061h589v270z" />
    <glyph glyph-name="Wgrave" unicode="&#x1e80;" horiz-adv-x="2023" 
d="M594 154l338 1280h160l338 -1280l403 1280h143l-458 -1434h-175l-331 1268l-332 -1268h-174l-459 1434h143zM702 1829l98 81l281 -301l-74 -63z" />
    <glyph glyph-name="wgrave" unicode="&#x1e81;" horiz-adv-x="1593" 
d="M461 156l274 905h123l275 -905l284 905h139l-360 -1061h-127l-272 893l-273 -893h-127l-360 1061h139zM485 1473l99 81l280 -301l-73 -63z" />
    <glyph glyph-name="Wacute" unicode="&#x1e82;" horiz-adv-x="2023" 
d="M594 154l338 1280h160l338 -1280l403 1280h143l-458 -1434h-175l-331 1268l-332 -1268h-174l-459 1434h143zM1223 1910l98 -81l-305 -283l-74 63z" />
    <glyph glyph-name="wacute" unicode="&#x1e83;" horiz-adv-x="1593" 
d="M735 1061l-274 -905l-285 905h-139l360 -1061h127l273 893l272 -893h127l360 1061h-139l-284 -905l-275 905h-123zM1010 1554l98 -81l-305 -283l-74 63z" />
    <glyph glyph-name="Wdieresis" unicode="&#x1e84;" horiz-adv-x="2023" 
d="M594 154l338 1280h160l338 -1280l403 1280h143l-458 -1434h-175l-331 1268l-332 -1268h-174l-459 1434h143zM723 1726q0 38 27 65t65 27t65 -27t27 -65t-27 -65t-65 -27t-65 27t-27 65zM1116 1726q0 38 27 65t65 27t65 -27t27 -65t-27 -65t-65 -27t-65 27t-27 65z" />
    <glyph glyph-name="wdieresis" unicode="&#x1e85;" horiz-adv-x="1593" 
d="M735 1061l-274 -905l-285 905h-139l360 -1061h127l273 893l272 -893h127l360 1061h-139l-284 -905l-275 905h-123zM508 1370q0 38 27 65t65 27t65 -27t27 -65t-27 -65t-65 -27t-65 27t-27 65zM901 1370q0 38 27 65t65 27t65 -27t27 -65t-27 -65t-65 -27t-65 27t-27 65z
" />
    <glyph glyph-name="Ygrave" unicode="&#x1ef2;" horiz-adv-x="1208" 
d="M539 0v569l-502 865h147l420 -725l420 725h147l-501 -865v-569h-131zM360 1829l98 81l281 -301l-74 -63z" />
    <glyph glyph-name="ygrave" unicode="&#x1ef3;" horiz-adv-x="1036" 
d="M168 1061l364 -885l338 885h129l-571 -1495h-127l168 442l-432 1053h131zM246 1473l98 81l281 -301l-74 -63z" />
    <glyph glyph-name="thinspace" unicode="&#x2009;" horiz-adv-x="409" 
 />
    <glyph glyph-name="uni2010" unicode="&#x2010;" horiz-adv-x="831" 
d="M702 616h-573v127h573v-127z" />
    <glyph glyph-name="figuredash" unicode="&#x2012;" horiz-adv-x="1173" 
d="M1092 621h-1010v116h1010v-116z" />
    <glyph glyph-name="endash" unicode="&#x2013;" horiz-adv-x="1024" 
d="M1024 621h-1024v116h1024v-116z" />
    <glyph glyph-name="emdash" unicode="&#x2014;" horiz-adv-x="2048" 
d="M2048 621h-2048v116h2048v-116z" />
    <glyph glyph-name="afii00208" unicode="&#x2015;" horiz-adv-x="2048" 
d="M1843 621h-1638v116h1638v-116z" />
    <glyph glyph-name="uni2016" unicode="&#x2016;" horiz-adv-x="843" 
d="M633 1534v-1800h-111v1800h111zM322 1534v-1800h-111v1800h111z" />
    <glyph glyph-name="underscoredbl" unicode="&#x2017;" horiz-adv-x="1243" 
d="M109 -80h1026v-102h-1026v102zM109 -287h1026v-104h-1026v104z" />
    <glyph glyph-name="quoteleft" unicode="&#x2018;" horiz-adv-x="602" 
d="M340 1063l-143 47l184 467l104 -35z" />
    <glyph glyph-name="quoteright" unicode="&#x2019;" horiz-adv-x="602" 
d="M262 1575l144 -47l-185 -467l-104 35z" />
    <glyph glyph-name="quotesinglbase" unicode="&#x201a;" horiz-adv-x="602" 
d="M262 195l144 -48l-185 -466l-104 34z" />
    <glyph glyph-name="quotereversed" unicode="&#x201b;" horiz-adv-x="602" 
d="M340 1577l145 -483l-104 -33l-184 467z" />
    <glyph glyph-name="quotedblleft" unicode="&#x201c;" horiz-adv-x="915" 
d="M653 1063l-143 47l184 467l105 -35zM340 1063l-143 47l184 467l104 -35z" />
    <glyph glyph-name="quotedblright" unicode="&#x201d;" horiz-adv-x="915" 
d="M575 1575l144 -47l-184 -467l-105 35zM262 1575l144 -47l-185 -467l-104 35z" />
    <glyph glyph-name="quotedblbase" unicode="&#x201e;" horiz-adv-x="915" 
d="M575 195l144 -48l-184 -466l-105 34zM262 195l144 -48l-185 -466l-104 34z" />
    <glyph glyph-name="uni201F" unicode="&#x201f;" horiz-adv-x="915" 
d="M340 1577l145 -483l-104 -33l-184 467zM653 1577l146 -483l-105 -33l-184 467z" />
    <glyph glyph-name="dagger" unicode="&#x2020;" horiz-adv-x="1179" 
d="M653 1059v-1327h-127v1327h-362v110h362v363h127v-363h363v-110h-363z" />
    <glyph glyph-name="daggerdbl" unicode="&#x2021;" horiz-adv-x="1179" 
d="M1016 205v-111h-363v-362h-127v362h-362v111h362v854h-362v110h362v363h127v-363h363v-110h-363v-854h363z" />
    <glyph glyph-name="bullet" unicode="&#x2022;" horiz-adv-x="880" 
d="M440 434q-101 0 -173 71.5t-72 172.5q0 102 71.5 174t173.5 72t174 -72t72 -174q0 -101 -72.5 -172.5t-173.5 -71.5z" />
    <glyph glyph-name="onedotenleader" unicode="&#x2024;" horiz-adv-x="602" 
d="M199 78q0 43 29.5 72.5t72.5 29.5t72.5 -29.5t29.5 -72.5t-29.5 -73t-72.5 -30t-72.5 30t-29.5 73z" />
    <glyph glyph-name="twodotenleader" unicode="&#x2025;" horiz-adv-x="1204" 
d="M199 78q0 43 29.5 72.5t72.5 29.5t72.5 -29.5t29.5 -72.5t-29.5 -73t-72.5 -30t-72.5 30t-29.5 73zM801 78q0 43 29.5 72.5t72.5 29.5t73 -29.5t30 -72.5t-30 -73t-73 -30t-72.5 30t-29.5 73z" />
    <glyph glyph-name="ellipsis" unicode="&#x2026;" horiz-adv-x="1806" 
d="M199 78q0 43 29.5 72.5t72.5 29.5t72.5 -29.5t29.5 -72.5t-29.5 -73t-72.5 -30t-72.5 30t-29.5 73zM1403 78q0 43 29.5 72.5t72.5 29.5t73 -29.5t30 -72.5t-30 -73t-73 -30t-72.5 30t-29.5 73zM801 78q0 43 29.5 72.5t72.5 29.5t73 -29.5t30 -72.5t-30 -73t-73 -30
t-72.5 30t-29.5 73z" />
    <glyph glyph-name="perthousand" unicode="&#x2030;" horiz-adv-x="2179" 
d="M299 1081q0 -119 44.5 -185.5t119.5 -66.5t119.5 66.5t44.5 185.5t-44.5 185.5t-119.5 66.5t-119.5 -66.5t-44.5 -185.5zM170 1081q0 162 81 264.5t212 102.5t212 -102.5t81 -264.5t-81 -264t-212 -102t-212 102t-81 264zM283 43l891 1415l96 -67l-891 -1416zM1253 352
q0 120 -44 186t-119 66t-119.5 -66.5t-44.5 -185.5t44.5 -185.5t119.5 -66.5t119 66t44 186zM1382 352q0 -162 -80.5 -264t-211.5 -102t-212 102t-81 264t81 264.5t212 102.5t211.5 -102.5t80.5 -264.5zM1880 352q0 119 -44.5 185.5t-119.5 66.5t-119.5 -66.5t-44.5 -185.5
t44.5 -185.5t119.5 -66.5t119.5 66.5t44.5 185.5zM2009 352q0 -162 -81 -264t-212 -102t-212 102t-81 264t81 264.5t212 102.5t212 -102.5t81 -264.5z" />
    <glyph glyph-name="minute" unicode="&#x2032;" horiz-adv-x="651" 
d="M281 901l-95 29l146 483l133 -45z" />
    <glyph glyph-name="second" unicode="&#x2033;" horiz-adv-x="974" 
d="M281 901l-95 29l146 483l133 -45zM604 901l-94 29l145 483l133 -45z" />
    <glyph glyph-name="guilsinglleft" unicode="&#x2039;" horiz-adv-x="712" 
d="M102 614v50l445 327l63 -84l-368 -268l368 -268l-63 -84z" />
    <glyph glyph-name="guilsinglright" unicode="&#x203a;" horiz-adv-x="712" 
d="M610 664v-50l-444 -327l-64 84l369 268l-369 268l64 84z" />
    <glyph glyph-name="exclamdbl" unicode="&#x203c;" horiz-adv-x="927" 
d="M168 78q0 43 29.5 72.5t72.5 29.5t73 -29.5t30 -72.5t-30 -73t-73 -30t-72.5 30t-29.5 73zM229 346l-28 641v447h139v-447l-29 -641h-82zM555 78q0 43 29.5 72.5t72.5 29.5t73 -29.5t30 -72.5t-30 -73t-73 -30t-72.5 30t-29.5 73zM616 346l-28 641v447h139v-447l-29 -641
h-82z" />
    <glyph glyph-name="uni203E" unicode="&#x203e;" horiz-adv-x="819" 
d="M117 1272v110h585v-110h-585z" />
    <glyph glyph-name="fraction" unicode="&#x2044;" horiz-adv-x="385" 
d="M631 1411l-785 -1438l-92 54l785 1437z" />
    <glyph glyph-name="zerosuperior" unicode="&#x2070;" 
d="M184 961q0 -181 58.5 -282t169.5 -101t169 101t58 282t-58 281.5t-169 100.5t-169.5 -100.5t-58.5 -281.5zM70 961q0 221 89.5 355t252.5 134t252.5 -134t89.5 -355t-89.5 -355.5t-252.5 -134.5t-252.5 134.5t-89.5 355.5z" />
    <glyph glyph-name="uni2071" unicode="&#x2071;" 
d="M469 1165v-680h-115v680h115zM336 1360q0 31 22.5 53.5t53.5 22.5t53 -22.5t22 -53.5t-22 -53.5t-53 -22.5t-53.5 22.5t-22.5 53.5z" />
    <glyph glyph-name="foursuperior" unicode="&#x2074;" 
d="M506 694h-459v94l465 646h109v-637h114v-103h-114v-209h-115v209zM506 1249l-324 -452h324v452z" />
    <glyph glyph-name="fivesuperior" unicode="&#x2075;" 
d="M393 571q89 0 146 56.5t57 144.5q0 96 -61.5 150.5t-163.5 54.5q-120 0 -205 -35l-21 14v478h514v-103h-403v-268q52 16 127 16q144 0 236 -84.5t92 -228.5q0 -131 -89 -214t-233 -83q-187 0 -303 125l78 72q95 -95 229 -95z" />
    <glyph glyph-name="sixsuperior" unicode="&#x2076;" 
d="M434 1348q-98 0 -156.5 -82t-64.5 -248q45 39 103 61.5t116 22.5q140 0 224.5 -90t84.5 -230q0 -138 -87.5 -225.5t-225.5 -87.5q-151 0 -244.5 115t-93.5 346q0 259 94 389.5t254 130.5q161 0 258 -127l-82 -63q-39 47 -81.5 67.5t-98.5 20.5zM422 999q-56 0 -113 -25
t-100 -71q6 -171 65.5 -251.5t151.5 -80.5q93 0 147 59.5t54 153.5q0 96 -54 155.5t-151 59.5z" />
    <glyph glyph-name="sevensuperior" unicode="&#x2077;" 
d="M711 1331l-363 -846h-125l365 846h-475v103h598v-103z" />
    <glyph glyph-name="eightsuperior" unicode="&#x2078;" 
d="M119 1206q0 110 80 177t209 67q131 0 210.5 -69.5t79.5 -184.5q0 -65 -35 -127.5t-92 -103.5q88 -46 126 -101t38 -129q0 -122 -89 -194t-232 -72t-233.5 77t-90.5 206q0 81 37 149t104 113q-112 75 -112 192zM205 750q0 -81 59.5 -129t149.5 -48q91 0 149 43t58 117
q0 25 -7 45.5t-23.5 38t-32.5 31t-46.5 29t-52.5 26t-63 28.5t-66 30q-62 -37 -93.5 -92.5t-31.5 -118.5zM584 1198q0 67 -48.5 107.5t-132.5 40.5q-79 0 -124.5 -39t-45.5 -97q0 -42 31 -75.5t64.5 -52t130.5 -62.5q2 -2 3.5 -2.5t4 -1.5t4.5 -2q113 85 113 184z" />
    <glyph glyph-name="ninesuperior" unicode="&#x2079;" 
d="M395 571q204 0 219 332q-44 -39 -104.5 -62.5t-116.5 -23.5q-139 0 -224 90t-85 230q0 138 88 225.5t225 87.5q153 0 245.5 -115t92.5 -346q0 -260 -89.5 -390t-254.5 -130q-148 0 -254 106l78 72q76 -76 180 -76zM406 920q55 0 111 25t99 71q-4 169 -64 250.5t-151 81.5
q-95 0 -148.5 -59t-53.5 -154q0 -97 54.5 -156t152.5 -59z" />
    <glyph glyph-name="uni207A" unicode="&#x207a;" 
d="M358 639v276h-282v99h282v276h109v-276h283v-99h-283v-276h-109z" />
    <glyph glyph-name="uni207B" unicode="&#x207b;" 
d="M750 915h-674v99h674v-99z" />
    <glyph glyph-name="uni207C" unicode="&#x207c;" 
d="M750 791h-674v98h674v-98zM750 1040h-674v99h674v-99z" />
    <glyph glyph-name="uni207D" unicode="&#x207d;" 
d="M285 961q0 320 192 593l78 -36q-166 -256 -166 -557q0 -302 166 -558l-78 -36q-192 273 -192 594z" />
    <glyph glyph-name="uni207E" unicode="&#x207e;" 
d="M541 961q0 -319 -193 -594l-78 36q166 256 166 558q0 301 -166 557l78 36q193 -275 193 -593z" />
    <glyph glyph-name="uni207F" unicode="&#x207f;" 
d="M471 1182q112 0 170.5 -64.5t58.5 -189.5v-443h-114v428q0 85 -35 125.5t-109 40.5q-54 0 -108 -28t-94 -68v-498h-115v680h115v-78q48 43 110 69t121 26z" />
    <glyph glyph-name="zeroinferior" unicode="&#x2080;" 
d="M184 217q0 -181 58.5 -282t169.5 -101t169 101t58 282t-58 282t-169 101t-169.5 -101t-58.5 -282zM70 217q0 221 89.5 355.5t252.5 134.5t252.5 -134.5t89.5 -355.5t-89.5 -355t-252.5 -134t-252.5 134t-89.5 355z" />
    <glyph glyph-name="oneinferior" unicode="&#x2081;" 
d="M397 549l-161 -121l-72 82l246 182h100v-950h-113v807z" />
    <glyph glyph-name="twoinferior" unicode="&#x2082;" 
d="M391 604q-110 0 -203 -96l-79 67q126 132 288 132q128 0 203.5 -71.5t75.5 -195.5q0 -153 -144 -323q-138 -163 -268 -273h420v-102h-580v96q184 160 334 334q123 145 123 268q0 78 -44 121t-126 43z" />
    <glyph glyph-name="threeinferior" unicode="&#x2083;" 
d="M397 604q-124 0 -202 -96l-80 65q118 134 282 134q126 0 201.5 -68t75.5 -182q0 -80 -52.5 -140.5t-129.5 -78.5q90 -21 147 -84.5t57 -155.5q0 -118 -82 -195t-227 -77q-195 0 -305 149l84 68q40 -56 99 -85.5t122 -29.5q91 0 143 50t52 120q0 93 -67 139.5t-193 46.5
h-78v101h78q112 0 174.5 45.5t62.5 120.5q0 70 -41.5 111.5t-120.5 41.5z" />
    <glyph glyph-name="fourinferior" unicode="&#x2084;" 
d="M506 -49h-459v94l465 645h109v-637h114v-102h-114v-209h-115v209zM506 506l-324 -453h324v453z" />
    <glyph glyph-name="fiveinferior" unicode="&#x2085;" 
d="M393 -172q89 0 146 56.5t57 144.5q0 96 -61 150t-164 54q-122 0 -205 -34l-21 14v477h514v-102h-403v-269q55 17 127 17q144 0 236 -84.5t92 -228.5q0 -131 -89 -214t-233 -83q-188 0 -303 124l78 72q94 -94 229 -94z" />
    <glyph glyph-name="sixinferior" unicode="&#x2086;" 
d="M434 604q-98 0 -156.5 -82t-64.5 -248q45 39 103 61.5t116 22.5q140 0 224.5 -89.5t84.5 -229.5q0 -138 -87.5 -225.5t-225.5 -87.5q-151 0 -244.5 115t-93.5 345q0 259 94 390t254 131q161 0 258 -127l-82 -64q-39 47 -81.5 67.5t-98.5 20.5zM422 256q-56 0 -113 -25
t-100 -71q6 -171 65.5 -251.5t151.5 -80.5q93 0 147 59.5t54 153.5q0 96 -54 155.5t-151 59.5z" />
    <glyph glyph-name="seveninferior" unicode="&#x2087;" 
d="M711 588l-363 -846h-125l365 846h-475v102h598v-102z" />
    <glyph glyph-name="eightinferior" unicode="&#x2088;" 
d="M119 463q0 110 80 177t209 67q131 0 210.5 -69.5t79.5 -184.5q0 -65 -35.5 -128.5t-91.5 -103.5q88 -46 126 -101t38 -128q0 -122 -89 -194t-232 -72t-233.5 76.5t-90.5 205.5q0 81 37 149t104 113q-112 75 -112 193zM205 6q0 -81 59.5 -128.5t149.5 -47.5q91 0 149 43
t58 117q0 28 -11.5 52.5t-26.5 41t-48.5 36t-56 30t-72 33t-76.5 34.5q-62 -37 -93.5 -92.5t-31.5 -118.5zM584 455q0 67 -48.5 107t-132.5 40q-79 0 -124.5 -38.5t-45.5 -96.5q0 -61 48.5 -97t182.5 -97q2 -1 3.5 -1.5t3.5 -1.5q113 85 113 185z" />
    <glyph glyph-name="nineinferior" unicode="&#x2089;" 
d="M395 -172q204 0 219 332q-44 -39 -104.5 -62.5t-116.5 -23.5q-139 0 -224 89.5t-85 229.5q0 138 88 226t225 88q153 0 245.5 -115t92.5 -346q0 -260 -89.5 -390t-254.5 -130q-148 0 -254 106l78 72q76 -76 180 -76zM406 176q55 0 111 25t99 71q-4 169 -64 250.5
t-151 81.5q-95 0 -148.5 -59t-53.5 -154q0 -97 54.5 -156t152.5 -59z" />
    <glyph glyph-name="uni208A" unicode="&#x208a;" 
d="M358 -104v276h-282v98h282v277h109v-277h283v-98h-283v-276h-109z" />
    <glyph glyph-name="uni208B" unicode="&#x208b;" 
d="M750 172h-674v98h674v-98z" />
    <glyph glyph-name="uni208C" unicode="&#x208c;" 
d="M750 47h-674v98h674v-98zM750 297h-674v98h674v-98z" />
    <glyph glyph-name="uni208D" unicode="&#x208d;" 
d="M285 217q0 321 192 594l78 -37q-166 -256 -166 -557t166 -557l-78 -37q-192 273 -192 594z" />
    <glyph glyph-name="uni208E" unicode="&#x208e;" 
d="M541 217q0 -319 -193 -594l-78 37q166 256 166 557t-166 557l78 37q193 -275 193 -594z" />
    <glyph glyph-name="uni2090" unicode="&#x2090;" 
d="M84 -49q0 102 76 163.5t194 61.5q148 0 236 -70v91q0 80 -45 124t-139 44q-119 0 -213 -70l-64 70q129 96 281 96q134 0 209 -66.5t75 -183.5v-467h-104v61q-102 -77 -236 -77q-117 0 -193.5 61.5t-76.5 161.5zM373 -176q59 0 121.5 21t95.5 53v116q-37 32 -96 49
t-121 17q-81 0 -130.5 -34.5t-49.5 -94.5q0 -59 49.5 -93t130.5 -34z" />
    <glyph glyph-name="uni2091" unicode="&#x2091;" 
d="M414 365q-89 0 -145.5 -58.5t-65.5 -163.5h424q-9 100 -68 161t-145 61zM432 -272q-157 0 -250.5 101t-93.5 265q0 163 90.5 265t235.5 102q144 0 234.5 -103t90.5 -264q0 -29 -2 -45h-536q10 -107 71 -166t160 -59q56 0 104 25t80 67l80 -63q-46 -59 -114.5 -92
t-149.5 -33z" />
    <glyph glyph-name="uni2092" unicode="&#x2092;" 
d="M412 365q-98 0 -163 -76t-65 -195t65 -194.5t163 -75.5t162.5 75.5t64.5 194.5t-64.5 195t-162.5 76zM412 -272q-158 0 -250 102.5t-92 263.5t92 264t250 103t250 -103t92 -264t-92 -263.5t-250 -102.5z" />
    <glyph glyph-name="uni2093" unicode="&#x2093;" 
d="M741 444l-264 -344l279 -356h-135l-209 270l-209 -270h-135l278 356l-264 344h129l201 -258l200 258h129z" />
    <glyph glyph-name="uni2094" unicode="&#x2094;" 
d="M412 -176q89 0 145.5 58t65.5 163h-424q9 -100 68 -160.5t145 -60.5zM393 461q157 0 250.5 -101.5t93.5 -265.5q0 -163 -90 -264.5t-235 -101.5q-144 0 -235 103t-91 263q0 29 2 45h537q-10 107 -71.5 166.5t-160.5 59.5q-56 0 -104 -25.5t-80 -67.5l-80 64
q46 59 114.5 92t149.5 33z" />
    <glyph glyph-name="uni20A0" unicode="&#x20a0;" horiz-adv-x="1560" 
d="M813 0v489q-106 -69 -244 -69q-205 0 -341 147t-136 371q0 229 131.5 374.5t345.5 145.5q129 0 228.5 -56.5t158.5 -150.5l-102 -65q-113 153 -283 153q-158 0 -251 -109t-93 -292q0 -178 96.5 -288.5t247.5 -110.5q157 0 242 88v377h649v-119h-518v-310h483v-118h-483
v-338h533v-119h-664z" />
    <glyph glyph-name="colonmonetary" unicode="&#x20a1;" horiz-adv-x="1392" 
d="M293 -113l61 222q-122 97 -189 255t-67 353q0 212 77.5 377.5t221.5 261t334 100.5l43 156l90 -27l-37 -131q58 -5 138 -27l51 185l90 -27l-53 -190q157 -76 254 -226l-109 -67q-78 111 -180 170l-326 -1170q40 -4 64 -4q142 0 249.5 56t192.5 178l109 -68
q-87 -137 -228.5 -213t-326.5 -76q-41 0 -95 7l-32 -121l-90 26l30 113q-83 26 -129 53l-53 -192zM233 717q0 -299 160 -469l303 1083q-208 -22 -335.5 -185.5t-127.5 -428.5zM471 180q52 -36 129 -59l332 1190q-69 19 -137 22z" />
    <glyph glyph-name="uni20A2" unicode="&#x20a2;" horiz-adv-x="1392" 
d="M98 717q0 216 80.5 384t229.5 262.5t344 94.5q185 0 326.5 -76t228.5 -213l-109 -67q-85 122 -192 177.5t-250 55.5q-232 0 -377.5 -166.5t-145.5 -451.5q0 -227 94 -381t255 -209v750h123v-144q63 79 152.5 123.5t195.5 44.5q23 0 69 -4v-115q-58 4 -88 4
q-98 0 -187.5 -51.5t-141.5 -132.5v-502q12 -2 51 -2q142 0 249.5 56t192.5 178l109 -68q-87 -137 -228.5 -213t-326.5 -76q-194 0 -343.5 94.5t-230 263t-80.5 384.5z" />
    <glyph glyph-name="franc" unicode="&#x20a3;" horiz-adv-x="1089" 
d="M47 928h123v506h872v-119h-741v-387h633v-90h-633v-185h633v-90h-633v-563h-131v563h-123v90h123v185h-123v90z" />
    <glyph glyph-name="lira" unicode="&#x20a4;" horiz-adv-x="1183" 
d="M252 860v180q0 209 112 313.5t320 104.5q120 0 226 -48t180 -134l-99 -80q-126 139 -311 139q-297 0 -297 -293v-182h444v-90h-444v-186h444v-90h-444q-3 -248 -139 -375h870v-119h-1026v104q164 145 164 377v13h-164v90h164v186h-164v90h164z" />
    <glyph glyph-name="uni20A6" unicode="&#x20a6;" horiz-adv-x="1447" 
d="M47 899h133v535h133l361 -535h463v535h131v-535h133v-90h-133v-186h133v-91h-133v-532h-131l-363 532h-463v-532h-131v532h-133v91h133v186h-133v90zM311 809v-186h402l-125 186h-277zM735 809l127 -186h275v186h-402zM311 1217v-318h215zM924 532l213 -315v315h-213z
" />
    <glyph glyph-name="peseta" unicode="&#x20a7;" horiz-adv-x="2082" 
d="M1161 1378v-317h377q63 24 129 24q94 0 165 -31t138 -100l-80 -75q-96 96 -213 96q-84 0 -132 -41.5t-48 -114.5q0 -67 46.5 -115t172.5 -100q142 -58 210.5 -133t68.5 -178q0 -141 -93 -217t-255 -76h-318q-145 0 -219 88t-74 274v588h-137q-13 -199 -151.5 -304
t-368.5 -105h-78v-541h-131v1434h227q217 0 347 -96t155 -277h137v317h125zM1368 813q0 73 41 137h-248v-594q0 -134 42.5 -189.5t133.5 -55.5h310q110 0 164.5 46t54.5 130q0 72 -46 121t-159 92q-158 61 -225.5 133.5t-67.5 179.5zM770 987q0 166 -92 248t-291 82h-86
v-660h86q195 0 289 82t94 248z" />
    <glyph glyph-name="uni20A8" unicode="&#x20a8;" horiz-adv-x="2086" 
d="M1087 1024q0 -149 -86.5 -248.5t-238.5 -138.5l385 -637h-152l-370 618q-41 -2 -127 -2h-197v-616h-131v1434h399q232 0 375 -108.5t143 -301.5zM952 1024q0 141 -99 217t-292 76h-260v-584h260q193 0 292 75t99 216zM1602 90q127 0 198.5 50.5t71.5 133.5q0 87 -71 140
t-232 94q-201 51 -283 119.5t-82 187.5q0 122 95.5 196t265.5 74q108 0 206.5 -38t172.5 -109l-86 -82q-126 115 -293 115q-103 0 -168.5 -42t-65.5 -114q0 -69 62 -110t233 -89q200 -56 286.5 -131.5t86.5 -201.5q0 -142 -103.5 -225t-289.5 -83q-131 0 -249.5 47.5
t-207.5 139.5l90 86q74 -76 169.5 -117t193.5 -41z" />
    <glyph glyph-name="uni20A9" unicode="&#x20a9;" horiz-adv-x="2023" 
d="M41 594h274l-59 186h-215v90h186l-180 564h143l177 -564h415l150 564h160l147 -564h416l178 564h143l-180 -564h186v-90h-215l-59 -186h274v-90h-303l-161 -504h-175l-131 504h-401l-131 -504h-174l-162 504h-303v90zM1264 780l49 -186h256l57 186h-362zM395 780l60 -186
h254l49 186h-363zM885 780l-49 -186h352l-49 186h-254zM1012 1268l-105 -398h209zM1335 504l95 -350l110 350h-205zM594 154l92 350h-203z" />
    <glyph glyph-name="afii57636" unicode="&#x20aa;" horiz-adv-x="1730" 
d="M1561 1434v-1434h-469q-241 0 -379 149.5t-138 436.5v311h132v-295q0 -133 27 -228t78.5 -150t119.5 -80t158 -25h340v1315h131zM170 0v1434h469q241 0 378.5 -149.5t137.5 -436.5v-311h-131v294q0 133 -27 228t-78.5 150.5t-119.5 80.5t-158 25h-340v-1315h-131z" />
    <glyph glyph-name="dong" unicode="&#x20ab;" horiz-adv-x="1181" 
d="M1030 1284h135v-104h-135v-1180h-123v123q-162 -148 -354 -148q-220 0 -337.5 135t-117.5 390t117.5 389.5t337.5 134.5q193 0 354 -147v303h-426v104h426v150h123v-150zM225 500q0 -208 86 -309t264 -101q87 0 178.5 45.5t153.5 114.5v500q-61 69 -153 114t-179 45
q-178 0 -264 -101t-86 -308zM995 -190v-103h-714v103h714z" />
    <glyph glyph-name="Euro" unicode="&#x20ac;" horiz-adv-x="1447" 
d="M922 797h-629q-4 -54 -4 -80q0 -30 4 -84h581l-28 -90h-541q41 -210 176.5 -327.5t329.5 -117.5q142 0 249.5 56t192.5 178l109 -68q-87 -137 -228.5 -213t-326.5 -76q-252 0 -422.5 154.5t-216.5 413.5h-127v90h115q-2 27 -2 84q0 53 2 80h-115v90h127q43 260 214 415.5
t425 155.5q185 0 326.5 -76t228.5 -213l-109 -67q-85 122 -192 177.5t-250 55.5q-194 0 -330.5 -119t-177.5 -329h645z" />
    <glyph glyph-name="afii61248" unicode="&#x2105;" horiz-adv-x="2076" 
d="M1477 1411l-787 -1438l-92 50l786 1441zM1307 440q0 -158 79.5 -256t208.5 -98t209 98t80 256t-80 256.5t-209 98.5t-208.5 -98.5t-79.5 -256.5zM1182 440q0 200 113 330.5t300 130.5t300.5 -130.5t113.5 -330.5t-113.5 -330t-300.5 -130t-300 130t-113 330zM68 991
q0 -204 116 -333.5t305 -129.5q242 0 365 207l-96 56q-105 -156 -269 -156q-137 0 -216.5 95.5t-79.5 260.5t79.5 261t216.5 96q164 0 269 -156l96 55q-123 207 -365 207q-189 0 -305 -129.5t-116 -333.5z" />
    <glyph glyph-name="uni2109" unicode="&#x2109;" horiz-adv-x="1722" 
d="M803 0v1434h872v-119h-741v-541h672v-119h-672v-655h-131zM406 926q-112 0 -190.5 78t-78.5 188t78.5 188t190.5 78t190 -77.5t78 -188.5t-78 -188.5t-190 -77.5zM406 1362q-70 0 -118 -49t-48 -121t48 -121t118 -49t117.5 49t47.5 121t-47.5 121t-117.5 49z" />
    <glyph glyph-name="afii61289" unicode="&#x2113;" horiz-adv-x="950" 
d="M90 184q93 25 168 62q-54 122 -77 271t-23 278q0 308 108.5 485.5t280.5 177.5q137 0 207.5 -123t70.5 -334q0 -254 -103 -465t-300 -341q70 -103 180 -103q97 0 174 74l68 -107q-90 -84 -234 -84q-175 0 -291 160q-88 -42 -184 -65zM291 805q0 -303 74 -498
q161 110 244 287t83 407q0 180 -39.5 260t-115.5 80q-101 0 -173.5 -146.5t-72.5 -389.5z" />
    <glyph glyph-name="afii61352" unicode="&#x2116;" horiz-adv-x="1898" 
d="M170 0v1434h131l512 -1155v1155h127v-1434h-131l-512 1155v-1155h-127zM1812 106v-106h-768v106h768zM1425 244q166 0 262.5 115.5t96.5 302.5t-96.5 302t-262.5 115t-262 -115t-96 -302q0 -188 96 -303t262 -115zM1425 354q-108 0 -167.5 80t-59.5 228t59.5 227.5
t167.5 79.5t168 -79.5t60 -227.5t-60 -228t-168 -80z" />
    <glyph glyph-name="uni2117" unicode="&#x2117;" horiz-adv-x="1708" 
d="M1114 854q0 -92 -59 -146.5t-170 -54.5h-193v402h193q111 0 170 -54.5t59 -146.5zM692 565h201q150 0 238 77.5t88 211.5t-88 211.5t-238 77.5h-305v-854h104v276zM113 717q0 151 58.5 288.5t157.5 236.5t236.5 157.5t288.5 58.5t288.5 -58.5t236.5 -157.5t157.5 -236.5
t58.5 -288.5q0 -202 -99 -372.5t-269.5 -270t-372.5 -99.5t-372.5 99.5t-269.5 270t-99 372.5zM186 717q0 -137 52 -261t141 -214.5t213 -143.5t262 -53q139 0 263 53t212.5 143.5t140.5 214.5t52 261q0 136 -52 260t-140.5 214.5t-212.5 144t-263 53.5q-184 0 -338 -90.5
t-242 -245t-88 -336.5z" />
    <glyph glyph-name="uni2120" unicode="&#x2120;" horiz-adv-x="1382" 
d="M53 877l66 55q81 -88 186 -88q62 0 95.5 27.5t33.5 74.5q0 49 -36 80t-124 57q-103 31 -145.5 76t-42.5 109q0 76 55 125t152 49q144 0 223 -101l-59 -53q-61 74 -156 74q-52 0 -84.5 -24.5t-32.5 -63.5q0 -67 129 -109q114 -38 166.5 -85.5t52.5 -131.5
q0 -85 -60.5 -133.5t-166.5 -48.5q-156 0 -252 111zM909 893l-188 348v-467h-94v660h84l235 -437l236 437h84v-660h-95v467l-188 -348h-74z" />
    <glyph glyph-name="uni2121" unicode="&#x2121;" horiz-adv-x="1861" 
d="M385 0v1327h-348v107h819v-107h-346v-1327h-125zM803 590h495q-1 171 -70.5 278t-178.5 107q-106 0 -174.5 -106t-71.5 -279zM1575 0v1495h125v-1495h-125zM1296 236l99 -70q-120 -191 -320 -191q-101 0 -179.5 46t-126 125t-71.5 177t-24 209q0 250 104 401.5t271 151.5
q173 0 275.5 -152t102.5 -398v-56h-624q2 -108 32 -195.5t91.5 -142.5t146.5 -55q68 0 126.5 41t96.5 109z" />
    <glyph glyph-name="trademark" unicode="&#x2122;" horiz-adv-x="1347" 
d="M233 776v578h-206v80h505v-80h-204v-578h-95zM874 893l-188 348v-467h-94v660h84l235 -437l236 437h84v-660h-94v467l-189 -348h-74z" />
    <glyph glyph-name="Omega" unicode="&#x2126;" horiz-adv-x="1449" 
d="M725 1339q-114 0 -208 -46t-155.5 -125.5t-95 -185t-33.5 -224.5q0 -394 365 -641v-117h-477v119h303q-149 108 -237.5 269.5t-88.5 369.5q0 197 72.5 354.5t216.5 251.5t338 94t338 -94t216.5 -251.5t72.5 -354.5q0 -208 -88.5 -369.5t-237.5 -269.5h303v-119h-477v117
q365 247 365 641q0 119 -33.5 224.5t-95 185t-155.5 125.5t-208 46z" />
    <glyph glyph-name="estimated" unicode="&#x212e;" horiz-adv-x="1525" 
d="M1231 199l63 -60q-194 -164 -463 -164q-158 0 -283.5 38.5t-208.5 105.5t-138 162t-79 202.5t-24 233.5q0 121 28.5 231t85.5 203t137 161.5t189 107t236 38.5q152 0 276.5 -59t205.5 -161.5t125 -239t44 -293.5v-33h-1022v-494q155 -127 431 -127q113 0 216 38t181 110z
M768 1378q-220 0 -365 -133v-493h727v497q-138 129 -362 129z" />
    <glyph glyph-name="onethird" unicode="&#x2153;" horiz-adv-x="1984" 
d="M397 1292l-161 -121l-72 82l246 183h100v-951h-113v807zM1430 1411l-785 -1438l-92 54l784 1437zM1565 862q-125 0 -203 -96l-80 65q118 134 283 134q126 0 201 -68t75 -182q0 -80 -52.5 -140.5t-129.5 -78.5q90 -21 147.5 -84.5t57.5 -155.5q0 -118 -82.5 -195
t-227.5 -77q-195 0 -305 149l84 68q40 -56 99 -85.5t122 -29.5q91 0 143 50t52 120q0 93 -67 139.5t-193 46.5h-78v101h78q112 0 174.5 45.5t62.5 120.5q0 70 -41 111.5t-120 41.5z" />
    <glyph glyph-name="twothirds" unicode="&#x2154;" horiz-adv-x="1984" 
d="M391 1348q-109 0 -203 -97l-79 68q125 131 288 131q128 0 203.5 -71t75.5 -195q0 -154 -144 -324q-135 -159 -268 -272h420v-103h-580v97q188 162 334 333q123 145 123 269q0 78 -44 121t-126 43zM1430 1411l-785 -1438l-92 54l784 1437zM1565 862q-125 0 -203 -96
l-80 65q118 134 283 134q126 0 201 -68t75 -182q0 -80 -52.5 -140.5t-129.5 -78.5q90 -21 147.5 -84.5t57.5 -155.5q0 -118 -82.5 -195t-227.5 -77q-195 0 -305 149l84 68q40 -56 99 -85.5t122 -29.5q91 0 143 50t52 120q0 93 -67 139.5t-193 46.5h-78v101h78
q112 0 174.5 45.5t62.5 120.5q0 70 -41 111.5t-120 41.5z" />
    <glyph glyph-name="onefifth" unicode="&#x2155;" horiz-adv-x="1984" 
d="M397 1292l-161 -121l-72 82l246 183h100v-951h-113v807zM1430 1411l-785 -1438l-92 54l784 1437zM1552 86q89 0 146 56.5t57 144.5q0 96 -61.5 150.5t-163.5 54.5q-120 0 -205 -35l-20 14v477h514v-102h-404v-268q52 16 127 16q144 0 236 -84.5t92 -228.5
q0 -131 -89 -214t-233 -83q-187 0 -303 125l78 71q94 -94 229 -94z" />
    <glyph glyph-name="twofifths" unicode="&#x2156;" horiz-adv-x="1984" 
d="M391 1348q-109 0 -203 -97l-79 68q125 131 288 131q128 0 203.5 -71t75.5 -195q0 -154 -144 -324q-135 -159 -268 -272h420v-103h-580v97q188 162 334 333q123 145 123 269q0 78 -44 121t-126 43zM1430 1411l-785 -1438l-92 54l784 1437zM1552 86q89 0 146 56.5t57 144.5
q0 96 -61.5 150.5t-163.5 54.5q-120 0 -205 -35l-20 14v477h514v-102h-404v-268q52 16 127 16q144 0 236 -84.5t92 -228.5q0 -131 -89 -214t-233 -83q-187 0 -303 125l78 71q94 -94 229 -94z" />
    <glyph glyph-name="threefifths" unicode="&#x2157;" horiz-adv-x="1984" 
d="M1430 1411l-785 -1438l-92 54l784 1437zM397 1348q-123 0 -202 -97l-80 66q117 133 282 133q126 0 201.5 -68t75.5 -182q0 -80 -52.5 -140.5t-129.5 -78.5q90 -21 147 -84.5t57 -155.5q0 -118 -82 -195t-227 -77q-195 0 -305 149l84 68q40 -56 99 -85.5t122 -29.5
q91 0 143 50t52 120q0 94 -67.5 140.5t-192.5 46.5h-78v100h78q112 0 174.5 45.5t62.5 120.5q0 70 -41.5 112t-120.5 42zM1552 86q89 0 146 56.5t57 144.5q0 96 -61.5 150.5t-163.5 54.5q-120 0 -205 -35l-20 14v477h514v-102h-404v-268q52 16 127 16q144 0 236 -84.5
t92 -228.5q0 -131 -89 -214t-233 -83q-187 0 -303 125l78 71q94 -94 229 -94z" />
    <glyph glyph-name="fourfifths" unicode="&#x2158;" horiz-adv-x="1984" 
d="M506 694h-459v94l465 646h109v-637h114v-103h-114v-209h-115v209zM506 1249l-324 -452h324v452zM1430 1411l-785 -1438l-92 54l784 1437zM1552 86q89 0 146 56.5t57 144.5q0 96 -61.5 150.5t-163.5 54.5q-120 0 -205 -35l-20 14v477h514v-102h-404v-268q52 16 127 16
q144 0 236 -84.5t92 -228.5q0 -131 -89 -214t-233 -83q-187 0 -303 125l78 71q94 -94 229 -94z" />
    <glyph glyph-name="onesixth" unicode="&#x2159;" horiz-adv-x="1984" 
d="M397 1292l-161 -121l-72 82l246 183h100v-951h-113v807zM1430 1411l-785 -1438l-92 54l784 1437zM1593 862q-98 0 -156.5 -82t-64.5 -248q45 39 103 61.5t116 22.5q141 0 225.5 -89.5t84.5 -229.5q0 -138 -88 -225.5t-226 -87.5q-151 0 -244.5 115t-93.5 345
q0 259 94 390t254 131q161 0 258 -127l-81 -64q-74 88 -181 88zM1581 514q-56 0 -113 -25t-100 -71q6 -171 65.5 -251.5t151.5 -80.5q93 0 147 59.5t54 153.5q0 96 -54 155.5t-151 59.5z" />
    <glyph glyph-name="fivesixths" unicode="&#x215a;" horiz-adv-x="1984" 
d="M393 571q89 0 146 56.5t57 144.5q0 96 -61.5 150.5t-163.5 54.5q-120 0 -205 -35l-21 14v478h514v-103h-403v-268q52 16 127 16q144 0 236 -84.5t92 -228.5q0 -131 -89 -214t-233 -83q-187 0 -303 125l78 72q95 -95 229 -95zM1593 862q-98 0 -156.5 -82t-64.5 -248
q45 39 103 61.5t116 22.5q141 0 225.5 -89.5t84.5 -229.5q0 -138 -88 -225.5t-226 -87.5q-151 0 -244.5 115t-93.5 345q0 259 94 390t254 131q161 0 258 -127l-81 -64q-74 88 -181 88zM1581 514q-56 0 -113 -25t-100 -71q6 -171 65.5 -251.5t151.5 -80.5q93 0 147 59.5
t54 153.5q0 96 -54 155.5t-151 59.5zM1430 1411l-785 -1438l-92 54l784 1437z" />
    <glyph glyph-name="oneeighth" unicode="&#x215b;" horiz-adv-x="1984" 
d="M397 1292l-161 -121l-72 82l246 183h100v-951h-113v807zM1430 1411l-785 -1438l-92 54l784 1437zM1278 721q0 -117 113 -193q-67 -45 -104.5 -113t-37.5 -149q0 -129 90.5 -205.5t233.5 -76.5t232 72t89 194q0 74 -38 128.5t-125 100.5q56 40 91.5 103.5t35.5 128.5
q0 115 -80 184.5t-211 69.5q-129 0 -209 -67t-80 -177zM1364 264q0 63 31.5 118.5t93.5 92.5q27 -12 76.5 -34.5t72 -33t56 -30t48.5 -36t26.5 -41t11.5 -52.5q0 -74 -58 -117t-149 -43q-90 0 -149.5 47.5t-59.5 128.5zM1743 713q0 -100 -113 -185q-45 21 -63.5 29.5
t-51.5 25t-45.5 25.5t-32 24t-26 27.5t-12.5 29.5t-6 36q0 58 45.5 96.5t124.5 38.5q84 0 132 -40t48 -107z" />
    <glyph glyph-name="threeeighths" unicode="&#x215c;" horiz-adv-x="1984" 
d="M1430 1411l-785 -1438l-92 54l784 1437zM397 1348q-123 0 -202 -97l-80 66q117 133 282 133q126 0 201.5 -68t75.5 -182q0 -80 -52.5 -140.5t-129.5 -78.5q90 -21 147 -84.5t57 -155.5q0 -118 -82 -195t-227 -77q-195 0 -305 149l84 68q40 -56 99 -85.5t122 -29.5
q91 0 143 50t52 120q0 94 -67.5 140.5t-192.5 46.5h-78v100h78q112 0 174.5 45.5t62.5 120.5q0 70 -41.5 112t-120.5 42zM1278 721q0 -117 113 -193q-67 -45 -104.5 -113t-37.5 -149q0 -129 90.5 -205.5t233.5 -76.5t232 72t89 194q0 74 -38 128.5t-125 100.5
q56 40 91.5 103.5t35.5 128.5q0 115 -80 184.5t-211 69.5q-129 0 -209 -67t-80 -177zM1364 264q0 63 31.5 118.5t93.5 92.5q27 -12 76.5 -34.5t72 -33t56 -30t48.5 -36t26.5 -41t11.5 -52.5q0 -74 -58 -117t-149 -43q-90 0 -149.5 47.5t-59.5 128.5zM1743 713
q0 -100 -113 -185q-45 21 -63.5 29.5t-51.5 25t-45.5 25.5t-32 24t-26 27.5t-12.5 29.5t-6 36q0 58 45.5 96.5t124.5 38.5q84 0 132 -40t48 -107z" />
    <glyph glyph-name="fiveeighths" unicode="&#x215d;" horiz-adv-x="1984" 
d="M1430 1411l-785 -1438l-92 54l784 1437zM1278 721q0 -117 113 -193q-67 -45 -104.5 -113t-37.5 -149q0 -129 90.5 -205.5t233.5 -76.5t232 72t89 194q0 74 -38 128.5t-125 100.5q56 40 91.5 103.5t35.5 128.5q0 115 -80 184.5t-211 69.5q-129 0 -209 -67t-80 -177z
M1364 264q0 63 31.5 118.5t93.5 92.5q27 -12 76.5 -34.5t72 -33t56 -30t48.5 -36t26.5 -41t11.5 -52.5q0 -74 -58 -117t-149 -43q-90 0 -149.5 47.5t-59.5 128.5zM1743 713q0 -100 -113 -185q-45 21 -63.5 29.5t-51.5 25t-45.5 25.5t-32 24t-26 27.5t-12.5 29.5t-6 36
q0 58 45.5 96.5t124.5 38.5q84 0 132 -40t48 -107zM393 571q89 0 146 56.5t57 144.5q0 96 -61.5 150.5t-163.5 54.5q-120 0 -205 -35l-21 14v478h514v-103h-403v-268q52 16 127 16q144 0 236 -84.5t92 -228.5q0 -131 -89 -214t-233 -83q-187 0 -303 125l78 72
q95 -95 229 -95z" />
    <glyph glyph-name="seveneighths" unicode="&#x215e;" horiz-adv-x="1984" 
d="M711 1331l-363 -846h-125l365 846h-475v103h598v-103zM1430 1411l-785 -1438l-92 54l784 1437zM1278 721q0 -117 113 -193q-67 -45 -104.5 -113t-37.5 -149q0 -129 90.5 -205.5t233.5 -76.5t232 72t89 194q0 74 -38 128.5t-125 100.5q56 40 91.5 103.5t35.5 128.5
q0 115 -80 184.5t-211 69.5q-129 0 -209 -67t-80 -177zM1364 264q0 63 31.5 118.5t93.5 92.5q27 -12 76.5 -34.5t72 -33t56 -30t48.5 -36t26.5 -41t11.5 -52.5q0 -74 -58 -117t-149 -43q-90 0 -149.5 47.5t-59.5 128.5zM1743 713q0 -100 -113 -185q-45 21 -63.5 29.5
t-51.5 25t-45.5 25.5t-32 24t-26 27.5t-12.5 29.5t-6 36q0 58 45.5 96.5t124.5 38.5q84 0 132 -40t48 -107z" />
    <glyph glyph-name="uni215F" unicode="&#x215f;" horiz-adv-x="1984" 
d="M397 1292l-161 -121l-72 82l246 183h100v-951h-113v807zM1430 1411l-785 -1438l-92 54l784 1437z" />
    <glyph glyph-name="arrowleft" unicode="&#x2190;" horiz-adv-x="1761" 
d="M426 731h1262v-102h-1262l96 -322l-448 373l448 373z" />
    <glyph glyph-name="arrowup" unicode="&#x2191;" horiz-adv-x="1761" 
d="M932 -78h-103v1260l-321 -97l373 449l372 -449l-321 97v-1260z" />
    <glyph glyph-name="arrowright" unicode="&#x2192;" horiz-adv-x="1761" 
d="M74 731h1261l-96 322l449 -373l-449 -373l96 322h-1261v102z" />
    <glyph glyph-name="arrowdown" unicode="&#x2193;" horiz-adv-x="1761" 
d="M829 1536h103v-1260l321 97l-372 -449l-373 449l321 -97v1260z" />
    <glyph glyph-name="arrowboth" unicode="&#x2194;" horiz-adv-x="1761" 
d="M426 731h909l-96 322l449 -373l-449 -373l96 322h-909l96 -322l-448 373l448 373z" />
    <glyph glyph-name="arrowupdn" unicode="&#x2195;" horiz-adv-x="1761" 
d="M932 1182v-908l321 97l-372 -449l-373 449l321 -97v908l-321 -97l373 449l372 -449z" />
    <glyph glyph-name="arrowupdnbse" unicode="&#x21a8;" horiz-adv-x="1761" 
d="M893 -63h373v-117h-770v117h372l-360 434l321 -97v908l-321 -97l373 449l372 -449l-321 97v-908l321 97z" />
    <glyph glyph-name="partialdiff" unicode="&#x2202;" horiz-adv-x="1187" 
d="M561 1335q-97 0 -169.5 -35.5t-135.5 -113.5l-98 74q154 198 405 198q118 0 209 -45t157.5 -137.5t101 -242.5t34.5 -353q0 -184 -36 -321t-103.5 -220t-157.5 -123.5t-203 -40.5q-206 0 -337.5 128.5t-131.5 336.5q0 212 123 343.5t330 131.5q213 0 379 -145
q-21 565 -367 565zM567 793q-159 0 -247.5 -93.5t-88.5 -255.5q0 -159 90 -252.5t246 -93.5q56 0 104.5 15.5t94.5 53.5t80 97t56.5 153t27.5 214q-76 73 -173 117.5t-190 44.5z" />
    <glyph glyph-name="Delta" unicode="&#x2206;" horiz-adv-x="1355" 
d="M223 121h910l-455 1075zM1296 0h-1237l-18 27l621 1431h32l621 -1431z" />
    <glyph glyph-name="product" unicode="&#x220f;" horiz-adv-x="1394" 
d="M170 -227v1743h1055v-1743h-131v1624h-793v-1624h-131z" />
    <glyph glyph-name="summation" unicode="&#x2211;" horiz-adv-x="1241" 
d="M88 -115l496 793l-496 719v119h1092v-119h-938l471 -692v-58l-471 -756h938v-118h-1092v112z" />
    <glyph glyph-name="minus" unicode="&#x2212;" horiz-adv-x="1265" 
d="M1137 621h-1008v116h1008v-116z" />
    <glyph glyph-name="uni2215" unicode="&#x2215;" horiz-adv-x="385" 
d="M631 1411l-785 -1438l-92 54l785 1437z" />
    <glyph glyph-name="uni2219" unicode="&#x2219;" horiz-adv-x="581" 
d="M188 662q0 43 30 72.5t73 29.5t72.5 -29.5t29.5 -72.5t-29.5 -73t-72.5 -30t-73 30t-30 73z" />
    <glyph glyph-name="radical" unicode="&#x221a;" horiz-adv-x="1234" 
d="M211 766h219l283 -576l331 1387h109l-385 -1577h-66l-335 672h-156v94z" />
    <glyph glyph-name="infinity" unicode="&#x221e;" horiz-adv-x="1579" 
d="M788 600q-98 -114 -185 -160.5t-181 -46.5q-129 0 -211 79t-82 208t82 208t211 79q93 0 180.5 -47t185.5 -160q98 113 186 160t181 47q129 0 211 -79t82 -208t-82 -208t-211 -79q-94 0 -181.5 46.5t-185.5 160.5zM424 866q-83 0 -129.5 -50t-46.5 -136t46.5 -136
t129.5 -50q74 0 141 38t156 148q-89 110 -156 148t-141 38zM1153 866q-74 0 -141 -38t-156 -148q89 -110 156 -148t141 -38q83 0 129.5 50t46.5 136t-46.5 136t-129.5 50z" />
    <glyph glyph-name="orthogonal" unicode="&#x221f;" horiz-adv-x="1302" 
d="M1255 109v-109h-1044v1178h127v-1069h917z" />
    <glyph glyph-name="intersection" unicode="&#x2229;" horiz-adv-x="1562" 
d="M782 1264q143 0 252 -51t178.5 -145.5t104.5 -226t35 -296.5v-545h-127v547q0 301 -118 455.5t-325 154.5q-208 0 -326 -154t-118 -456v-547h-127v545q0 221 61 380.5t190.5 249t319.5 89.5z" />
    <glyph glyph-name="integral" unicode="&#x222b;" horiz-adv-x="806" 
d="M340 -131v1356q0 165 79 238t243 73q62 0 112 -6v-111q-56 6 -112 6q-102 0 -148.5 -47.5t-46.5 -160.5v-1356q0 -165 -79 -238.5t-243 -73.5q-54 0 -112 7v110q55 -6 112 -6q102 0 148.5 48t46.5 161z" />
    <glyph glyph-name="approxequal" unicode="&#x2248;" horiz-adv-x="1265" 
d="M602 444q-64 48 -113.5 70.5t-107.5 22.5q-127 0 -170 -175l-111 19q21 122 95.5 197t181.5 75q137 0 287 -116q64 -48 113.5 -70.5t107.5 -22.5q128 0 170 174l110 -18q-21 -122 -95 -197t-181 -75q-137 0 -287 116zM602 827q-64 48 -113.5 70.5t-107.5 22.5
q-127 0 -170 -175l-111 19q21 122 95.5 197t181.5 75q137 0 287 -116q64 -48 113.5 -70.5t107.5 -22.5q128 0 170 174l110 -18q-21 -122 -95 -197t-181 -75q-137 0 -287 116z" />
    <glyph glyph-name="notequal" unicode="&#x2260;" horiz-adv-x="1265" 
d="M1137 389h-611l-221 -364l-90 53l188 311h-274v117h346l211 348h-557v117h629l205 334l88 -56l-170 -278h256v-117h-328l-211 -348h539v-117z" />
    <glyph glyph-name="equivalence" unicode="&#x2261;" horiz-adv-x="1265" 
d="M1137 977h-1008v117h1008v-117zM1137 266h-1008v117h1008v-117zM1137 621h-1008v116h1008v-116z" />
    <glyph glyph-name="lessequal" unicode="&#x2264;" horiz-adv-x="1265" 
d="M1137 0h-1008v117h1008v-117zM129 780l952 455l49 -113l-813 -381l813 -381l-49 -112l-952 454v78z" />
    <glyph glyph-name="greaterequal" unicode="&#x2265;" horiz-adv-x="1265" 
d="M1137 0h-1008v117h1008v-117zM184 1235l953 -455v-78l-953 -454l-49 112l813 381l-813 381z" />
    <glyph glyph-name="house" unicode="&#x2302;" horiz-adv-x="1449" 
d="M1239 672v-672h-1028v672l514 590zM338 104h774v523l-387 446l-387 -446v-523z" />
    <glyph glyph-name="revlogicalnot" unicode="&#x2310;" horiz-adv-x="1265" 
d="M1145 895v-117h-869v-436h-135v553h1004z" />
    <glyph glyph-name="uni2318" unicode="&#x2318;" horiz-adv-x="1859" 
d="M678 788h-129q-146 0 -235 70t-89 203q0 120 79.5 197t209.5 77q137 0 212 -85t75 -226v-129h258v129q0 141 75 226t212 85q130 0 209 -77t79 -197q0 -133 -89 -203t-234 -70h-129v-256h129q146 0 234.5 -69.5t88.5 -202.5q0 -120 -79 -197t-209 -77q-137 0 -212 85
t-75 226v129h-258v-129q0 -141 -75 -226t-212 -85q-130 0 -209.5 77t-79.5 197q0 133 89 202.5t235 69.5h129v256zM1178 891h127q206 0 206 170q0 78 -44.5 123t-123.5 45q-165 0 -165 -209v-129zM1305 430h-127v-129q0 -209 165 -209q79 0 123.5 45t44.5 123
q0 170 -206 170zM682 430h-127q-207 0 -207 -170q0 -78 44.5 -123t123.5 -45q166 0 166 209v129zM555 891h127v129q0 209 -166 209q-79 0 -123.5 -45t-44.5 -123q0 -170 207 -170zM1059 788h-258v-256h258v256z" />
    <glyph glyph-name="lozenge" unicode="&#x25ca;" horiz-adv-x="1177" 
d="M588 -322l-500 940l500 941l499 -941zM588 1296l-359 -678l359 -677l358 677z" />
    <glyph glyph-name="H18533" unicode="&#x25cf;" horiz-adv-x="2048" 
d="M332 668q0 187 93 346.5t252.5 252.5t346.5 93t346.5 -93t252.5 -252.5t93 -346.5t-93 -347t-252.5 -253t-346.5 -93t-346.5 93t-252.5 253t-93 347z" />
    <glyph glyph-name="fi" horiz-adv-x="1140" 
d="M565 1495q65 0 111 -6v-115q-52 6 -111 6q-103 0 -149.5 -45.5t-46.5 -158.5v-115h608v-1061h-123v950h-485v-950h-123v950h-211v111h211v123q0 165 78 238t241 73zM821 1391q0 38 28 66t66 28t66.5 -28t28.5 -66t-28.5 -66.5t-66.5 -28.5t-66 28.5t-28 66.5z" />
    <glyph glyph-name="fl" horiz-adv-x="1107" 
d="M246 1061v121q0 164 79 238.5t240 74.5q105 0 256 -31v31h123v-1495h-123v1358q-137 26 -254 26q-103 0 -150.5 -49.5t-47.5 -163.5v-110h286v-111h-286v-950h-123v950h-211v111h211z" />
    <glyph glyph-name="commaaccent" horiz-adv-x="819" 
d="M291 -494l123 396l112 -39l-145 -387z" />
    <glyph glyph-name="zero.tnum" horiz-adv-x="1226" 
d="M109 717q0 162 31.5 296.5t93 234t158 155t220.5 55.5q164 0 279.5 -97t170 -261.5t54.5 -382.5q0 -162 -31.5 -296.5t-93 -234.5t-158.5 -155.5t-221 -55.5q-164 0 -279.5 97.5t-169.5 262t-54 382.5zM244 717q0 -292 94 -455.5t274 -163.5t274.5 163.5t94.5 455.5
t-94.5 455t-274.5 163t-274 -163t-94 -455z" />
    <glyph glyph-name="one.tnum" horiz-adv-x="808" 
d="M418 1276l-309 -213l-80 90l403 281h117v-1434h-131v1276z" />
    <glyph glyph-name="two.tnum" horiz-adv-x="1095" 
d="M551 1458q195 0 314.5 -106.5t119.5 -286.5q0 -123 -63.5 -251.5t-192.5 -276.5q-178 -203 -424 -418h701v-119h-893v106q279 248 491 484q124 140 185 256.5t61 224.5q0 115 -81.5 189.5t-219.5 74.5q-102 0 -199 -45.5t-176 -132.5l-96 78q207 223 473 223z" />
    <glyph glyph-name="three.tnum" horiz-adv-x="1136" 
d="M555 1335q-101 0 -195.5 -43t-169.5 -127l-96 80q195 213 463 213q196 0 311 -96t115 -258q0 -136 -81.5 -231t-201.5 -121q154 -36 238 -131.5t84 -243.5q0 -179 -124.5 -290.5t-346.5 -111.5q-155 0 -284 60t-218 170l96 80q164 -187 400 -187q161 0 251.5 76.5
t90.5 204.5q0 150 -109 231.5t-291 81.5h-135v117h135q159 0 260 76.5t101 208.5q0 107 -76 174t-217 67z" />
    <glyph glyph-name="four.tnum" horiz-adv-x="1146" 
d="M776 332h-719v112l727 990h123v-983h193v-119h-193v-332h-131v332zM776 1212l-563 -761h563v761z" />
    <glyph glyph-name="five.tnum" horiz-adv-x="1146" 
d="M569 98q153 0 243.5 92t90.5 226q0 153 -100.5 241t-261.5 88q-186 0 -332 -49l-19 11v727h775v-119h-643v-481q106 34 237 34q214 0 346.5 -125t132.5 -337q0 -119 -54 -216t-161.5 -156t-251.5 -59q-295 0 -473 218l99 86q85 -95 174.5 -138t197.5 -43z" />
    <glyph glyph-name="six.tnum" horiz-adv-x="1167" 
d="M614 1335q-345 0 -366 -565q166 145 379 145q207 0 329.5 -131.5t122.5 -343.5q0 -208 -131.5 -336.5t-337.5 -128.5q-233 0 -366 172t-133 533q0 203 34.5 353t100.5 242.5t157 137.5t209 45q252 0 406 -198l-98 -74q-63 78 -136 113.5t-170 35.5zM608 793
q-93 0 -189.5 -44.5t-172.5 -117.5q5 -120 27.5 -214t56 -153t80 -97t94.5 -53.5t104 -15.5q156 0 246 93.5t90 252.5q0 162 -88.5 255.5t-247.5 93.5z" />
    <glyph glyph-name="seven.tnum" horiz-adv-x="1060" 
d="M985 1315l-577 -1315h-148l582 1315h-781v119h924v-119z" />
    <glyph glyph-name="eight.tnum" horiz-adv-x="1206" 
d="M109 385q0 122 65 229t180 174q-186 111 -186 306q0 158 119.5 261t316.5 103q199 0 316.5 -104.5t117.5 -261.5q0 -108 -55.5 -199.5t-161.5 -157.5q132 -64 204.5 -152t72.5 -218q0 -177 -138.5 -283.5t-355.5 -106.5q-222 0 -358.5 108.5t-136.5 301.5zM510 719
q-6 1 -15 4l-12 4q-113 -66 -175 -156.5t-62 -189.5q0 -132 99 -209.5t259 -77.5q158 0 257.5 73t99.5 193q0 65 -28 116.5t-90 94t-138 75.5t-195 73zM606 823q52 -18 86 -32q209 135 209 292q0 112 -80 183t-217 71q-132 0 -215.5 -69t-83.5 -174q0 -86 70.5 -150.5
t230.5 -120.5z" />
    <glyph glyph-name="nine.tnum" horiz-adv-x="1167" 
d="M535 -25q-113 0 -213 39.5t-175 112.5l89 84q136 -113 305 -113q56 0 106.5 18t98.5 60t84.5 105.5t61 161t30.5 219.5q-77 -66 -175 -105t-204 -39q-207 0 -330 131.5t-123 343.5q0 208 131.5 336.5t337.5 128.5q113 0 203 -40t157.5 -123t103.5 -220t36 -321
q0 -201 -38 -352.5t-108.5 -243.5t-165 -137.5t-212.5 -45.5zM561 641q93 0 190 44.5t171 115.5q-5 149 -37 257t-83.5 166.5t-111 84.5t-129.5 26q-156 0 -246 -93.5t-90 -252.5q0 -162 88.5 -255t247.5 -93z" />
    <glyph glyph-name="parenleft.case" horiz-adv-x="706" 
d="M231 717q0 510 301 901l93 -45q-265 -387 -265 -856t265 -856l-93 -45q-301 391 -301 901z" />
    <glyph glyph-name="parenright.case" horiz-adv-x="706" 
d="M475 717q0 -510 -301 -901l-92 45q264 385 264 856t-264 856l92 45q301 -391 301 -901z" />
    <glyph glyph-name="hyphen.case" horiz-adv-x="831" 
d="M702 653h-573v127h573v-127z" />
    <glyph glyph-name="at.case" horiz-adv-x="1959" 
d="M1495 270q-81 0 -141.5 34t-87.5 99q-63 -69 -145.5 -110t-174.5 -41q-192 0 -291.5 123.5t-99.5 333.5t99.5 333t291.5 123q171 0 303 -139v115h121v-611q0 -74 36 -115.5t97 -41.5q55 0 94.5 28.5t61.5 83t31.5 122.5t9.5 157q0 211 -91 383t-257 271.5t-375 99.5
q-156 0 -290.5 -61t-227.5 -167t-146 -254.5t-53 -318.5q0 -168 53 -316t146.5 -256t230.5 -170.5t297 -62.5q126 0 249 43t224 119l49 -84q-225 -172 -522 -172q-153 0 -286.5 46.5t-232 129.5t-169.5 195t-107 246.5t-36 281.5t35.5 281.5t106 246t168 194t229 128
t282.5 45.5q186 0 343.5 -68t262 -184t163 -270t58.5 -326q0 -102 -15.5 -186t-49.5 -156t-96 -112t-148 -40zM1249 905q-132 154 -288 154q-151 0 -218 -89.5t-67 -260.5t67 -261t218 -90q84 0 158 41.5t130 110.5v395z" />
    <glyph glyph-name="bracketleft.case" horiz-adv-x="815" 
d="M252 -184v1802h514v-107h-385v-1589h385v-106h-514z" />
    <glyph glyph-name="bracketright.case" horiz-adv-x="815" 
d="M563 1618v-1802h-514v106h385v1589h-385v107h514z" />
    <glyph glyph-name="braceleft.case" horiz-adv-x="765" 
d="M354 45v412q0 92 -57.5 148.5t-142.5 56.5v110q85 0 142.5 56.5t57.5 148.5v412q0 229 232 229h139v-107h-139q-55 0 -79 -27t-24 -83v-440q0 -95 -46 -158t-136 -86q90 -23 136 -86t46 -158v-440q0 -57 24.5 -84t78.5 -27h139v-106h-139q-232 0 -232 229z" />
    <glyph glyph-name="braceright.case" horiz-adv-x="765" 
d="M412 457v-412q0 -229 -232 -229h-139v106h139q54 0 78.5 27t24.5 84v440q0 95 46 158t136 86q-90 23 -136 86t-46 158v440q0 56 -24 83t-79 27h-139v107h139q232 0 232 -229v-412q0 -92 57.5 -148.5t142.5 -56.5v-110q-85 0 -142.5 -56.5t-57.5 -148.5z" />
    <glyph glyph-name="exclamdown.case" horiz-adv-x="540" 
d="M168 1356q0 43 29.5 72.5t72.5 29.5t73 -29.5t30 -72.5t-30 -73t-73 -30t-72.5 30t-29.5 73zM201 446l28 641h82l29 -641v-446h-139v446z" />
    <glyph glyph-name="guillemotleft.case" horiz-adv-x="1128" 
d="M102 692v49l445 328l63 -84l-368 -268l368 -268l-63 -84zM516 692v49l447 328l63 -84l-369 -268l369 -268l-63 -84z" />
    <glyph glyph-name="periodcentered.case" horiz-adv-x="602" 
d="M199 690q0 43 29.5 73t72.5 30t72.5 -30t29.5 -73t-29.5 -72.5t-72.5 -29.5t-72.5 29.5t-29.5 72.5z" />
    <glyph glyph-name="guillemotright.case" horiz-adv-x="1128" 
d="M1026 741v-49l-444 -327l-66 84l369 268l-369 268l66 84zM610 741v-49l-444 -327l-64 84l369 268l-369 268l64 84z" />
    <glyph glyph-name="questiondown.case" horiz-adv-x="1062" 
d="M551 94q183 0 326 164l90 -74q-83 -99 -193.5 -154t-232.5 -55q-186 0 -292 92.5t-106 251.5q0 118 58 213t188 181q92 62 125 125.5t33 167.5v81h131v-88q0 -128 -43.5 -215t-149.5 -157q-119 -78 -162.5 -147.5t-43.5 -162.5q0 -103 73 -163t199 -60zM713 1356
q0 -43 -30 -73t-73 -30t-72.5 30t-29.5 73t29.5 72.5t72.5 29.5t73 -29.5t30 -72.5z" />
    <glyph glyph-name="endash.case" horiz-adv-x="1024" 
d="M1024 657h-1024v117h1024v-117z" />
    <glyph glyph-name="emdash.case" horiz-adv-x="2048" 
d="M2048 657h-2048v117h2048v-117z" />
    <glyph glyph-name="bullet.case" horiz-adv-x="880" 
d="M440 471q-101 0 -173 71.5t-72 172.5q0 103 71.5 174.5t173.5 71.5t174 -72t72 -174q0 -101 -72.5 -172.5t-173.5 -71.5z" />
    <glyph glyph-name="guilsinglleft.case" horiz-adv-x="712" 
d="M102 692v49l445 328l63 -84l-368 -268l368 -268l-63 -84z" />
    <glyph glyph-name="guilsinglright.case" horiz-adv-x="712" 
d="M610 741v-49l-444 -327l-64 84l369 268l-369 268l64 84z" />
    <glyph glyph-name="zero.numerator" 
d="M184 961q0 -181 58.5 -282t169.5 -101t169 101t58 282t-58 281.5t-169 100.5t-169.5 -100.5t-58.5 -281.5zM70 961q0 221 89.5 355t252.5 134t252.5 -134t89.5 -355t-89.5 -355.5t-252.5 -134.5t-252.5 134.5t-89.5 355.5z" />
    <glyph glyph-name="one.numerator" 
d="M397 1292l-161 -121l-72 82l246 183h100v-951h-113v807z" />
    <glyph glyph-name="two.numerator" 
d="M391 1348q-109 0 -203 -97l-79 68q125 131 288 131q128 0 203.5 -71t75.5 -195q0 -154 -144 -324q-135 -159 -268 -272h420v-103h-580v97q188 162 334 333q123 145 123 269q0 78 -44 121t-126 43z" />
    <glyph glyph-name="three.numerator" 
d="M397 1348q-123 0 -202 -97l-80 66q117 133 282 133q126 0 201.5 -68t75.5 -182q0 -80 -52.5 -140.5t-129.5 -78.5q90 -21 147 -84.5t57 -155.5q0 -118 -82 -195t-227 -77q-195 0 -305 149l84 68q40 -56 99 -85.5t122 -29.5q91 0 143 50t52 120q0 94 -67.5 140.5
t-192.5 46.5h-78v100h78q112 0 174.5 45.5t62.5 120.5q0 70 -41.5 112t-120.5 42z" />
    <glyph glyph-name="four.numerator" 
d="M506 694h-459v94l465 646h109v-637h114v-103h-114v-209h-115v209zM506 1249l-324 -452h324v452z" />
    <glyph glyph-name="five.numerator" 
d="M393 571q89 0 146 56.5t57 144.5q0 96 -61.5 150.5t-163.5 54.5q-120 0 -205 -35l-21 14v478h514v-103h-403v-268q52 16 127 16q144 0 236 -84.5t92 -228.5q0 -131 -89 -214t-233 -83q-187 0 -303 125l78 72q95 -95 229 -95z" />
    <glyph glyph-name="six.numerator" 
d="M434 1348q-98 0 -156.5 -82t-64.5 -248q45 39 103 61.5t116 22.5q140 0 224.5 -90t84.5 -230q0 -138 -87.5 -225.5t-225.5 -87.5q-151 0 -244.5 115t-93.5 346q0 259 94 389.5t254 130.5q161 0 258 -127l-82 -63q-39 47 -81.5 67.5t-98.5 20.5zM422 999q-56 0 -113 -25
t-100 -71q6 -171 65.5 -251.5t151.5 -80.5q93 0 147 59.5t54 153.5q0 96 -54 155.5t-151 59.5z" />
    <glyph glyph-name="seven.numerator" 
d="M711 1331l-363 -846h-125l365 846h-475v103h598v-103z" />
    <glyph glyph-name="eight.numerator" 
d="M119 1206q0 110 80 177t209 67q131 0 210.5 -69.5t79.5 -184.5q0 -65 -35 -127.5t-92 -103.5q88 -46 126 -101t38 -129q0 -122 -89 -194t-232 -72t-233.5 77t-90.5 206q0 81 37 149t104 113q-112 75 -112 192zM205 750q0 -81 59.5 -129t149.5 -48q91 0 149 43t58 117
q0 25 -7 45.5t-23.5 38t-32.5 31t-46.5 29t-52.5 26t-63 28.5t-66 30q-62 -37 -93.5 -92.5t-31.5 -118.5zM584 1198q0 67 -48.5 107.5t-132.5 40.5q-79 0 -124.5 -39t-45.5 -97q0 -42 31 -75.5t64.5 -52t130.5 -62.5q2 -2 3.5 -2.5t4 -1.5t4.5 -2q113 85 113 184z" />
    <glyph glyph-name="nine.numerator" 
d="M395 571q204 0 219 332q-44 -39 -104.5 -62.5t-116.5 -23.5q-139 0 -224 90t-85 230q0 138 88 225.5t225 87.5q153 0 245.5 -115t92.5 -346q0 -260 -89.5 -390t-254.5 -130q-148 0 -254 106l78 72q76 -76 180 -76zM406 920q55 0 111 25t99 71q-4 169 -64 250.5t-151 81.5
q-95 0 -148.5 -59t-53.5 -154q0 -97 54.5 -156t152.5 -59z" />
    <glyph glyph-name="zero.denominator" 
d="M184 475q0 -181 58.5 -282t169.5 -101t169 101t58 282t-58 282t-169 101t-169.5 -101t-58.5 -282zM70 475q0 221 89.5 355.5t252.5 134.5t252.5 -134.5t89.5 -355.5t-89.5 -355t-252.5 -134t-252.5 134t-89.5 355z" />
    <glyph glyph-name="one.denominator" 
d="M397 807l-161 -121l-72 82l246 182h100v-950h-113v807z" />
    <glyph glyph-name="two.denominator" 
d="M391 862q-110 0 -203 -96l-79 68q125 131 288 131q128 0 203.5 -71.5t75.5 -195.5q0 -153 -144 -323q-138 -163 -268 -273h420v-102h-580v96q184 160 334 334q123 145 123 268q0 78 -44 121t-126 43z" />
    <glyph glyph-name="three.denominator" 
d="M397 862q-124 0 -202 -96l-80 65q118 134 282 134q126 0 201.5 -68t75.5 -182q0 -80 -52.5 -140.5t-129.5 -78.5q90 -21 147 -84.5t57 -155.5q0 -118 -82 -195t-227 -77q-195 0 -305 149l84 68q40 -56 99 -85.5t122 -29.5q91 0 143 50t52 120q0 93 -67 139.5t-193 46.5
h-78v101h78q112 0 174.5 45.5t62.5 120.5q0 70 -41.5 111.5t-120.5 41.5z" />
    <glyph glyph-name="four.denominator" 
d="M506 209h-459v94l465 645h109v-637h114v-102h-114v-209h-115v209zM506 764l-324 -453h324v453z" />
    <glyph glyph-name="five.denominator" 
d="M393 86q89 0 146 56.5t57 144.5q0 96 -61.5 150.5t-163.5 54.5q-120 0 -205 -35l-21 14v477h514v-102h-403v-268q52 16 127 16q144 0 236 -84.5t92 -228.5q0 -131 -89 -214t-233 -83q-187 0 -303 125l78 71q94 -94 229 -94z" />
    <glyph glyph-name="six.denominator" 
d="M434 862q-98 0 -156.5 -82t-64.5 -248q45 39 103 61.5t116 22.5q140 0 224.5 -89.5t84.5 -229.5q0 -138 -87.5 -225.5t-225.5 -87.5q-151 0 -244.5 115t-93.5 345q0 259 94 390t254 131q161 0 258 -127l-82 -64q-39 47 -81.5 67.5t-98.5 20.5zM422 514q-56 0 -113 -25
t-100 -71q6 -171 65.5 -251.5t151.5 -80.5q93 0 147 59.5t54 153.5q0 96 -54 155.5t-151 59.5z" />
    <glyph glyph-name="seven.denominator" 
d="M711 846l-363 -846h-125l365 846h-475v102h598v-102z" />
    <glyph glyph-name="eight.denominator" 
d="M119 721q0 110 80 177t209 67q131 0 210.5 -69.5t79.5 -184.5q0 -65 -35.5 -128.5t-91.5 -103.5q88 -46 126 -101t38 -128q0 -122 -89 -194t-232 -72t-233.5 76.5t-90.5 205.5q0 81 37 149t104 113q-112 75 -112 193zM205 264q0 -81 59.5 -128.5t149.5 -47.5q91 0 149 43
t58 117q0 28 -11.5 52.5t-26.5 41t-48.5 36t-56 30t-72 33t-76.5 34.5q-62 -37 -93.5 -92.5t-31.5 -118.5zM584 713q0 67 -48.5 107t-132.5 40q-79 0 -124.5 -38.5t-45.5 -96.5q0 -61 48.5 -97t182.5 -97q5 -2 7 -3q113 85 113 185z" />
    <glyph glyph-name="nine.denominator" 
d="M395 86q204 0 219 332q-44 -39 -104.5 -62.5t-116.5 -23.5q-139 0 -224 89.5t-85 229.5q0 138 88 226t225 88q153 0 245.5 -115t92.5 -346q0 -260 -89.5 -390t-254.5 -130q-148 0 -254 106l78 72q76 -76 180 -76zM406 434q55 0 111 25t99 71q-4 169 -64 250.5t-151 81.5
q-95 0 -148.5 -59t-53.5 -154q0 -97 54.5 -156t152.5 -59z" />
    </font>
</defs>
</svg>
